<?xml version="1.0" standalone="no"?><!DOCTYPE svg PUBLIC "-//W3C//DTD SVG 1.1//EN" "http://www.w3.org/Graphics/SVG/1.1/DTD/svg11.dtd"><svg t="1498122825032" class="icon" style="" viewBox="0 0 1024 1024" version="1.1" xmlns="http://www.w3.org/2000/svg" p-id="28203" xmlns:xlink="http://www.w3.org/1999/xlink" width="540" height="540"><defs><style type="text/css"></style></defs><path d="M932.983467 495.8208 540.433067 495.8208l0-392.533333c0-9.4208-7.6288-17.066667-17.066667-17.066667s-17.066667 7.645867-17.066667 17.066667l0 392.533333-392.533333 0c-9.4208 0-17.066667 7.645867-17.066667 17.066667s7.645867 17.066667 17.066667 17.066667l392.533333 0 0 392.533333c0 9.437867 7.645867 17.066667 17.066667 17.066667s17.066667-7.6288 17.066667-17.066667l0-392.533333 392.5504 0c9.437867 0 17.066667-7.645867 17.066667-17.066667S942.421333 495.8208 932.983467 495.8208z" p-id="28204" fill="#bfbfbf"></path></svg>