<?xml version="1.0" encoding="utf-8"?>
<!-- Generator: Adobe Illustrator 16.0.0, SVG Export Plug-In . SVG Version: 6.00 Build 0)  -->
<!DOCTYPE svg PUBLIC "-//W3C//DTD SVG 1.1//EN" "http://www.w3.org/Graphics/SVG/1.1/DTD/svg11.dtd">
<svg version="1.1" id="图层_1" xmlns="http://www.w3.org/2000/svg" xmlns:xlink="http://www.w3.org/1999/xlink" x="0px" y="0px"
	 width="540px" height="540px" viewBox="0 0 540 540" enable-background="new 0 0 540 540" xml:space="preserve">
<path fill="#BFBFBF" d="M276.563,319.635L97.364,140.441c-10.524-10.531-27.601-10.531-38.122,0l-7.626,7.629
	c-10.528,10.526-10.528,27.592,0,38.122l198.241,198.232c0.004,0.004,0.01,0.012,0.016,0.017l7.627,7.626
	c10.525,10.528,27.597,10.528,38.118,0l7.634-7.626c0.026-0.022,0.048-0.056,0.07-0.078l198.182-198.178
	c10.534-10.529,10.534-27.598,0-38.123l-7.625-7.629c-10.53-10.53-27.593-10.53-38.123,0L276.563,319.635L276.563,319.635z"/>
</svg>
