<?xml version="1.0" standalone="no"?><!DOCTYPE svg PUBLIC "-//W3C//DTD SVG 1.1//EN" "http://www.w3.org/Graphics/SVG/1.1/DTD/svg11.dtd"><svg t="1499394729340" class="icon" style="" viewBox="0 0 1024 1024" version="1.1" xmlns="http://www.w3.org/2000/svg" p-id="70901" xmlns:xlink="http://www.w3.org/1999/xlink" width="540" height="540"><defs><style type="text/css"></style></defs><path d="M511.89947 511.89947m-511.89947 0a511.89947 511.89947 0 1 0 1023.79894 0 511.89947 511.89947 0 1 0-1023.79894 0Z" fill="#EDEDED" p-id="70902"></path><path d="M118.022384 424.639309h788.156293v533.211859h-788.156293z" fill="#F5EA0A" p-id="70903"></path><path d="M511.89947 65.545651L118.022384 424.639309l393.877086 360.098959 394.078146-360.098959z" fill="#F8B517" p-id="70904"></path><path d="M209.30375 507.878264l293.749068 268.616533h17.894364l293.749068-268.616533V174.520322H209.30375z" fill="#FCFCFD" p-id="70905"></path><path d="M303.399961 265.801689h416.596897v28.550559H303.399961z" fill="#D6D6D6" p-id="70906"></path><path d="M303.399961 345.622619h416.596897v28.55056H303.399961zM303.399961 432.279599h416.596897v28.55056H303.399961zM303.399961 518.735519h416.596897v28.55056H303.399961zM708.938543 604.789319H315.061457l31.164343 29.15374H677.57314zM614.239152 691.245239H409.760848l31.365404 28.751619h141.747496z" fill="#F1F3F7" p-id="70907"></path><path d="M578.048302 722.007461h-132.096604L118.022384 958.454349h787.955232z" fill="#FBD303" p-id="70908"></path></svg>