<?xml version="1.0" encoding="utf-8"?>
<!-- Generator: Adobe Illustrator 16.0.0, SVG Export Plug-In . SVG Version: 6.00 Build 0)  -->
<!DOCTYPE svg PUBLIC "-//W3C//DTD SVG 1.1//EN" "http://www.w3.org/Graphics/SVG/1.1/DTD/svg11.dtd">
<svg version="1.1" id="图层_1" xmlns="http://www.w3.org/2000/svg" xmlns:xlink="http://www.w3.org/1999/xlink" x="0px" y="0px"
	 width="540px" height="540px" viewBox="0 0 540 540" enable-background="new 0 0 540 540" xml:space="preserve">
<path fill="#17ABE3" d="M218.141,275.966h-32.423c-14.637,0-25.993,14.124-25.993,32.09v4.938c0,2.589,1.896,4.938,3.997,4.938
	c0,0,9.937,4.2,37.969,4.2c28.056,0,38.435-4.2,38.435-4.2c2.111,0,3.997-2.35,3.997-4.938v-4.938
	C244.123,290.09,232.765,275.966,218.141,275.966z"/>
<path fill="#17ABE3" d="M174.636,239.95c0,14.566,11.808,26.375,26.375,26.375c14.566,0,26.375-11.809,26.375-26.375l0,0
	c0-14.566-11.809-26.375-26.375-26.375C186.445,213.575,174.636,225.384,174.636,239.95L174.636,239.95z"/>
<path fill="#17ABE3" d="M375.683,234.633c3.723-0.003,6.737-3.023,6.734-6.746c-0.005-3.722-3.024-6.737-6.746-6.734H266.619
	c-3.729-0.007-6.756,3.011-6.763,6.74l0,0v0.024c0.013,3.722,3.041,6.729,6.763,6.716l0,0H375.683z M375.734,259.457h-93.845
	c-3.709,0-6.716,3.007-6.716,6.716c0,0.012,0,0.024,0,0.036h-0.012v0.047c0.005,3.701,3.009,6.697,6.71,6.692
	c0.001,0,0.004,0,0.006,0h93.856c3.705-0.002,6.707-3.01,6.704-6.716c0-0.008,0-0.016,0-0.023c0.022-3.706-2.962-6.729-6.668-6.752
	C375.757,259.457,375.745,259.457,375.734,259.457z"/>
<path fill="#17ABE3" d="M269.504,10.036c-198.181,0-253.11,56.308-253.11,254.488c0,198.187,54.933,252.726,253.11,252.726
	c198.177,0,254.103-54.539,254.103-252.726C523.61,66.346,467.685,10.036,269.504,10.036L269.504,10.036z M424.427,339.595v0.095
	c-0.06,26.334-21.454,47.633-47.787,47.574H162.039c-26.354,0.026-47.736-21.315-47.763-47.669V192.199v-0.095
	c0.06-26.333,21.454-47.632,47.787-47.572h214.601c26.354-0.027,47.736,21.314,47.764,47.667V339.595L424.427,339.595z"/>
<path fill="#17ABE3" d="M375.673,297.771h-78.42c-3.721,0.009-6.736,3.021-6.751,6.741h0.012v0.012
	c0.006,3.722,3.029,6.734,6.751,6.729l0,0h78.418c3.723-0.007,6.735-3.029,6.729-6.75
	C382.406,300.784,379.392,297.774,375.673,297.771L375.673,297.771z"/>
</svg>
