<?xml version="1.0" encoding="utf-8"?>
<!-- Generator: Adobe Illustrator 16.0.0, SVG Export Plug-In . SVG Version: 6.00 Build 0)  -->
<!DOCTYPE svg PUBLIC "-//W3C//DTD SVG 1.1//EN" "http://www.w3.org/Graphics/SVG/1.1/DTD/svg11.dtd">
<svg version="1.1" id="图层_1" xmlns="http://www.w3.org/2000/svg" xmlns:xlink="http://www.w3.org/1999/xlink" x="0px" y="0px"
	 width="570px" height="570px" viewBox="0 0 570 570" enable-background="new 0 0 570 570" xml:space="preserve">
<path fill="#0E932E" d="M301.371,36.78c2.972-2.975,6.991-4.638,11.187-4.638h204.507c8.74,0,15.731,7.001,15.818,15.752
	l0.699,205.472c0,4.2-1.66,8.226-4.632,11.202L260.645,533.221c-2.971,2.975-6.992,4.638-11.187,4.638
	c-4.194,0-8.215-1.662-11.187-4.638L33.066,327.748c-6.205-6.213-6.205-16.188,0-22.314L301.371,36.78L301.371,36.78z
	 M249.546,499.704l252.487-252.813L501.42,63.646H319.113L66.627,316.46L249.546,499.704L249.546,499.704z"/>
<path fill="#0E932E" d="M423.161,177.655c0,22.752-18.441,41.216-41.162,41.216c-22.723,0-41.162-18.465-41.162-41.216
	c0-22.751,18.439-41.217,41.162-41.217C404.722,136.351,423.161,154.815,423.161,177.655z"/>
</svg>
