<?xml version="1.0" standalone="no"?><!DOCTYPE svg PUBLIC "-//W3C//DTD SVG 1.1//EN" "http://www.w3.org/Graphics/SVG/1.1/DTD/svg11.dtd"><svg t="1498636137569" class="icon" style="" viewBox="0 0 1024 1024" version="1.1" xmlns="http://www.w3.org/2000/svg" p-id="22332" xmlns:xlink="http://www.w3.org/1999/xlink" width="540" height="540"><defs><style type="text/css"></style></defs><path d="M197.714 873.26h602.094v60.21h-602.094v-60.21zM137.51 210.944h60.21v722.526h-60.21v-722.526zM739.622 90.53h-421.47c-60.21 0-60.21 61.712-60.21 61.712v600.587c0 60.21 60.21 60.21 60.21 60.21h541.884c60.21 0 60.21-60.21 60.21-60.21v-481.658l-180.624-180.641zM378.356 512h421.47v60.21h-421.47v-60.21zM378.356 391.587h421.47v60.21h-421.47v-60.21zM378.356 632.413h421.47v60.21h-421.47v-60.21zM739.622 271.171v-120.413l120.413 120.413h-120.413z" p-id="22333" fill="#ffffff"></path></svg>