<?xml version="1.0" encoding="utf-8"?>
<!-- Generator: Adobe Illustrator 16.0.0, SVG Export Plug-In . SVG Version: 6.00 Build 0)  -->
<!DOCTYPE svg PUBLIC "-//W3C//DTD SVG 1.1//EN" "http://www.w3.org/Graphics/SVG/1.1/DTD/svg11.dtd">
<svg version="1.1" id="图层_1" xmlns="http://www.w3.org/2000/svg" xmlns:xlink="http://www.w3.org/1999/xlink" x="0px" y="0px"
	 width="540px" height="540px" viewBox="0 0 540 540" enable-background="new 0 0 540 540" xml:space="preserve">
<path fill="#94D2D7" d="M25.545,274.916c0,137.871,111.765,249.635,249.635,249.635c137.869,0,249.635-111.764,249.635-249.635
	c0-137.869-111.766-249.634-249.635-249.634C137.31,25.282,25.545,137.047,25.545,274.916z"/>
<path fill="#61BEC5" d="M509.39,197.917c-61.009-32.11-192.662-102.753-247.25-128.442l-3.211,3.211
	c-6.422,6.422-9.633,6.422-16.055,9.633c-16.056,6.422-9.633,25.688-9.633,38.533c3.211,32.111-9.633,61.01-19.267,93.12
	c-3.211,16.056-6.422,35.322-12.844,51.376c-6.422,16.056-12.844,32.11-19.266,51.377c-6.422,16.056-9.633,35.322-16.056,54.589
	c-3.211,6.422-6.422,12.843-9.633,22.477c-3.211,6.422-12.844,12.844-16.055,22.478c35.322,19.266,125.231,57.8,183.029,77.064
	c109.176-32.109,186.241-128.441,186.241-247.25C512.601,226.815,512.601,213.972,509.39,197.917L509.39,197.917z"/>
<path fill="#CA8461" d="M398.573,153.347h-44.968v-12.264c0-12.264-8.175-20.44-20.439-20.44h-32.704
	c4.088-4.088,4.088-12.264,4.088-16.352c0-20.439-16.352-36.792-36.792-36.792c-20.439,0-36.791,16.352-36.791,36.792
	c0,8.176,0,12.264,4.087,16.352h-24.528c-12.264,0-20.439,12.264-20.439,20.44v8.176H145.12
	c-16.352,4.088-28.616,16.352-28.616,32.704v298.421c0,16.353,12.264,28.616,28.616,28.616h253.454
	c16.352,0,28.615-12.264,28.615-28.616V181.963C427.189,165.611,414.925,153.347,398.573,153.347z M284.111,120.643h-28.616
	c-4.087-4.088-8.176-8.176-8.176-16.352c0-12.264,8.176-20.439,20.439-20.439c12.265,0,20.44,8.176,20.44,20.439
	C292.286,112.467,288.198,116.555,284.111,120.643z"/>
<path fill="#F6F5F5" d="M398.573,459.943c0,8.177-8.176,20.44-20.44,20.44H165.56c-8.176,0-20.44-8.177-20.44-20.44V198.314
	c0-12.264,8.176-20.439,20.44-20.439h24.528c0,8.176,8.176,16.352,16.352,16.352h134.902c8.176,0,16.352-8.176,16.352-16.352h24.528
	c8.176,0,20.439,8.176,20.439,20.439L398.573,459.943L398.573,459.943z"/>
<path fill="#D64416" d="M177.823,247.37c0,13.546,10.982,24.527,24.528,24.527s24.528-10.981,24.528-24.527
	c0.008-13.546-10.966-24.535-24.512-24.544c-13.546-0.008-24.535,10.966-24.543,24.513
	C177.823,247.349,177.823,247.359,177.823,247.37L177.823,247.37z"/>
<path fill="#30777D" d="M349.518,235.106h-89.935c-8.176,0-12.265,4.087-12.265,12.264c0,8.176,8.176,16.352,16.353,16.352h89.935
	c8.176,0,16.353-8.176,16.353-16.352C365.868,239.193,357.694,235.106,349.518,235.106z"/>
<path fill="#D64416" d="M177.823,320.954c0,13.546,10.982,24.527,24.528,24.527s24.528-10.981,24.528-24.527
	c0.008-13.546-10.966-24.536-24.512-24.545c-13.546-0.008-24.535,10.967-24.543,24.513
	C177.823,320.933,177.823,320.943,177.823,320.954L177.823,320.954z"/>
<path fill="#30777D" d="M349.518,308.69h-89.935c-8.176,0-16.352,8.174-16.352,16.351s8.176,16.353,16.352,16.353h89.935
	c8.176,0,16.351-8.176,16.351-16.353C365.868,312.777,357.694,308.69,349.518,308.69z"/>
<path fill="#D64416" d="M177.823,402.712c0,13.546,10.982,24.527,24.528,24.527s24.528-10.981,24.528-24.527
	c0.008-13.546-10.966-24.533-24.512-24.542c-13.546-0.009-24.535,10.967-24.543,24.513
	C177.823,402.691,177.823,402.704,177.823,402.712L177.823,402.712z"/>
<path fill="#30777D" d="M349.518,386.361h-89.935c-8.176,0-16.352,8.175-16.352,16.351c0,8.177,8.176,16.354,16.352,16.354h89.935
	c8.176,0,16.351-8.177,16.351-16.354C365.868,394.536,357.694,386.361,349.518,386.361z"/>
<path fill="#868687" d="M357.695,177.875c0,12.264-8.177,20.439-20.44,20.439H206.44c-12.264,0-20.44-8.176-20.44-20.439v-36.792
	c0-12.264,8.176-20.44,20.44-20.44h126.727c12.265,0,20.439,8.176,20.439,20.44v36.792H357.695z"/>
</svg>
