<?xml version="1.0" standalone="no"?><!DOCTYPE svg PUBLIC "-//W3C//DTD SVG 1.1//EN" "http://www.w3.org/Graphics/SVG/1.1/DTD/svg11.dtd"><svg t="1498200915125" class="icon" style="" viewBox="0 0 1024 1024" version="1.1" xmlns="http://www.w3.org/2000/svg" p-id="63804" xmlns:xlink="http://www.w3.org/1999/xlink" width="540" height="540"><defs><style type="text/css"></style></defs><path d="M995.328 540.672c0 248.490667-203.434667 449.194667-454.656 449.194667s-454.656-200.704-454.656-449.194667 203.434667-449.194667 454.656-449.194667c251.221333 1.365333 454.656 202.069333 454.656 449.194667" fill="#D2E9F8" p-id="63805"></path><path d="M767.317333 131.072c81.92 79.189333 124.245333 199.338667 124.245334 322.218667 0 240.298667-196.608 435.541333-438.272 435.541333-95.573333 0-192.512-21.845333-264.874667-73.728 79.189333 75.093333 195.242667 113.322667 312.661333 113.322667 241.664 0 438.272-195.242667 438.272-435.541334 0-144.725333-62.805333-282.624-172.032-361.813333" fill="#4E8DCC" p-id="63806"></path><path d="M528.384 658.090667h-196.608c-6.826667 0-13.653333-5.461333-13.653333-13.653334s5.461333-13.653333 13.653333-13.653333h196.608c6.826667 0 13.653333 5.461333 13.653333 13.653333s-5.461333 13.653333-13.653333 13.653334M670.378667 716.8h-337.237334c-6.826667 0-13.653333-5.461333-13.653333-13.653333 0-6.826667 5.461333-13.653333 13.653333-13.653334h337.237334c6.826667 0 13.653333 5.461333 13.653333 13.653334 0 6.826667-6.826667 13.653333-13.653333 13.653333" fill="#3671C6" p-id="63807"></path><path d="M724.992 278.528l-49.152-49.152c-6.826667-6.826667-17.749333-6.826667-24.576 0l-42.325333 42.325333 28.672 28.672c2.730667 2.730667 2.730667 8.192 0 12.288l-1.365334 1.365334c-2.730667 2.730667-8.192 2.730667-10.922666 0l1.365333 13.653333v-4.096l-5.461333 13.653333c-2.730667-15.018667-5.461333-5.461333-10.922667 0l-4.096 12.288c-5.461333 5.461333-4.096 17.749333-9.557333 12.288l-58.709334 8.192-132.437333 109.226667c-1.365333 1.365333-13.653333 13.653333-15.018667 20.48l-8.192 62.805333c-1.365333 8.192 5.461333 15.018667 13.653334 13.653334l62.805333-8.192c6.826667-1.365333 19.114667-13.653333 20.48-15.018667l247.125333-248.490667c5.461333-6.826667 5.461333-19.114667-1.365333-25.941333" fill="#FFFFFF" p-id="63808"></path><path d="M681.301333 263.509333l-49.152-49.152c-6.826667-6.826667-17.749333-6.826667-24.576 0l-42.325333 42.325334 28.672 28.672c2.730667 2.730667 2.730667 8.192 0 12.288l-1.365333 1.365333c-2.730667 2.730667-8.192 2.730667-10.922667 0l-28.672-28.672-13.653333 13.653333 36.864 38.229334c5.461333 5.461333 5.461333 16.384 0 21.845333l-2.730667 2.730667c-5.461333 5.461333-15.018667 5.461333-21.845333 0l-36.864-38.229334-154.282667 155.648c-1.365333 1.365333-13.653333 13.653333-15.018667 20.48l-8.192 62.805334c-1.365333 8.192 5.461333 15.018667 13.653334 13.653333l62.805333-8.192c6.826667-1.365333 19.114667-13.653333 20.48-15.018667l245.76-247.125333c8.192-9.557333 8.192-20.48 1.365333-27.306667" fill="#3671C6" p-id="63809"></path><path d="M206.165333 196.608c15.018667-15.018667 31.402667-30.037333 49.152-42.325333 8.192-6.826667 12.288-17.749333 6.826667-27.306667-5.461333-8.192-17.749333-13.653333-27.306667-6.826667-20.48 15.018667-39.594667 31.402667-57.344 49.152-16.384 16.384 10.922667 45.056 28.672 27.306667" fill="#3F516B" p-id="63810"></path><path d="M348.16 102.44096c157.013333-58.709333 334.506667-23.210667 453.290667 98.304 107.861333 110.592 146.090667 277.162667 98.304 424.618667-46.421333 144.725333-170.666667 253.952-319.488 282.624-151.552 30.037333-311.296-31.402667-406.869334-152.917334-103.765333-132.437333-131.072-348.16-25.941333-486.058666 15.018667-20.48-19.114667-39.594667-34.133333-20.48-101.034667 135.168-88.746667 341.333333-4.096 481.962666 86.016 144.725333 249.856 233.472 417.792 223.914667 166.570667-9.557333 319.488-111.957333 390.485333-264.874667 69.632-151.552 51.882667-334.506667-46.421333-468.309333-122.88-165.205333-339.968-226.645333-531.114667-155.648-25.941333 8.192-15.018667 46.421333 8.192 36.864" fill="#3F516B" p-id="63811"></path></svg>