<?xml version="1.0" encoding="utf-8"?>
<!-- Generator: Adobe Illustrator 16.0.0, SVG Export Plug-In . SVG Version: 6.00 Build 0)  -->
<!DOCTYPE svg PUBLIC "-//W3C//DTD SVG 1.1//EN" "http://www.w3.org/Graphics/SVG/1.1/DTD/svg11.dtd">
<svg version="1.1" id="图层_1" xmlns="http://www.w3.org/2000/svg" xmlns:xlink="http://www.w3.org/1999/xlink" x="0px" y="0px"
	 width="540px" height="308px" viewBox="0 116.5 540 308" enable-background="new 0 116.5 540 308" xml:space="preserve">
<path fill="#FF8100" d="M98.55,367.2h110.7c-6.75,9.45-12.15,17.55-16.2,24.3c-39.15,0-54-1.35-44.55-1.35H91.8
	c-22.95,0-39.15-6.75-47.25-18.9c-9.45,6.75-18.9,14.85-27,22.95L13.5,365.85c6.75-5.399,13.5-9.449,20.25-13.5
	c-6.75,4.051-6.75,2.7,2.7-2.699l14.85-54H33.75L40.5,270h41.85l-21.6,81C66.15,361.8,78.3,367.2,98.55,367.2L98.55,367.2z
	 M58.05,214.65l25.65-13.5l4.05,8.1c4.05,8.1,9.45,17.55,13.5,28.35l-27,14.85C70.2,238.95,64.8,226.8,58.05,214.65z M113.4,207.9
	h126.9l-5.4,22.95l-47.25,22.95H229.5l-24.3,83.7c-2.7,13.5-13.5,22.95-28.351,22.95H153.9v-10.8v-9.45c2.7,0,6.75,0,9.45,1.35h5.4
	c5.399,0,9.45-4.05,10.8-9.45l1.35-4.05h-27L148.5,359.1h-24.3l8.1-29.699h-25.65l-8.1,29.699h-24.3L102.6,252.45h37.8
	c-2.699-1.35-5.399-4.05-8.1-5.4c-2.7-2.7-6.75-5.4-10.8-8.1L135,226.8h-27L113.4,207.9L113.4,207.9z M114.75,299.7l-4.05,12.149
	h25.649l4.05-12.149H114.75z M122.85,271.35l-4.05,12.15h25.65l4.05-12.15H122.85z M166.05,244.35l33.75-16.2h-58.05
	c2.7,1.35,6.75,4.05,12.149,8.1C159.3,240.3,163.35,243,166.05,244.35z M164.7,299.7l-4.051,12.149h27L191.7,299.7H164.7z
	 M195.75,283.5l4.05-12.15h-27l-4.05,12.15H195.75z M241.65,307.8l6.75-24.3h40.5L297,251.1H288.9
	c-6.75,10.8-16.199,20.25-24.3,29.7c-2.7-8.1-6.75-14.85-12.149-21.6c16.199-17.55,29.699-37.8,40.5-59.4l25.649,4.05
	c-5.4,8.1-9.45,14.85-12.15,21.6h49.95l-6.75,24.3H324l-9.45,33.75h31.05l-6.75,24.3H305.1c0,1.351-1.35,4.05-2.7,5.4
	c0,1.35-1.35,4.05-2.7,5.399l28.351,40.5L302.4,376.65C297,365.85,290.25,355.05,284.85,345.6
	c-13.5,20.25-32.399,36.45-52.649,49.95l-2.7-9.45c-1.351-5.399-4.05-10.8-6.75-16.199c24.3-16.2,43.2-37.801,55.35-63.45h-36.45
	V307.8z M348.3,390.15h-27l45.899-172.8h85.051l-45.9,172.8h-27l4.05-16.2H351L348.3,390.15z M391.499,348.3L419.85,243H388.8
	l-28.351,105.3H391.499L391.499,348.3z M409.05,184.95l-20.25-32.4l-13.5,8.1l18.899,32.4L409.05,184.95z M440.1,182.25v-37.8
	l-16.2,1.35v36.45H440.1z M510.3,184.95l-32.4,17.55L486,217.35l32.399-18.9L510.3,184.95z M488.699,230.85v16.2l37.801,1.35v-16.2
	L488.699,230.85z M486,160.65l-13.5-8.1l-18.9,32.4l13.5,8.1L486,160.65z"/>
</svg>
