<?xml version="1.0" encoding="utf-8"?>
<!-- Generator: Adobe Illustrator 16.0.0, SVG Export Plug-In . SVG Version: 6.00 Build 0)  -->
<!DOCTYPE svg PUBLIC "-//W3C//DTD SVG 1.1//EN" "http://www.w3.org/Graphics/SVG/1.1/DTD/svg11.dtd">
<svg version="1.1" id="图层_1" xmlns="http://www.w3.org/2000/svg" xmlns:xlink="http://www.w3.org/1999/xlink" x="0px" y="0px"
	 width="540px" height="540px" viewBox="0 0 540 540" enable-background="new 0 0 540 540" xml:space="preserve">
<path fill="#9DE2D5" d="M24.44,271.688c0,137.334,111.333,248.667,248.667,248.667c137.335,0,248.667-111.333,248.667-248.667
	c0-137.334-111.332-248.667-248.667-248.667C135.772,23.021,24.44,134.354,24.44,271.688L24.44,271.688z"/>
<path fill="#F4F4F4" d="M84.446,102.541v262.201c19.27,58.628,60.985,105.551,113.921,128.498h73.106v-390.39h-97.491
	L84.446,102.541z"/>
<path fill="#E8E8E8" d="M458.499,103.365l-88.398-0.516h-98.628v390.39h74.24c51.896-22.534,93.043-68.116,112.787-125.146
	L458.499,103.365L458.499,103.365z"/>
<path fill="#D6D6D6" d="M109.162,249.599h53.646v73.789h-53.646V249.599z M171.283,249.599h91.052v16.914h-91.052V249.599
	L171.283,249.599z M171.283,278.836h91.052v16.912h-91.052V278.836L171.283,278.836z M171.283,310.342h91.052v13.046h-91.052
	V310.342L171.283,310.342z M109.162,336.433h153.125v16.916H109.162V336.433z M109.162,364.896h153.125v16.914H109.162V364.896z
	 M109.162,392.534h153.125v16.913H109.162V392.534z M262.287,435.591H122.704l-6.204-8.046l-5.681-8.095h151.468V435.591
	L262.287,435.591z M286.292,249.599h141.856v16.914H286.292V249.599z M286.292,278.836h141.856v16.912H286.292V278.836z
	 M286.292,310.342h141.856v13.046H286.292V310.342z M286.292,336.433h141.856v16.916H286.292V336.433z M424.883,431.259
	l-3.646,4.538H286.106v-66.053h141.854v57.34L424.883,431.259z"/>
<path fill="#E8E8E8" d="M253.101,102.849H103.527V71.344L253.101,102.849z"/>
<path fill="#9F9F9F" d="M103.527,71.344l36.695-24.596v32.279L103.527,71.344z M410.488,102.849l48.013,0.516l-48.013-24.338
	V102.849z"/>
<path fill="#9DE2D5" d="M111.292,198.912h160.181v29.186H111.292V198.912z"/>
<path fill="#5FBFAD" d="M272.122,198.912h174.44v29.186h-174.44V198.912z"/>
<path d="M132.173,177.514v-29.597c0.048-1.496,0.521-2.321,1.468-2.476c0.899-0.207,1.799,0.361,2.698,1.6l16.051,25.163v-24.597
	c0.141-1.495,0.757-2.218,1.847-2.218c1.089,0,1.704,0.722,1.893,2.218v29.546c-0.094,1.185-0.568,1.907-1.468,2.165
	c-0.899,0.207-1.8-0.308-2.698-1.599l-15.861-24.803h-0.189v24.442c-0.189,1.339-0.806,2.062-1.895,2.062
	C132.932,179.422,132.314,178.803,132.173,177.514L132.173,177.514z M180.327,145.7c1.231,0.154,1.847,0.773,1.847,1.856
	s-0.616,1.703-1.847,1.857h-15.388v11.19h14.962c1.229,0.154,1.845,0.772,1.845,1.856c0,1.083-0.615,1.702-1.845,1.856h-14.962
	v11.395h15.293c1.231,0.155,1.847,0.774,1.847,1.805c0,1.031-0.616,1.649-1.847,1.804h-17.093c-1.278-0.104-1.942-0.98-2.037-2.526
	v-28.875c-0.094-1.392,0.615-2.115,2.037-2.217L180.327,145.7L180.327,145.7z M189.086,146.989l4.355,27.019l7.15-27.019
	c0.378-1.238,1.041-1.857,1.941-1.857c0.9,0,1.563,0.619,1.988,1.857l7.15,27.225l0.188-0.465l4.168-25.834
	c0.473-1.855,1.231-2.784,2.273-2.68c1.089,0.103,1.515,1.134,1.373,3.042l-4.734,28.103c-0.521,1.855-1.469,2.784-2.936,2.836
	c-1.468,0.051-2.461-0.773-3.03-2.475l-6.393-24.596l-6.392,24.801c-0.615,1.652-1.61,2.425-3.077,2.425
	c-1.468,0-2.367-0.877-2.794-2.526l-4.733-28.567c-0.142-1.702,0.331-2.68,1.372-2.939
	C187.998,145.184,188.707,145.7,189.086,146.989z M230.8,149.309c-3.361,0-5.019,1.392-5.019,4.176
	c0.095,1.547,0.853,2.835,2.225,3.816c1.373,0.979,2.651,1.752,3.788,2.269c3.174,1.701,5.446,3.3,6.819,4.846
	c1.372,1.547,2.035,3.352,2.035,5.518c0.048,2.578-0.805,4.693-2.462,6.446c-1.704,1.752-4.498,2.732-8.476,2.938
	c-3.124,0.103-5.634-0.619-7.575-2.269c-0.71-0.875-0.758-1.753-0.188-2.681c0.567-0.929,1.371-1.082,2.414-0.567
	c1.657,1.135,3.41,1.701,5.256,1.752c1.658,0.155,3.173-0.258,4.641-1.186c1.468-0.98,2.225-2.423,2.319-4.434
	c0.284-2.166-1.941-4.538-6.627-7.012c-2.652-1.238-4.688-2.579-6.062-4.022c-1.373-1.444-2.082-3.249-2.082-5.415
	c0.047-2.732,0.804-4.744,2.367-6.085c1.563-1.341,3.647-2.011,6.203-2.011c2.936-0.154,5.54,0.826,7.907,2.888
	c0.616,0.876,0.569,1.753-0.141,2.629c-0.711,0.825-1.563,0.825-2.652,0C234.257,149.876,232.694,149.36,230.8,149.309
	L230.8,149.309z"/>
</svg>
