<?xml version="1.0" encoding="utf-8"?>
<!-- Generator: Adobe Illustrator 16.0.0, SVG Export Plug-In . SVG Version: 6.00 Build 0)  -->
<!DOCTYPE svg PUBLIC "-//W3C//DTD SVG 1.1//EN" "http://www.w3.org/Graphics/SVG/1.1/DTD/svg11.dtd">
<svg version="1.1" id="图层_1" xmlns="http://www.w3.org/2000/svg" xmlns:xlink="http://www.w3.org/1999/xlink" x="0px" y="0px"
	 width="580px" height="580px" viewBox="16 106 580 580" enable-background="new 16 106 580 580" xml:space="preserve">
<g id="图形">
</g>
<g id="图层_2">
	<path id="XMLID_59_" fill="#FB5152" d="M398.697,128.128H213.304c-96.347,0-175.176,78.829-175.176,175.175v185.393
		c0,96.348,78.829,175.177,175.176,175.177h185.393c96.347,0,175.176-78.829,175.176-175.177V303.303
		C573.872,206.957,495.043,128.128,398.697,128.128z M338.012,542.112c0,5.971-3.455,11.399-8.857,13.929
		c-2.087,0.974-4.308,1.455-6.526,1.455c-3.518,0-7.034-1.209-9.845-3.553l-88.049-73.38h-71.371c-4.094,0-8.019-1.615-10.893-4.528
		c-2.887-2.888-4.491-6.811-4.491-10.905l0.32-123.087c0-4.094,1.642-8.006,4.541-10.88c2.874-2.874,6.786-4.479,10.845-4.479h0.063
		l70.528,0.285l88.492-73.652c4.59-3.812,10.969-4.65,16.372-2.11c5.415,2.542,8.87,7.971,8.87,13.929L338.012,542.112
		L338.012,542.112z M391.061,478.959c-2.196,1.098-4.553,1.617-6.859,1.617c-5.662,0-11.078-3.109-13.792-8.512
		c-3.802-7.6-0.717-16.854,6.883-20.653c0.717-0.396,22.269-12.473,22.269-48.915c0-34.113-23.045-46.09-24.021-46.597
		c-7.526-3.788-10.708-12.953-7.031-20.529c3.688-7.55,12.707-10.82,20.293-7.229c1.69,0.801,41.527,20.172,41.527,74.355
		C430.329,458.652,392.664,478.146,391.061,478.959z M438.866,524.136c-2.627,1.739-5.602,2.594-8.526,2.594
		c-4.97,0-9.856-2.405-12.816-6.849c-4.712-7.08-2.813-16.617,4.27-21.342c1.504-1.022,39.317-27.907,39.317-94.908
		c0-66.854-39.418-93.711-41.083-94.811c-7.056-4.662-9.079-14.185-4.466-21.268c4.64-7.082,14.052-9.155,21.146-4.601
		c2.258,1.442,55.172,36.282,55.172,120.667C491.879,487.843,441.026,522.706,438.866,524.136z"/>
</g>
</svg>
