<?xml version="1.0" encoding="utf-8"?>
<!-- Generator: Adobe Illustrator 16.0.0, SVG Export Plug-In . SVG Version: 6.00 Build 0)  -->
<!DOCTYPE svg PUBLIC "-//W3C//DTD SVG 1.1//EN" "http://www.w3.org/Graphics/SVG/1.1/DTD/svg11.dtd">
<svg version="1.1" id="图层_1" xmlns="http://www.w3.org/2000/svg" xmlns:xlink="http://www.w3.org/1999/xlink" x="0px" y="0px"
	 width="580px" height="580px" viewBox="0 0 580 580" enable-background="new 0 0 580 580" xml:space="preserve">
<g id="图形">
</g>
<g id="图层_2">
	<path id="XMLID_54_" fill="#49CC6E" d="M382.74,22.002H197.261c-96.392,0-175.258,78.866-175.258,175.257v185.479
		c0,96.393,78.866,175.26,175.258,175.26H382.74c96.391,0,175.256-78.867,175.256-175.26V197.26
		C557.996,100.87,479.133,22.002,382.74,22.002z M286.946,144.675c44.882,0,81.4,35.975,81.4,80.204
		c0,44.229-36.518,80.205-81.4,80.205c-44.877,0-81.396-35.988-81.396-80.205C205.55,180.662,242.069,144.675,286.946,144.675z
		 M423.274,420.012c0,29.174-47.627,29.174-102.783,29.174h-60.99c-57.414,0-102.774,0-102.774-29.174v-6.006
		c0-55.811,46.099-101.201,102.774-101.201h60.988c56.676,0,102.785,45.402,102.785,101.201V420.012L423.274,420.012z"/>
</g>
</svg>
