<?xml version="1.0" encoding="utf-8"?>
<!-- Generator: Adobe Illustrator 16.0.0, SVG Export Plug-In . SVG Version: 6.00 Build 0)  -->
<!DOCTYPE svg PUBLIC "-//W3C//DTD SVG 1.1//EN" "http://www.w3.org/Graphics/SVG/1.1/DTD/svg11.dtd">
<svg version="1.1" id="图层_1" xmlns="http://www.w3.org/2000/svg" xmlns:xlink="http://www.w3.org/1999/xlink" x="0px" y="0px"
	 width="540px" height="540px" viewBox="0 0 540 540" enable-background="new 0 0 540 540" xml:space="preserve">
<path fill="#59BDCA" d="M269.523,0c37.242,0,72.275,7.103,105.102,21.309c32.826,14.206,61.43,33.498,85.81,57.878
	s43.672,52.983,57.878,85.81s21.309,67.86,21.309,105.103c0,37.241-7.103,72.275-21.309,105.103
	c-14.206,32.825-33.498,61.43-57.878,85.81s-52.983,43.577-85.81,57.59c-32.827,14.014-67.86,21.021-105.102,21.021
	c-33.019,0-64.213-5.567-93.584-16.701c-29.371-11.135-55.958-26.491-79.763-46.072l65.653-139.944
	c8.063,13.054,15.55,25.147,22.46,36.282c5.759,9.598,11.518,18.716,17.277,27.354c5.759,8.639,9.791,14.493,12.094,17.565
	c4.223,5.375,8.159,10.366,11.806,14.974c3.647,4.607,8.735,7.295,15.261,8.063c8.063,1.151,13.822-0.288,17.278-4.319
	c3.456-4.031,7.294-9.31,11.518-15.837c1.151-1.536,3.359-5.567,6.623-12.094c3.263-6.527,7.198-14.59,11.807-24.188
	c4.606-9.599,9.79-20.252,15.549-31.963c5.759-11.71,11.519-23.708,17.277-35.993c13.437-28.411,28.411-60.086,44.92-95.024
	l61.046,32.826L401.981,76.595l-156.646,96.175l68.532,23.613l-72.564,149.158c-11.134-18.044-20.732-33.785-28.795-47.223
	c-3.456-5.76-6.815-11.23-10.079-16.414c-3.263-5.184-6.046-9.693-8.351-13.534l-5.183-8.639c1.536,3.072,1.632,3.552,0.288,1.44
	c-1.344-2.111-3.551-5.087-6.623-8.926c-3.071-3.839-6.527-7.679-10.366-11.518c-3.839-3.839-7.487-5.759-10.942-5.759
	c-8.831,0-15.166,2.208-19.005,6.623s-6.911,9.502-9.214,15.262c-0.768,1.536-2.688,5.663-5.759,12.381
	c-3.072,6.72-7.103,15.069-12.094,25.052c-4.991,9.983-10.366,21.117-16.125,33.402l-18.429,35.707
	c-5.759,12.285-11.326,23.995-16.702,35.13c-5.375,11.133-9.982,20.54-13.821,28.219c-16.125-22.269-28.507-46.648-37.146-73.14
	C4.32,327.112,0,299.278,0,270.099c0-37.242,7.007-72.276,21.021-105.103s33.21-61.43,57.59-85.81
	c24.38-24.38,52.983-43.672,85.81-57.878C197.247,7.103,232.281,0,269.523,0z"/>
</svg>
