<?xml version="1.0" encoding="utf-8"?>
<!-- Generator: Adobe Illustrator 16.0.0, SVG Export Plug-In . SVG Version: 6.00 Build 0)  -->
<!DOCTYPE svg PUBLIC "-//W3C//DTD SVG 1.1//EN" "http://www.w3.org/Graphics/SVG/1.1/DTD/svg11.dtd">
<svg version="1.1" id="图层_1" xmlns="http://www.w3.org/2000/svg" xmlns:xlink="http://www.w3.org/1999/xlink" x="0px" y="0px"
	 width="540px" height="540px" viewBox="0 0 540 540" enable-background="new 0 0 540 540" xml:space="preserve">
<path fill="#4F5D73" d="M25.599,270c0,136.429,110.597,247.025,247.025,247.025c136.429,0,247.025-110.597,247.025-247.025
	c0-136.428-110.597-247.025-247.025-247.025C136.196,22.975,25.599,133.572,25.599,270z"/>
<path fill="#231F20" d="M346.851,321.393c0,8.199,6.646,14.845,14.846,14.845c8.198,0,14.845-6.646,14.845-14.845
	s-6.646-14.846-14.845-14.846C353.497,306.547,346.851,313.193,346.851,321.393z"/>
<path fill="#231F20" d="M346.851,410.465c0,8.198,6.646,14.845,14.846,14.845c8.198,0,14.845-6.646,14.845-14.845
	c0-8.199-6.646-14.846-14.845-14.846C353.497,395.619,346.851,402.266,346.851,410.465z"/>
<path fill="#231F20" d="M228.088,195.207h-29.69v-29.69c0-8.199-6.646-14.846-14.845-14.846c-8.199,0-14.846,6.646-14.846,14.846
	v29.69h-29.69c-8.198,0-14.846,6.646-14.846,14.845c0,8.198,6.647,14.845,14.846,14.845h29.69v29.69
	c0,8.198,6.646,14.845,14.846,14.845c8.198,0,14.845-6.647,14.845-14.845v-29.69h29.69c8.199,0,14.846-6.647,14.846-14.845
	C242.934,201.853,236.287,195.207,228.088,195.207z M317.16,224.897h89.071c8.199,0,14.846-6.647,14.846-14.845
	c0-8.199-6.646-14.845-14.846-14.845H317.16c-8.199,0-14.846,6.646-14.846,14.845C302.315,218.25,308.961,224.897,317.16,224.897z
	 M406.232,351.083H317.16c-8.199,0-14.846,6.646-14.846,14.845c0,8.198,6.646,14.846,14.846,14.846h89.071
	c8.199,0,14.846-6.647,14.846-14.846C421.078,357.729,414.431,351.083,406.232,351.083z M234.238,322.666
	c-5.798-5.799-15.197-5.799-20.994,0l-29.69,29.69l-29.691-29.69c-5.797-5.799-15.196-5.799-20.994,0
	c-5.798,5.797-5.798,15.197,0,20.994l29.69,29.69l-29.69,29.69c-5.798,5.797-5.798,15.197,0,20.994s15.197,5.797,20.994,0
	l29.691-29.691l29.69,29.691c5.797,5.797,15.196,5.797,20.994,0s5.798-15.197,0-20.994l-29.69-29.69l29.69-29.69
	C240.035,337.863,240.035,328.463,234.238,322.666z"/>
<path fill="#E0E0D1" d="M346.851,306.547c0,8.198,6.646,14.845,14.846,14.845c8.198,0,14.845-6.646,14.845-14.845
	c0-8.199-6.646-14.846-14.845-14.846C353.497,291.701,346.851,298.348,346.851,306.547z"/>
<path fill="#E0E0D1" d="M346.851,395.619c0,8.199,6.646,14.846,14.846,14.846c8.198,0,14.845-6.646,14.845-14.846
	s-6.646-14.846-14.845-14.846C353.497,380.773,346.851,387.42,346.851,395.619z"/>
<path fill="#F5CF87" d="M242.934,195.207c0,8.198-6.646,14.845-14.846,14.845h-89.072c-8.198,0-14.845-6.647-14.845-14.845
	c0-8.199,6.646-14.846,14.845-14.846h89.072C236.287,180.361,242.934,187.008,242.934,195.207z"/>
<path fill="#E0995E" d="M421.078,195.207c0,8.198-6.647,14.845-14.846,14.845H317.16c-8.199,0-14.846-6.647-14.846-14.845
	c0-8.199,6.646-14.846,14.846-14.846h89.071C414.431,180.361,421.078,187.008,421.078,195.207L421.078,195.207z"/>
<path fill="#F5CF87" d="M183.553,254.588c-8.199,0-14.846-6.646-14.846-14.845V150.67c0-8.199,6.646-14.845,14.846-14.845
	c8.198,0,14.845,6.646,14.845,14.845v89.072C198.398,247.942,191.751,254.588,183.553,254.588z"/>
<path fill="#E0E0D1" d="M421.078,351.083c0,8.198-6.647,14.845-14.846,14.845H317.16c-8.199,0-14.846-6.646-14.846-14.845
	s6.646-14.846,14.846-14.846h89.071C414.431,336.237,421.078,342.885,421.078,351.083L421.078,351.083z"/>
<path fill="#76C2AF" d="M234.238,409.191c-5.798,5.797-15.197,5.797-20.994,0l-80.376-80.377c-5.798-5.797-5.798-15.197,0-20.994
	c5.798-5.798,15.197-5.798,20.994,0l80.376,80.375C240.035,393.994,240.035,403.393,234.238,409.191L234.238,409.191z"/>
<path fill="#76C2AF" d="M132.867,409.191c-5.798-5.799-5.798-15.197,0-20.995l80.376-80.376c5.797-5.797,15.196-5.797,20.994,0
	c5.798,5.798,5.798,15.197,0,20.995l-80.376,80.376C148.065,414.988,138.664,414.988,132.867,409.191z"/>
</svg>
