<?xml version="1.0" standalone="no"?><!DOCTYPE svg PUBLIC "-//W3C//DTD SVG 1.1//EN" "http://www.w3.org/Graphics/SVG/1.1/DTD/svg11.dtd"><svg t="1498200366395" class="icon" style="" viewBox="0 0 1024 1024" version="1.1" xmlns="http://www.w3.org/2000/svg" p-id="48162" xmlns:xlink="http://www.w3.org/1999/xlink" width="540" height="540"><defs><style type="text/css"></style></defs><path d="M512 511.98976m-478.28992 0a478.28992 478.28992 0 1 0 956.57984 0 478.28992 478.28992 0 1 0-956.57984 0Z" fill="#E6F4FF" p-id="48163"></path><path d="M512 995.40992c-266.55744 0-483.40992-216.86272-483.40992-483.42016C28.59008 245.44256 245.44256 28.59008 512 28.59008c266.5472 0 483.40992 216.85248 483.40992 483.40992 0 266.5472-216.86272 483.40992-483.40992 483.40992z m0-956.57984C251.09504 38.83008 38.83008 251.09504 38.83008 512S251.09504 985.18016 512 985.18016 985.16992 772.9152 985.16992 512C985.16992 251.0848 772.90496 38.83008 512 38.83008z" fill="#4FA0DE" p-id="48164"></path><path d="M125.85984 590.08s109.03552-9.82016 88.75008-104.96c-20.48-96-8.96-262.83008 235.52-262.83008 231.68 0 238.94016 166.83008 238.94016 191.15008 0 57.16992-23.05024 185.16992-214.19008 204.8-208.54784 21.42208-349.02016-28.16-349.02016-28.16z" fill="#FFFFFF" p-id="48165"></path><path d="M370.5856 628.72576c-148.8896 0-245.47328-33.4848-246.43584-33.82272a5.13024 5.13024 0 0 1 1.23904-9.9328c0.50176-0.04096 50.36032-4.95616 74.06592-37.16096 11.97056-16.27136 15.38048-37.00736 10.1376-61.63456-7.66976-35.92192-19.69152-126.6176 33.9456-192.90112 40.86784-50.50368 110.36672-76.11392 206.57152-76.11392 232.2944 0 244.06016 163.49184 244.06016 196.27008 0 56.35072-21.31968 189.61408-218.78784 209.88928-34.84672 3.59424-70.11328 5.40672-104.79616 5.40672z m-223.21152-37.56032c35.19488 9.55392 115.18976 27.32032 223.21152 27.32032a1023.2832 1023.2832 0 0 0 103.76192-5.33504c189.17376-19.42528 209.59232-146.13504 209.59232-199.71072 0-31.06816-11.27424-186.03008-233.82016-186.03008-92.96896 0-159.78496 24.33024-198.61504 72.31488-50.87232 62.86336-39.24992 149.84192-31.8976 184.32 5.89824 27.63776 1.88416 51.1488-11.9296 69.87776-16.15872 21.92384-42.05568 32.37888-60.30336 37.24288z" fill="#4FA0DE" p-id="48166"></path><path d="M328.0896 432.20992m-29.00992 0a29.00992 29.00992 0 1 0 58.01984 0 29.00992 29.00992 0 1 0-58.01984 0Z" fill="#4FA0DE" p-id="48167"></path><path d="M452.66944 432.20992m-29.00992 0a29.00992 29.00992 0 1 0 58.01984 0 29.00992 29.00992 0 1 0-58.01984 0Z" fill="#4FA0DE" p-id="48168"></path><path d="M577.25952 432.20992m-29.00992 0a29.00992 29.00992 0 1 0 58.01984 0 29.00992 29.00992 0 1 0-58.01984 0Z" fill="#4FA0DE" p-id="48169"></path><path d="M830.50496 777.34912s-47.16544-4.25984-38.37952-45.42464c8.84736-41.53344 3.87072-113.69472-101.87776-113.69472-100.21888 0-103.36256 72.16128-103.36256 82.67776 0 24.73984 9.97376 80.10752 92.64128 88.59648 90.2144 9.28768 150.97856-12.15488 150.97856-12.15488z" fill="#4FA0DE" p-id="48170"></path></svg>