<?xml version="1.0" encoding="utf-8"?>
<!-- Generator: Adobe Illustrator 16.0.0, SVG Export Plug-In . SVG Version: 6.00 Build 0)  -->
<!DOCTYPE svg PUBLIC "-//W3C//DTD SVG 1.1//EN" "http://www.w3.org/Graphics/SVG/1.1/DTD/svg11.dtd">
<svg version="1.1" id="图层_1" xmlns="http://www.w3.org/2000/svg" xmlns:xlink="http://www.w3.org/1999/xlink" x="0px" y="0px"
	 width="540px" height="540px" viewBox="0 0 540 540" enable-background="new 0 0 540 540" xml:space="preserve">
<path fill="#59BDCA" d="M154.429,254.653h70.848l-35.466-114.086L154.429,254.653z M372.297,284.229v-8.93
	c-3.824,3.824-12.116,6.377-24.872,7.653c-14.459,1.276-21.267,5.958-20.409,14.032c-0.43,6.806,5.102,10.204,16.582,10.204
	C361.456,305.912,371.023,298.257,372.297,284.229z"/>
<path fill="#59BDCA" d="M414.059,24.185H130.573c-58.991,0-106.811,47.82-106.811,106.812v283.51
	c0,58.99,47.82,106.811,106.811,106.811h283.486c58.99,0,106.811-47.82,106.811-106.811v-283.51
	C520.869,72.005,473.048,24.185,414.059,24.185z M256.428,352.362l-19.398-60.824H143.56l-19.087,60.824H87.092l80.674-255.561
	h53.924l81.562,255.561H256.428z M305.331,297.619c0.42-19.132,12.967-29.975,37.629-32.526c17.431-1.694,27.205-3.828,29.337-6.377
	c1.276-12.327-5.1-18.067-19.134-17.221c-14.887-0.846-23.179,4.684-24.871,16.583l-20.409-5.74
	c4.675-20.409,19.979-30.186,45.92-29.339c26.787-0.418,39.962,12.338,39.544,38.267v36.991c0,11.063,2.759,19.344,8.291,24.877
	H380.59c-3.407-2.553-5.319-6.601-5.739-12.12c-7.234,9.348-18.715,14.031-34.439,14.031
	C317.868,324.616,306.177,315.479,305.331,297.619L305.331,297.619z M395.709,447.493l-61.572-72.636H457.54L395.709,447.493z"/>
</svg>
