<?xml version="1.0" encoding="utf-8"?>
<!-- Generator: Adobe Illustrator 16.0.0, SVG Export Plug-In . SVG Version: 6.00 Build 0)  -->
<!DOCTYPE svg PUBLIC "-//W3C//DTD SVG 1.1//EN" "http://www.w3.org/Graphics/SVG/1.1/DTD/svg11.dtd">
<svg version="1.1" id="图层_1" xmlns="http://www.w3.org/2000/svg" xmlns:xlink="http://www.w3.org/1999/xlink" x="0px" y="0px"
	 width="501px" height="592px" viewBox="63.5 77.5 501 592" enable-background="new 63.5 77.5 501 592" xml:space="preserve">
<g id="图形">
</g>
<g id="图层_2">
	<g>
		<path fill="#FF8100" d="M152.639,457.821C152.096,457.103,153.114,458.538,152.639,457.821L152.639,457.821L152.639,457.821z"/>
		<path fill="#FF8100" d="M311.177,105.565c-117.069,0-211.922,94.595-211.922,211.219c0,53.706,20.896,103.759,53.998,141.036
			l137.515,173.409c10.807,13.63,28.533,13.584,39.387,0L467.123,457.82c34.735-37.602,55.956-85.872,55.956-141.036
			C523.077,200.16,428.223,105.565,311.177,105.565L311.177,105.565z M311.177,422.626c-58.685,0-106.216-47.367-106.216-105.841
			c0-58.451,47.531-105.841,106.216-105.841c58.639,0,106.193,47.39,106.193,105.841
			C417.37,375.259,369.816,422.626,311.177,422.626L311.177,422.626z"/>
	</g>
</g>
</svg>
