<?xml version="1.0" standalone="no"?><!DOCTYPE svg PUBLIC "-//W3C//DTD SVG 1.1//EN" "http://www.w3.org/Graphics/SVG/1.1/DTD/svg11.dtd"><svg t="1498444416415" class="icon" style="" viewBox="0 0 1024 1024" version="1.1" xmlns="http://www.w3.org/2000/svg" p-id="9846" xmlns:xlink="http://www.w3.org/1999/xlink" width="540" height="540"><defs><style type="text/css"></style></defs><path d="M511.705799 64.021106c-247.270686 0-447.724091 200.453405-447.724091 447.724091s200.453405 447.724091 447.724091 447.724091c247.27171 0 447.724091-200.453405 447.724091-447.724091S758.976486 64.021106 511.705799 64.021106zM773.616928 745.19818c-7.278777 7.804756-19.901259 7.856945-28.200272 0.121773L620.66949 629.009947c-1.469468-1.36816-2.697435-2.89084-3.691065-4.505617-38.963407 31.639604-88.633666 50.603515-142.734842 50.603515-125.138068 0-226.582505-101.44239-226.582505-226.580458 0-125.138068 101.444437-226.582505 226.579435-226.582505 125.138068 0 226.582505 101.444437 226.582505 226.582505 0 57.498552-21.418822 109.99109-56.71163 149.944034 1.01205 0.665149 1.986237 1.419326 2.905166 2.27788l124.750235 116.311029C780.062733 724.797547 780.891611 737.394447 773.616928 745.19818z" p-id="9847" fill="#8a8a8a"></path><path d="M474.24256 259.081687c-104.629989 0-189.444677 84.818781-189.444677 189.444677 0 104.627942 84.815711 189.44263 189.444677 189.44263 104.623849 0 189.44263-84.814688 189.44263-189.44263C663.685189 343.900467 578.870502 259.081687 474.24256 259.081687z" p-id="9848" fill="#8a8a8a"></path></svg>