<?xml version="1.0" encoding="utf-8"?>
<!-- Generator: Adobe Illustrator 16.0.0, SVG Export Plug-In . SVG Version: 6.00 Build 0)  -->
<!DOCTYPE svg PUBLIC "-//W3C//DTD SVG 1.1//EN" "http://www.w3.org/Graphics/SVG/1.1/DTD/svg11.dtd">
<svg version="1.1" id="图层_1" xmlns="http://www.w3.org/2000/svg" xmlns:xlink="http://www.w3.org/1999/xlink" x="0px" y="0px"
	 width="402.671px" height="535.744px" viewBox="88.665 160.128 402.671 535.744"
	 enable-background="new 88.665 160.128 402.671 535.744" xml:space="preserve">
<g id="图形">
</g>
<g id="图层_2">
	<path id="XMLID_17_" fill="#D1D1D1" d="M407.813,160.128H172.187c-46.057,0-83.522,37.465-83.522,83.522v368.7
		c0,46.057,37.466,83.522,83.522,83.522h235.625c46.059,0,83.523-37.466,83.523-83.522v-368.7
		C491.336,197.593,453.871,160.128,407.813,160.128z M259.371,192.777h61.249c6.125,0,11.137,5.011,11.137,11.137
		c0,6.124-5.012,11.135-11.137,11.135h-61.249c-6.126,0-11.137-5.011-11.137-11.135
		C248.234,197.788,253.245,192.777,259.371,192.777z M289.996,672.861c-19.221,0-34.802-15.581-34.802-34.802
		c0-19.219,15.581-34.801,34.802-34.801c19.219,0,34.799,15.582,34.799,34.801C324.795,657.28,309.215,672.861,289.996,672.861z
		 M430.522,549.898c0,15.313-12.529,27.841-27.842,27.841H177.31c-15.313,0-27.841-12.529-27.841-27.841V271.491
		c0-15.313,12.527-27.841,27.841-27.841h225.37c15.313,0,27.842,12.529,27.842,27.841V549.898z"/>
</g>
</svg>
