<?xml version="1.0" encoding="utf-8"?>
<!-- Generator: Adobe Illustrator 16.0.0, SVG Export Plug-In . SVG Version: 6.00 Build 0)  -->
<!DOCTYPE svg PUBLIC "-//W3C//DTD SVG 1.1//EN" "http://www.w3.org/Graphics/SVG/1.1/DTD/svg11.dtd">
<svg version="1.1" id="图层_1" xmlns="http://www.w3.org/2000/svg" xmlns:xlink="http://www.w3.org/1999/xlink" x="0px" y="0px"
	 width="580px" height="580px" viewBox="0 0 580 580" enable-background="new 0 0 580 580" xml:space="preserve">
<g id="图形">
</g>
<g id="图层_2">
	<g>
		<path fill="#59BDCA" d="M471.263,395.752c18.41-31.646,52.108-48.268,83.903-44.506c4.65-19.781,7.114-40.406,7.114-61.608
			c0-18.704-1.917-36.958-5.562-54.582c-32.194,4.258-66.506-12.517-85.042-44.678c-18.835-32.677-15.763-71.487,4.939-97.215
			c-28.433-26.421-62.611-46.741-100.453-58.887c-11.738,31.143-44.024,53.514-82.022,53.514c-37.997,0-70.284-22.372-82.021-53.514
			c-37.486,12.032-71.377,32.088-99.649,58.146c20.601,25.811,23.518,64.635,4.55,97.238
			c-18.667,32.088-53.053,48.726-85.232,44.332C27.998,251.945,26,270.557,26,289.637c0,20.825,2.374,41.096,6.866,60.555
			c31.813-3.643,65.452,13.117,83.738,44.844c17.97,31.174,16,67.936-2.195,93.588c28.459,25.721,62.458,45.426,99.995,57.102
			c13.277-28.291,43.979-48.104,79.735-48.104c35.758,0,66.459,19.813,79.736,48.104c37.188-11.566,70.9-31.014,99.196-56.383
			C454.987,463.615,453.169,426.852,471.263,395.752L471.263,395.752z M294.141,406.23c-64.391,0-116.591-52.201-116.591-116.593
			c0-64.392,52.2-116.592,116.591-116.592c64.393,0,116.593,52.2,116.593,116.592C410.734,354.029,358.532,406.23,294.141,406.23
			L294.141,406.23z"/>
	</g>
</g>
</svg>
