<?xml version="1.0" standalone="no"?><!DOCTYPE svg PUBLIC "-//W3C//DTD SVG 1.1//EN" "http://www.w3.org/Graphics/SVG/1.1/DTD/svg11.dtd"><svg t="1498201348908" class="icon" style="" viewBox="0 0 1024 1024" version="1.1" xmlns="http://www.w3.org/2000/svg" p-id="77223" xmlns:xlink="http://www.w3.org/1999/xlink" width="540" height="540"><defs><style type="text/css"></style></defs><path d="M522.3 537.9m-420.6 0a420.6 420.6 0 1 0 841.2 0 420.6 420.6 0 1 0-841.2 0Z" fill="#9DE2D5" p-id="77224"></path><path d="M126 170.3v508.5C166.7 792.5 254.8 883.5 366.6 928H521V170.9H315.1l-189.1-0.6z" fill="#F4F4F4" p-id="77225"></path><path d="M916 171.9l-186.7-1H521V928h156.8C787.4 884.3 874.3 795.9 916 685.3V171.9z" fill="#E8E8E8" p-id="77226"></path><path d="M178.2 455.5h113.3v143.1H178.2zM309.4 455.5h192.3v32.8H309.4zM309.4 512.2h192.3V545H309.4zM309.4 573.3h192.3v25.3H309.4zM178.2 623.9h323.4v32.8H178.2zM178.2 679.1h323.4v32.8H178.2zM178.2 732.7h323.4v32.8H178.2zM501.6 816.2H206.8l-13.1-15.6-12-15.7h319.9zM552.3 455.5h299.6v32.8H552.3zM552.3 512.2h299.6V545H552.3zM552.3 573.3h299.6v25.3H552.3zM552.3 623.9h299.6v32.8H552.3zM845 807.8l-7.7 8.8H551.9V688.5h299.6v111.2z" fill="#D6D6D6" p-id="77227"></path><path d="M482.2 170.9H166.3v-61.1z" fill="#E8E8E8" p-id="77228"></path><path d="M166.3 109.8l77.5-47.7v62.6zM814.6 170.9l101.4 1-101.4-47.2z" fill="#9F9F9F" p-id="77229"></path><path d="M182.7 357.2H521v56.6H182.7z" fill="#9DE2D5" p-id="77230"></path><path d="M521 357.2h338.3v56.6H521z" fill="#5FBFAD" p-id="77231"></path><path d="M226.8 315.7v-57.4c0.1-2.9 1.1-4.5 3.1-4.8 1.9-0.4 3.8 0.7 5.7 3.1l33.9 48.8v-47.7c0.3-2.9 1.6-4.3 3.9-4.3s3.6 1.4 4 4.3V315c-0.2 2.3-1.2 3.7-3.1 4.2-1.9 0.4-3.8-0.6-5.7-3.1L235.1 268h-0.4v47.4c-0.4 2.6-1.7 4-4 4s-3.6-1.2-3.9-3.7zM328.5 254c2.6 0.3 3.9 1.5 3.9 3.6s-1.3 3.3-3.9 3.6H296v21.7h31.6c2.6 0.3 3.9 1.5 3.9 3.6s-1.3 3.3-3.9 3.6H296v22.1h32.3c2.6 0.3 3.9 1.5 3.9 3.5s-1.3 3.2-3.9 3.5h-36.1c-2.7-0.2-4.1-1.9-4.3-4.9v-56c-0.2-2.7 1.3-4.1 4.3-4.3h36.3zM347 256.5l9.2 52.4 15.1-52.4c0.8-2.4 2.2-3.6 4.1-3.6 1.9 0 3.3 1.2 4.2 3.6l15.1 52.8 0.4-0.9 8.8-50.1c1-3.6 2.6-5.4 4.8-5.2 2.3 0.2 3.2 2.2 2.9 5.9l-10 54.5c-1.1 3.6-3.1 5.4-6.2 5.5s-5.2-1.5-6.4-4.8l-13.5-47.7-13.5 48.1c-1.3 3.2-3.4 4.7-6.5 4.7s-5-1.7-5.9-4.9l-10-55.4c-0.3-3.3 0.7-5.2 2.9-5.7 2.2-0.3 3.7 0.7 4.5 3.2zM435.1 261c-7.1 0-10.6 2.7-10.6 8.1 0.2 3 1.8 5.5 4.7 7.4 2.9 1.9 5.6 3.4 8 4.4 6.7 3.3 11.5 6.4 14.4 9.4 2.9 3 4.3 6.5 4.3 10.7 0.1 5-1.7 9.1-5.2 12.5-3.6 3.4-9.5 5.3-17.9 5.7-6.6 0.2-11.9-1.2-16-4.4-1.5-1.7-1.6-3.4-0.4-5.2 1.2-1.8 2.9-2.1 5.1-1.1 3.5 2.2 7.2 3.3 11.1 3.4 3.5 0.3 6.7-0.5 9.8-2.3 3.1-1.9 4.7-4.7 4.9-8.6 0.6-4.2-4.1-8.8-14-13.6-5.6-2.4-9.9-5-12.8-7.8-2.9-2.8-4.4-6.3-4.4-10.5 0.1-5.3 1.7-9.2 5-11.8 3.3-2.6 7.7-3.9 13.1-3.9 6.2-0.3 11.7 1.6 16.7 5.6 1.3 1.7 1.2 3.4-0.3 5.1-1.5 1.6-3.3 1.6-5.6 0-2.6-2-5.9-3-9.9-3.1z" fill="" p-id="77232"></path><path d="M738.8 306.2h7.2l1.2-3.8h-11.7c-0.1 0-0.3 0-0.6-0.1s-0.5-0.4-0.6-1c0 0 0-0.2 0.1-0.5s0.5-0.6 1-0.7h26.3l0.4 0.2c0.3 0.1 0.4 0.5 0.5 1 0 0.1-0.1 0.3-0.2 0.6s-0.4 0.5-0.8 0.5h-12l-1.3 3.8h10c0.1 0 0.5 0.1 1.2 0.3 0.7 0.3 1.1 1 1.2 2.1v15.6c0 0.1-0.1 0.5-0.3 1.2-0.2 0.7-0.9 1.1-2.2 1.2h-19.7c-0.1 0-0.5-0.1-1.3-0.3-0.7-0.3-1.1-1-1.1-2.1v-15.6c-0.1-0.1 0-0.5 0.2-1.2 0.5-0.7 1.2-1.1 2.5-1.2z m18.7 18.1s0.2 0 0.5-0.1 0.5-0.4 0.6-0.8v-5.6h-19.9v5.6s0 0.2 0.1 0.5 0.5 0.4 1.1 0.4h17.6z m-18.7-14.5v5.5h19.9v-5.5s-0.1-0.2-0.2-0.5-0.5-0.5-0.9-0.6H740c-0.1 0-0.3 0.1-0.7 0.2-0.4 0.1-0.6 0.4-0.5 0.9zM777.6 317.5h-10c0.3 3.1 1.9 4.7 5 4.8 1.8 0 3.2-0.5 4.4-1.4 0.8-0.6 1.5-0.6 1.9-0.2 0.4 0.4 0.4 1 0 1.7-1.4 1.5-3.5 2.3-6.3 2.3-2.3 0-4.1-0.7-5.5-2.1-1.4-1.4-2.1-3.4-2.2-6.2 0-2.5 0.6-4.5 1.9-6.1 1.3-1.6 3.1-2.4 5.5-2.5 2.4 0.1 4.2 1 5.4 2.7 1.2 1.6 1.8 3.3 1.8 5 0 0.7-0.1 1.2-0.3 1.5-0.3 0.3-0.8 0.5-1.6 0.5z m-10-2.1h9.2c-0.5-3.3-2-5-4.6-5.1-2.7 0-4.3 1.7-4.6 5.1zM783.3 323.3c0.1-0.1 1.2-1.4 3.1-4 1.9-2.5 3.8-5.5 5.5-8.9h-9c-0.1 0-0.3 0-0.6-0.1s-0.5-0.4-0.6-1c0 0 0-0.2 0.1-0.5s0.5-0.5 1-0.6h25.4s0.2 0.1 0.5 0.2 0.5 0.5 0.6 0.9c0 0.1-0.1 0.3-0.2 0.6s-0.5 0.5-0.9 0.5h-13.8c-0.1 0.2-0.9 1.8-2.6 4.6-1.6 2.9-3.6 5.7-5.9 8.6h3.2c2.1 0 4.6-0.1 7.7-0.1 0.2 0 1.2-0.1 3-0.2s3.5-0.3 5-0.5c0-0.1-0.4-0.7-1.1-1.9-0.7-1.2-1.6-2.6-2.7-4.1-0.1 0-0.2-0.2-0.3-0.6-0.2-0.4 0-0.8 0.4-1.2 0 0 0.2 0 0.6-0.1 0.4 0 0.8 0.2 1.3 0.6 0.1-0.1 2.1 3 5.8 9.4 0 0 0.1 0.3 0.2 0.8s-0.1 0.9-0.5 1.2c0 0-0.3 0.1-0.7 0.1s-0.9-0.3-1.2-0.9c0.1 0.1-0.1-0.4-0.6-1.6-0.1 0-1.1 0.1-2.9 0.2-1.8 0.1-4 0.3-6.6 0.4-0.1 0-1.2 0-3.3 0.1-2.2 0.1-5 0.1-8.7 0.1-0.1 0-0.3-0.1-0.8-0.2s-0.9-0.3-1.1-0.6v-0.4s0.2-0.4 0.7-0.8z m24.3-22.5c0 0.1-0.1 0.2-0.2 0.6s-0.5 0.5-1 0.5h-21.2c-0.1 0-0.3 0-0.6-0.1s-0.6-0.4-0.7-1c0 0 0-0.2 0.1-0.5s0.5-0.5 1-0.6h21.3s0.2 0.1 0.6 0.2c0.4 0.1 0.6 0.5 0.7 0.9zM814.4 310.7c0 0.1-0.3 0.1-0.7 0.2-0.4 0.1-0.8-0.1-1.1-0.5-0.1 0-0.1-0.2-0.1-0.6 0-0.4 0.3-0.7 0.8-1.1 0.1 0 0.9-0.6 2.4-2s3.1-3.6 4.9-6.7c0-0.1 0.2-0.4 0.8-0.8 0.5-0.4 1.4-0.2 2.6 0.6 0.1 0.1 1 0.9 2.6 2.4s3.1 3.1 4.6 4.9c0 0.1 0.1 0.3 0.2 0.8s0 0.9-0.4 1.2c0 0.1-0.3 0.1-0.7 0.2-0.4 0.1-0.8-0.1-1.3-0.7-0.1-0.2-0.9-1.1-2.4-2.8-1.5-1.7-2.9-3-4.4-4 0.1-0.2-0.2 0.2-0.9 1.3-0.1 0.2-0.8 1.2-2.1 3-1.2 1.9-2.9 3.4-4.8 4.6z m15.4 11.8c0 0.2-0.1 0.9-0.5 2-0.4 1.2-1.3 1.8-2.8 1.9h-7.8c-0.1 0-0.6-0.1-1.3-0.4s-1.2-1-1.3-2v-12.5c0-0.1 0-0.4 0.2-1.1s0.7-1.1 1.6-1.2h8.4c0.1 0 0.4 0.1 1 0.2 0.6 0.2 1 0.7 1.1 1.6v5.6c0.1 0.2-0.2 0.9-0.9 2-0.7 1.2-2.5 1.6-5.3 1.5-0.1 0-0.3 0-0.6-0.2-0.4-0.1-0.6-0.5-0.6-1 0 0 0.1-0.2 0.2-0.5 0.2-0.3 0.5-0.5 1.1-0.5 0.1 0.1 0.8 0.1 1.9 0 1.1-0.1 1.7-0.7 1.8-2v-3.6s0-0.1-0.1-0.4c-0.1-0.2-0.2-0.4-0.4-0.4h-6.1s-0.2 0-0.4 0.1-0.4 0.4-0.4 0.8v10.8c-0.1 0.1 0 0.3 0 0.6s0.5 0.5 1.2 0.5h6.2c0.1 0 0.3-0.1 0.8-0.3 0.5-0.3 0.8-0.8 1-1.7 0 0 0-0.2 0.2-0.5 0.1-0.3 0.4-0.4 0.9-0.5 0 0 0.2 0.1 0.5 0.2 0.2 0.2 0.4 0.5 0.4 1z m3.3-1.5c-0.1 0-0.3 0-0.6-0.2s-0.5-0.6-0.5-1.2V303s0-0.3 0.1-0.6c0.1-0.4 0.4-0.6 1-0.8 0 0 0.2 0.1 0.5 0.2 0.3 0.2 0.6 0.6 0.7 1.2v16.6c0 0.1-0.1 0.3-0.2 0.7s-0.5 0.6-1 0.7z m0.7 3.6c0.2 0.1 0.9 0.1 2 0.2 1.2 0.1 1.7-0.2 1.6-0.9v-23.5s0-0.3 0.1-0.6c0.1-0.4 0.4-0.6 1-0.8 0 0 0.2 0 0.5 0.2s0.5 0.5 0.7 1.1v24.6c0 0.4-0.2 0.8-0.5 1.2-0.3 0.4-1 0.8-1.9 1s-2.3 0.1-4.1-0.2c-0.1 0-0.3-0.1-0.6-0.3-0.3-0.2-0.5-0.6-0.5-1.2 0-0.1 0.1-0.2 0.3-0.5s0.8-0.3 1.4-0.3z" fill="" p-id="77233"></path></svg>