<?xml version="1.0" encoding="utf-8"?>
<!-- Generator: Adobe Illustrator 16.0.0, SVG Export Plug-In . SVG Version: 6.00 Build 0)  -->
<!DOCTYPE svg PUBLIC "-//W3C//DTD SVG 1.1//EN" "http://www.w3.org/Graphics/SVG/1.1/DTD/svg11.dtd">
<svg version="1.1" id="图层_1" xmlns="http://www.w3.org/2000/svg" xmlns:xlink="http://www.w3.org/1999/xlink" x="0px" y="0px"
	 width="540px" height="540px" viewBox="0 0 540 540" enable-background="new 0 0 540 540" xml:space="preserve">
<path fill="#EFF9FE" d="M538.644,274.577c-0.865,44.608-12.54,86.488-32.479,123.173c-46.483,85.58-137.941,142.911-242.046,140.894
	c-65.232-1.265-124.62-25.619-170.475-65.144c-27.315-23.534-49.833-52.426-65.928-85.023
	c-8.418-17.029-14.994-34.908-19.615-53.335c-5.712-22.684-8.524-46.499-8.049-71.005C2.935,115.406,125.846-2.831,274.56,0.052
	C423.291,2.935,541.529,125.846,538.644,274.577z"/>
<path fill="#A6DEF7" d="M109.251,316.85c-4.349,4.292-8.508,8.445-12.722,12.542c-4.59,4.462-9.179,8.928-13.869,13.282
	c-3.754,3.485-8.927,3.327-12.312-0.188c-3.3-3.427-3.119-8.75,0.499-12.372c2.519-2.521,5.128-4.951,7.699-7.42
	c6.034-5.794,12.073-11.584,18.102-17.384c0.466-0.448,0.868-0.963,1.376-1.532c-17.444-25.286-23.61-52.959-17.006-83.045
	c5.175-23.573,17.438-43.09,36.257-58.105c39.421-31.454,94.431-30.412,132.43,2.571c21.419,18.591,33.387,42.436,35.438,70.711
	c2.045,28.191-6.616,53.226-24.963,75.174c5.05,5.158,9.983,10.188,14.906,15.229c2.541,2.602,5.099,5.188,7.588,7.839
	c3.551,3.783,3.535,9.215,0.024,12.573c-3.424,3.277-8.789,3.154-12.351-0.486c-6.967-7.119-13.835-14.334-20.748-21.506
	c-0.501-0.521-1.034-1.012-1.742-1.701c-20.587,16.482-43.966,24.733-70.392,23.585C151.113,345.469,128.615,335.205,109.251,316.85
	L109.251,316.85z"/>
<path fill="#FFFFFF" d="M95.438,243.492c-0.015,48.133,38.993,87.165,87.127,87.18s87.165-38.993,87.18-87.127
	c0-0.018,0-0.035,0-0.053c0-48.134-39.02-87.154-87.153-87.154S95.438,195.358,95.438,243.492z"/>
<path fill="#A6DEF7" d="M104.36,93.895c16.548,0.425,29.874,6.266,40.901,17.338c3.961,3.979,3.877,9.798-0.287,13.863
	c-10.421,10.171-20.938,20.242-31.428,30.344c-11.956,11.516-23.929,23.015-35.883,34.534c-3.956,3.812-8.566,5.03-12.401,2.444
	c-2.582-1.74-4.763-4.267-6.672-6.784c-8.512-11.218-12.459-23.968-11.534-38.004c1.031-15.655,7.432-28.847,19.222-39.329
	C77.393,98.417,90.448,93.809,104.36,93.895z M263.219,96.868c20.433,1.031,35.8,8.86,46.785,24.495
	c10.165,14.467,12.927,30.426,8.507,47.589c-2.529,9.818-7.489,18.241-14.566,25.446c-4.895,4.983-10.596,4.962-15.437-0.065
	c-12.826-13.321-25.63-26.665-38.448-39.993c-8.276-8.606-16.564-17.202-24.844-25.806c-0.71-0.732-1.4-1.481-2.073-2.248
	c-3.622-4.155-3.278-10.029,0.765-13.733c8.125-7.443,17.502-12.508,28.367-14.513C256.334,97.291,260.505,97.145,263.219,96.868z"
	/>
<path fill="#5D5D5D" d="M191.456,236.262l2.92,0.056c11.8,0.229,23.601,0.396,35.397,0.71c6.663,0.178,10.901,5.768,9.363,12.078
	c-0.878,3.602-4.159,6.512-7.853,6.916c-1.011,0.111-2.035,0.162-3.051,0.143c-15.077-0.279-30.155-0.535-45.23-0.912
	c-1.988-0.05-4.157-0.339-5.901-1.205c-3.871-1.921-5.108-5.43-5.004-9.651c0.325-13.109,0.533-26.221,0.788-39.331
	c0.011-0.509,0.026-1.02,0.066-1.528c0.542-6.942,6.901-10.908,13.354-8.332c3.583,1.432,5.808,5.098,5.738,9.691
	c-0.146,9.469-0.351,18.938-0.531,28.406L191.456,236.262L191.456,236.262z"/>
<path fill="#DFF1F7" d="M339.72,410.707l-68.448-71.156c-11.96-12.433-11.577-32.207,0.856-44.168l114.72-110.356
	c12.433-11.96,32.208-11.577,44.168,0.856l68.449,71.155c11.961,12.433,11.577,32.208-0.856,44.169l-114.72,110.355
	C371.455,423.522,351.681,423.14,339.72,410.707L339.72,410.707z"/>
<path fill="#7C290D" d="M426.235,238.161c-3.438,3.307-7.968,4.782-12.375,4.449c-0.631-0.046-1.258-0.13-1.878-0.252
	c-0.069-0.012-0.142-0.028-0.211-0.041c-0.225-0.047-0.447-0.1-0.669-0.159c-2.906-0.738-5.548-2.275-7.625-4.438
	c-6.164-6.408-5.971-16.597,0.438-22.761c2.587-2.497,5.939-4.05,9.517-4.409c2.66-0.272,5.346,0.121,7.816,1.142
	c0.86,0.358,1.688,0.79,2.475,1.291c1.077,0.687,2.068,1.5,2.953,2.422C432.837,221.808,432.644,231.997,426.235,238.161
	L426.235,238.161z"/>
<path d="M426.235,238.161c-3.438,3.307-7.968,4.782-12.375,4.449c-0.631-0.046-1.258-0.13-1.878-0.252
	c-0.069-0.012-0.142-0.028-0.211-0.041c-0.225-0.047-0.447-0.1-0.669-0.159c-2.906-0.738-5.548-2.275-7.625-4.438
	c-6.164-6.408-5.971-16.597,0.438-22.761c2.587-2.497,5.939-4.05,9.517-4.409c2.66-0.272,5.346,0.121,7.816,1.142
	c0.86,0.358,1.688,0.79,2.475,1.291c1.077,0.687,2.068,1.5,2.953,2.422C432.837,221.808,432.644,231.997,426.235,238.161
	L426.235,238.161z"/>
<path fill="#7C290D" d="M426.235,238.161c-3.438,3.307-7.968,4.782-12.375,4.449c-0.631-0.046-1.258-0.13-1.878-0.252
	c-0.069-0.012-0.142-0.028-0.211-0.041c-0.211-0.091-0.419-0.19-0.623-0.297c-1.756-0.87-3.349-2.038-4.705-3.453
	c-6.523-6.781-6.313-17.572,0.467-24.095c1.85-1.784,4.08-3.125,6.522-3.922c2.66-0.272,5.346,0.121,7.816,1.142
	c0.86,0.358,1.688,0.79,2.475,1.29c1.077,0.687,2.068,1.5,2.953,2.422C432.837,221.808,432.644,231.997,426.235,238.161
	L426.235,238.161z"/>
<path fill="#FFFFFF" d="M426.235,238.161c-3.438,3.307-7.968,4.782-12.375,4.449c-0.631-0.046-1.258-0.13-1.878-0.252
	c-0.069-0.012-0.142-0.028-0.211-0.041c-0.211-0.091-0.419-0.19-0.623-0.297c-1.756-0.87-3.349-2.038-4.705-3.453
	c-6.523-6.781-6.313-17.572,0.467-24.095c1.85-1.784,4.08-3.125,6.522-3.922c2.66-0.272,5.346,0.121,7.816,1.142
	c0.86,0.358,1.688,0.79,2.475,1.29c1.077,0.687,2.068,1.5,2.953,2.422C432.837,221.808,432.644,231.997,426.235,238.161
	L426.235,238.161z"/>
<path fill="#7C290D" d="M413.86,242.61c-0.63-0.046-1.257-0.13-1.877-0.252c-0.069-0.012-0.143-0.028-0.211-0.041
	c-0.225-0.047-0.448-0.1-0.67-0.159l0.047-0.138l10.101-30.329c0.86,0.358,1.688,0.79,2.475,1.291L413.86,242.61z"/>
<path d="M413.86,242.61c-0.63-0.046-1.257-0.13-1.877-0.252c-0.069-0.012-0.143-0.028-0.211-0.041
	c-0.225-0.047-0.448-0.1-0.67-0.159l0.047-0.138l10.101-30.329c0.86,0.358,1.688,0.79,2.475,1.291L413.86,242.61z"/>
<path fill="#7C290D" d="M471.728,285.452c-3.438,3.307-7.968,4.782-12.376,4.448c-0.63-0.045-1.257-0.129-1.877-0.252
	c-0.069-0.012-0.142-0.028-0.211-0.04c-0.225-0.048-0.447-0.101-0.669-0.159c-2.906-0.738-5.548-2.275-7.625-4.438
	c-6.164-6.408-5.971-16.597,0.438-22.761c2.588-2.497,5.939-4.05,9.518-4.409c2.659-0.272,5.345,0.121,7.816,1.142
	c0.86,0.358,1.688,0.79,2.475,1.29c1.077,0.687,2.068,1.5,2.953,2.422C478.33,269.099,478.136,279.287,471.728,285.452z"/>
<path d="M471.728,285.452c-3.438,3.307-7.968,4.782-12.376,4.448c-0.63-0.045-1.257-0.129-1.877-0.252
	c-0.069-0.012-0.142-0.028-0.211-0.04c-0.225-0.048-0.447-0.101-0.669-0.159c-2.906-0.738-5.548-2.275-7.625-4.438
	c-6.164-6.408-5.971-16.597,0.438-22.761c2.588-2.497,5.939-4.05,9.518-4.409c2.659-0.272,5.345,0.121,7.816,1.142
	c0.86,0.358,1.688,0.79,2.475,1.29c1.077,0.687,2.068,1.5,2.953,2.422C478.33,269.099,478.136,279.287,471.728,285.452z"/>
<path fill="#7C290D" d="M471.728,285.452c-3.438,3.307-7.968,4.782-12.376,4.448c-0.63-0.045-1.257-0.129-1.877-0.252
	c-0.069-0.012-0.142-0.028-0.211-0.04c-0.211-0.092-0.419-0.19-0.623-0.297c-1.757-0.87-3.349-2.038-4.705-3.453
	c-6.523-6.781-6.314-17.572,0.467-24.095c1.85-1.784,4.079-3.125,6.522-3.922c2.659-0.272,5.345,0.12,7.816,1.142
	c0.86,0.358,1.688,0.79,2.475,1.29c1.077,0.687,2.068,1.5,2.953,2.422C478.33,269.099,478.136,279.287,471.728,285.452
	L471.728,285.452z"/>
<path fill="#FFFFFF" d="M471.728,285.452c-3.438,3.307-7.968,4.782-12.376,4.448c-0.63-0.045-1.257-0.129-1.877-0.252
	c-0.069-0.012-0.142-0.028-0.211-0.04c-0.211-0.092-0.419-0.19-0.623-0.297c-1.757-0.87-3.349-2.038-4.705-3.453
	c-6.523-6.781-6.314-17.572,0.467-24.095c1.85-1.784,4.079-3.125,6.522-3.922c2.659-0.272,5.345,0.12,7.816,1.142
	c0.86,0.358,1.688,0.79,2.475,1.29c1.077,0.687,2.068,1.5,2.953,2.422C478.33,269.099,478.136,279.287,471.728,285.452
	L471.728,285.452z"/>
<path fill="#7C290D" d="M459.352,289.9c-0.63-0.045-1.257-0.129-1.877-0.252c-0.069-0.012-0.142-0.028-0.211-0.04
	c-0.225-0.048-0.447-0.101-0.669-0.159l0.046-0.139l10.101-30.328c0.86,0.358,1.688,0.79,2.475,1.29L459.352,289.9z"/>
<path d="M459.352,289.9c-0.63-0.045-1.257-0.129-1.877-0.252c-0.069-0.012-0.142-0.028-0.211-0.04
	c-0.225-0.048-0.447-0.101-0.669-0.159l0.046-0.139l10.101-30.328c0.86,0.358,1.688,0.79,2.475,1.29L459.352,289.9z"/>
<path fill="#7C290D" d="M373.731,288.668c-3.438,3.307-7.968,4.783-12.376,4.449c-0.63-0.045-1.257-0.13-1.876-0.252
	c-0.069-0.012-0.143-0.029-0.211-0.041c-0.225-0.047-0.448-0.1-0.67-0.159c-2.906-0.737-5.547-2.275-7.624-4.438
	c-6.165-6.408-5.971-16.596,0.438-22.761c2.587-2.497,5.939-4.05,9.518-4.409c2.659-0.271,5.345,0.121,7.815,1.142
	c0.86,0.358,1.688,0.79,2.475,1.291c1.077,0.687,2.068,1.5,2.953,2.421C380.333,272.315,380.139,282.504,373.731,288.668
	L373.731,288.668z"/>
<path d="M373.731,288.668c-3.438,3.307-7.968,4.783-12.376,4.449c-0.63-0.045-1.257-0.13-1.876-0.252
	c-0.069-0.012-0.143-0.029-0.211-0.041c-0.225-0.047-0.448-0.1-0.67-0.159c-2.906-0.737-5.547-2.275-7.624-4.438
	c-6.165-6.408-5.971-16.596,0.438-22.761c2.587-2.497,5.939-4.05,9.518-4.409c2.659-0.271,5.345,0.121,7.815,1.142
	c0.86,0.358,1.688,0.79,2.475,1.291c1.077,0.687,2.068,1.5,2.953,2.421C380.333,272.315,380.139,282.504,373.731,288.668
	L373.731,288.668z"/>
<path fill="#7C290D" d="M373.731,288.668c-3.438,3.307-7.968,4.783-12.376,4.449c-0.63-0.045-1.257-0.13-1.876-0.252
	c-0.069-0.012-0.143-0.029-0.211-0.041c-0.211-0.092-0.419-0.19-0.623-0.297c-1.757-0.869-3.349-2.038-4.706-3.453
	c-6.522-6.781-6.313-17.571,0.468-24.094c1.85-1.784,4.079-3.125,6.522-3.922c2.659-0.271,5.345,0.121,7.815,1.142
	c0.86,0.358,1.688,0.79,2.475,1.29c1.077,0.687,2.068,1.5,2.953,2.422C380.333,272.315,380.139,282.504,373.731,288.668
	L373.731,288.668z"/>
<path fill="#FFFFFF" d="M373.731,288.668c-3.438,3.307-7.968,4.783-12.376,4.449c-0.63-0.045-1.257-0.13-1.876-0.252
	c-0.069-0.012-0.143-0.029-0.211-0.041c-0.211-0.092-0.419-0.19-0.623-0.297c-1.757-0.869-3.349-2.038-4.706-3.453
	c-6.522-6.781-6.313-17.571,0.468-24.094c1.85-1.784,4.079-3.125,6.522-3.922c2.659-0.271,5.345,0.121,7.815,1.142
	c0.86,0.358,1.688,0.79,2.475,1.29c1.077,0.687,2.068,1.5,2.953,2.422C380.333,272.315,380.139,282.504,373.731,288.668
	L373.731,288.668z"/>
<path fill="#7C290D" d="M361.355,293.117c-0.63-0.045-1.257-0.13-1.876-0.252c-0.069-0.012-0.143-0.029-0.211-0.041
	c-0.225-0.047-0.448-0.1-0.67-0.159l0.047-0.138l10.1-30.329c0.86,0.358,1.688,0.79,2.475,1.291L361.355,293.117z"/>
<path d="M361.355,293.117c-0.63-0.045-1.257-0.13-1.876-0.252c-0.069-0.012-0.143-0.029-0.211-0.041
	c-0.225-0.047-0.448-0.1-0.67-0.159l0.047-0.138l10.1-30.329c0.86,0.358,1.688,0.79,2.475,1.291L361.355,293.117z"/>
<path fill="#7C290D" d="M419.223,335.959c-3.437,3.307-7.967,4.783-12.375,4.449c-0.631-0.045-1.258-0.13-1.878-0.252
	c-0.069-0.012-0.142-0.028-0.211-0.041c-0.225-0.047-0.447-0.1-0.669-0.159c-2.906-0.737-5.548-2.275-7.624-4.438
	c-6.165-6.408-5.972-16.596,0.438-22.761c2.587-2.497,5.939-4.05,9.517-4.409c2.66-0.271,5.346,0.121,7.816,1.143
	c0.86,0.357,1.688,0.789,2.475,1.289c1.077,0.688,2.069,1.5,2.953,2.422C425.825,319.606,425.631,329.795,419.223,335.959
	L419.223,335.959z"/>
<path d="M419.223,335.959c-3.437,3.307-7.967,4.783-12.375,4.449c-0.631-0.045-1.258-0.13-1.878-0.252
	c-0.069-0.012-0.142-0.028-0.211-0.041c-0.225-0.047-0.447-0.1-0.669-0.159c-2.906-0.737-5.548-2.275-7.624-4.438
	c-6.165-6.408-5.972-16.596,0.438-22.761c2.587-2.497,5.939-4.05,9.517-4.409c2.66-0.271,5.346,0.121,7.816,1.143
	c0.86,0.357,1.688,0.789,2.475,1.289c1.077,0.688,2.069,1.5,2.953,2.422C425.825,319.606,425.631,329.795,419.223,335.959
	L419.223,335.959z"/>
<path fill="#7C290D" d="M419.223,335.959c-3.437,3.307-7.967,4.783-12.375,4.449c-0.631-0.045-1.258-0.13-1.878-0.252
	c-0.069-0.012-0.142-0.028-0.211-0.041c-0.211-0.092-0.419-0.19-0.623-0.297c-1.756-0.869-3.349-2.038-4.705-3.453
	c-6.523-6.781-6.313-17.571,0.468-24.094c1.849-1.784,4.079-3.125,6.521-3.922c2.66-0.272,5.346,0.119,7.816,1.141
	c0.86,0.359,1.688,0.791,2.475,1.291c1.077,0.687,2.069,1.5,2.953,2.422C425.825,319.606,425.631,329.795,419.223,335.959
	L419.223,335.959z"/>
<path fill="#FFFFFF" d="M419.223,335.959c-3.437,3.307-7.967,4.783-12.375,4.449c-0.631-0.045-1.258-0.13-1.878-0.252
	c-0.069-0.012-0.142-0.028-0.211-0.041c-0.211-0.092-0.419-0.19-0.623-0.297c-1.756-0.869-3.349-2.038-4.705-3.453
	c-6.523-6.781-6.313-17.571,0.468-24.094c1.849-1.784,4.079-3.125,6.521-3.922c2.66-0.272,5.346,0.119,7.816,1.141
	c0.86,0.359,1.688,0.791,2.475,1.291c1.077,0.687,2.069,1.5,2.953,2.422C425.825,319.606,425.631,329.795,419.223,335.959
	L419.223,335.959z"/>
<path fill="#7C290D" d="M406.848,340.408c-0.631-0.045-1.258-0.13-1.878-0.252c-0.068-0.012-0.142-0.028-0.211-0.041
	c-0.224-0.047-0.447-0.1-0.669-0.158l0.047-0.139l10.1-30.328c0.86,0.357,1.688,0.789,2.475,1.289L406.848,340.408L406.848,340.408z
	"/>
<path d="M406.848,340.408c-0.631-0.045-1.258-0.13-1.878-0.252c-0.068-0.012-0.142-0.028-0.211-0.041
	c-0.224-0.047-0.447-0.1-0.669-0.158l0.047-0.139l10.1-30.328c0.86,0.357,1.688,0.789,2.475,1.289L406.848,340.408L406.848,340.408z
	"/>
<path fill="#7C290D" d="M321.599,338.818c-3.438,3.307-7.968,4.781-12.376,4.448c-0.63-0.046-1.257-0.13-1.877-0.252
	c-0.068-0.013-0.142-0.028-0.211-0.041c-0.225-0.048-0.447-0.101-0.669-0.159c-2.906-0.738-5.548-2.275-7.624-4.438
	c-6.165-6.408-5.972-16.598,0.438-22.762c2.587-2.497,5.939-4.051,9.517-4.409c2.66-0.272,5.346,0.12,7.816,1.142
	c0.86,0.358,1.688,0.79,2.475,1.291c1.077,0.687,2.068,1.499,2.953,2.421C328.201,322.465,328.007,332.653,321.599,338.818
	L321.599,338.818z"/>
<path d="M321.599,338.818c-3.438,3.307-7.968,4.781-12.376,4.448c-0.63-0.046-1.257-0.13-1.877-0.252
	c-0.068-0.013-0.142-0.028-0.211-0.041c-0.225-0.048-0.447-0.101-0.669-0.159c-2.906-0.738-5.548-2.275-7.624-4.438
	c-6.165-6.408-5.972-16.598,0.438-22.762c2.587-2.497,5.939-4.051,9.517-4.409c2.66-0.272,5.346,0.12,7.816,1.142
	c0.86,0.358,1.688,0.79,2.475,1.291c1.077,0.687,2.068,1.499,2.953,2.421C328.201,322.465,328.007,332.653,321.599,338.818
	L321.599,338.818z"/>
<path fill="#7C290D" d="M321.599,338.818c-3.438,3.307-7.968,4.781-12.376,4.448c-0.63-0.046-1.257-0.13-1.877-0.252
	c-0.068-0.013-0.142-0.028-0.211-0.041c-0.211-0.091-0.418-0.19-0.623-0.297c-1.756-0.87-3.348-2.038-4.705-3.453
	c-6.522-6.78-6.313-17.571,0.468-24.095c1.849-1.783,4.079-3.125,6.521-3.922c2.66-0.271,5.346,0.121,7.816,1.142
	c0.86,0.358,1.688,0.79,2.475,1.29c1.077,0.688,2.068,1.5,2.953,2.422C328.201,322.465,328.007,332.653,321.599,338.818
	L321.599,338.818z"/>
<path fill="#FFFFFF" d="M321.599,338.818c-3.438,3.307-7.968,4.781-12.376,4.448c-0.63-0.046-1.257-0.13-1.877-0.252
	c-0.068-0.013-0.142-0.028-0.211-0.041c-0.211-0.091-0.418-0.19-0.623-0.297c-1.756-0.87-3.348-2.038-4.705-3.453
	c-6.522-6.78-6.313-17.571,0.468-24.095c1.849-1.783,4.079-3.125,6.521-3.922c2.66-0.271,5.346,0.121,7.816,1.142
	c0.86,0.358,1.688,0.79,2.475,1.29c1.077,0.688,2.068,1.5,2.953,2.422C328.201,322.465,328.007,332.653,321.599,338.818
	L321.599,338.818z"/>
<path fill="#7C290D" d="M309.223,343.267c-0.63-0.046-1.257-0.13-1.877-0.252c-0.068-0.013-0.142-0.028-0.211-0.041
	c-0.224-0.048-0.447-0.101-0.669-0.159l0.047-0.139l10.1-30.328c0.86,0.358,1.688,0.79,2.475,1.291L309.223,343.267L309.223,343.267
	z"/>
<path d="M309.223,343.267c-0.63-0.046-1.257-0.13-1.877-0.252c-0.068-0.013-0.142-0.028-0.211-0.041
	c-0.224-0.048-0.447-0.101-0.669-0.159l0.047-0.139l10.1-30.328c0.86,0.358,1.688,0.79,2.475,1.291L309.223,343.267L309.223,343.267
	z"/>
<path fill="#7C290D" d="M367.091,386.109c-3.438,3.307-7.968,4.782-12.376,4.448c-0.63-0.046-1.257-0.13-1.877-0.252
	c-0.069-0.013-0.142-0.028-0.211-0.04c-0.225-0.048-0.447-0.102-0.669-0.16c-2.906-0.738-5.548-2.275-7.625-4.438
	c-6.164-6.408-5.971-16.598,0.438-22.762c2.587-2.497,5.939-4.051,9.517-4.409c2.66-0.271,5.346,0.12,7.816,1.142
	c0.86,0.358,1.688,0.79,2.475,1.291c1.077,0.687,2.068,1.5,2.953,2.422C373.694,369.756,373.5,379.944,367.091,386.109
	L367.091,386.109z"/>
<path d="M367.091,386.109c-3.438,3.307-7.968,4.782-12.376,4.448c-0.63-0.046-1.257-0.13-1.877-0.252
	c-0.069-0.013-0.142-0.028-0.211-0.04c-0.225-0.048-0.447-0.102-0.669-0.16c-2.906-0.738-5.548-2.275-7.625-4.438
	c-6.164-6.408-5.971-16.598,0.438-22.762c2.587-2.497,5.939-4.051,9.517-4.409c2.66-0.271,5.346,0.12,7.816,1.142
	c0.86,0.358,1.688,0.79,2.475,1.291c1.077,0.687,2.068,1.5,2.953,2.422C373.694,369.756,373.5,379.944,367.091,386.109
	L367.091,386.109z"/>
<path fill="#7C290D" d="M367.091,386.109c-3.438,3.307-7.968,4.782-12.376,4.448c-0.63-0.046-1.257-0.13-1.877-0.252
	c-0.069-0.013-0.142-0.028-0.211-0.04c-0.211-0.092-0.419-0.191-0.623-0.298c-1.756-0.87-3.349-2.038-4.705-3.452
	c-6.523-6.781-6.314-17.572,0.467-24.095c1.85-1.784,4.08-3.125,6.522-3.923c2.659-0.271,5.346,0.121,7.816,1.143
	c0.86,0.357,1.688,0.789,2.475,1.289c1.077,0.688,2.068,1.5,2.953,2.422C373.694,369.756,373.5,379.944,367.091,386.109
	L367.091,386.109z"/>
<path fill="#FFFFFF" d="M367.091,386.109c-3.438,3.307-7.968,4.782-12.376,4.448c-0.63-0.046-1.257-0.13-1.877-0.252
	c-0.069-0.013-0.142-0.028-0.211-0.04c-0.211-0.092-0.419-0.191-0.623-0.298c-1.756-0.87-3.349-2.038-4.705-3.452
	c-6.523-6.781-6.314-17.572,0.467-24.095c1.85-1.784,4.08-3.125,6.522-3.923c2.659-0.271,5.346,0.121,7.816,1.143
	c0.86,0.357,1.688,0.789,2.475,1.289c1.077,0.688,2.068,1.5,2.953,2.422C373.694,369.756,373.5,379.944,367.091,386.109
	L367.091,386.109z"/>
<path fill="#7C290D" d="M354.716,390.558c-0.631-0.046-1.258-0.13-1.878-0.252c-0.068-0.013-0.142-0.028-0.211-0.04
	c-0.224-0.048-0.447-0.102-0.669-0.16l0.047-0.139l10.1-30.328c0.86,0.358,1.688,0.79,2.476,1.291L354.716,390.558L354.716,390.558z
	"/>
<path d="M354.716,390.558c-0.631-0.046-1.258-0.13-1.878-0.252c-0.068-0.013-0.142-0.028-0.211-0.04
	c-0.224-0.048-0.447-0.102-0.669-0.16l0.047-0.139l10.1-30.328c0.86,0.358,1.688,0.79,2.476,1.291L354.716,390.558L354.716,390.558z
	"/>
<path fill="#FFFFFF" d="M418.952,200.204c0.972-1.635,0.51-4.156-1.289-5.058c-6.098-3.053-12.581-4.579-19.071-1.791
	c-6.295,2.705-9.493,9.455-15.258,12.853c-4.097,2.416-0.579,8.904,3.52,6.488c2.59-1.527,4.801-3.512,6.888-5.659
	c2.011-2.068,3.922-4.392,6.312-6.041c4.384-3.024,9.406-1.726,13.842,0.496C415.691,202.392,417.868,202.026,418.952,200.204z"/>
<path fill="#FCD472" d="M278.607,366.045l-1.753,90.428c-0.237,12.206-10.448,21.698-22.654,21.462l-80.331-1.558
	c-12.206-0.236-21.708-10.11-21.471-22.317l1.753-90.427c0.236-12.206,10.104-21.282,22.312-21.045l12.329,0.238l0.332-17.113
	l56.005,1.086l-0.331,17.113l11.995,0.232C268.999,344.381,278.842,353.84,278.607,366.045L278.607,366.045z"/>
<path fill="#FF9C71" d="M189.246,336.234l0.183-9.391l55.349,1.074l-0.183,9.391L189.246,336.234z"/>
<path d="M189.246,336.234l0.183-9.391l55.349,1.074l-0.183,9.391L189.246,336.234z"/>
<path fill="#FF9C71" d="M245.007,332.61l-55.99-1.085c-6.556-0.127-11.767-5.544-11.64-12.1c0.127-6.555,5.544-11.767,12.1-11.64
	l55.99,1.085c6.556,0.127,11.767,5.545,11.64,12.1C256.98,327.526,251.563,332.737,245.007,332.61z"/>
<path fill="#FFFFFF" d="M172.545,368.554l87.467,1.697l-0.993,51.146l-87.466-1.697L172.545,368.554z"/>
<path fill="#EAEAEA" d="M171.688,449.362L256.101,451l-0.115,5.931l-84.413-1.639L171.688,449.362z"/>
<path fill="#FFFFFF" d="M256.761,457.725l-85.972-1.667l0.146-7.486l85.972,1.667L256.761,457.725L256.761,457.725z
	 M172.376,454.532l82.858,1.605l0.085-4.373l-82.859-1.606L172.376,454.532z"/>
<path fill="#EAEAEA" d="M171.975,434.538l52.541,1.02l-0.115,5.93l-52.541-1.02L171.975,434.538z"/>
<path fill="#FFFFFF" d="M225.174,442.281l-54.097-1.049l0.146-7.485l54.098,1.049L225.174,442.281L225.174,442.281z
	 M172.663,439.707l50.985,0.988l0.085-4.374l-50.985-0.988L172.663,439.707z"/>
</svg>
