<?xml version="1.0" encoding="utf-8"?>
<!-- Generator: Adobe Illustrator 16.0.0, SVG Export Plug-In . SVG Version: 6.00 Build 0)  -->
<!DOCTYPE svg PUBLIC "-//W3C//DTD SVG 1.1//EN" "http://www.w3.org/Graphics/SVG/1.1/DTD/svg11.dtd">
<svg version="1.1" id="图层_1" xmlns="http://www.w3.org/2000/svg" xmlns:xlink="http://www.w3.org/1999/xlink" x="0px" y="0px"
	 width="1140px" height="570px" viewBox="0 0 1140 570" enable-background="new 0 0 1140 570" xml:space="preserve">
<path fill="#FF8100" d="M1045.282,565.23H89.176C45.178,565.23,9.5,529.55,9.5,485.553V87.175C9.5,43.178,45.18,7.5,89.176,7.5
	h956.107c43.998,0,79.677,35.679,79.677,79.675v398.378C1124.959,529.55,1089.281,565.23,1045.282,565.23z M321.463,189.319
	c-5.243,0.558-11.25,0.971-18.023,1.242c-6.772,0.271-14.293,0.558-22.581,0.829v-58.004c0-7.187,1.801-12.43,5.388-15.744
	c4.144-3.871,5.864-6.565,5.18-8.078c-0.685-1.514-4.081-2.135-10.151-1.865c-4.7,0.271-10.5,0.144-17.401-0.414
	c-6.9-0.558-13.4-1.242-19.471-2.071c1.099,6.071,2.006,16.365,2.691,30.866c0.684,14.501,1.037,32.938,1.037,55.312
	c-10.215,0-19.265-0.207-27.139-0.621c-7.872-0.414-14.852-0.893-20.924-1.451v32.731c5.802-0.558,12.702-1.037,20.716-1.451
	c8.016-0.414,17.129-0.621,27.345-0.621v82.448c-9.673,3.044-19.06,5.802-28.175,8.288c-9.114,2.485-17.671,4.557-25.687,6.213
	c1.659,6.357,3.379,13.052,5.18,20.092c1.8,7.046,3.25,14.151,4.351,21.338c6.899-4.413,14.022-8.555,21.337-12.429
	c7.314-3.872,14.979-7.729,22.994-11.601v74.163c0,9.673-3.107,16.223-9.322,19.682c-6.214,3.459-18.023,4.205-35.424,2.278
	c5.53,7.728,9.385,14.503,11.601,20.3c2.215,5.801,3.872,11.873,4.973,18.231c13.258-1.944,23.885-3.811,31.902-5.595
	c8.016-1.799,14.15-4.08,18.437-6.836c4.287-2.772,7.106-6.357,8.494-10.771c1.386-4.431,2.07-10.357,2.07-17.816V320.242
	c6.358-2.485,12.637-4.907,18.852-7.249c6.214-2.342,12.493-4.622,18.852-6.837c-1.385-4.144-2.278-8.845-2.691-14.087
	c-0.415-5.242-0.352-10.5,0.207-15.743c-4.701,2.216-10.007,4.558-15.951,7.043c-5.945,2.486-12.366,5.115-19.265,7.873V219.98
	c8.287,0.271,15.808,0.558,22.581,0.829c6.772,0.271,12.779,0.685,18.022,1.243V189.32L321.463,189.319z M477.244,121.579
	c-5.528-7.872-10.215-14.979-14.086-21.336l-32.316,19.058c6.358,7.187,12.08,14.645,17.194,22.375
	c5.115,7.728,9.178,15.472,12.221,23.201l34.803-19.473c-6.36-8.016-12.286-15.951-17.817-23.823L477.244,121.579z M563.834,406.834
	c-2.755,0.558-5.943,0.971-9.528,1.242c-3.586,0.271-8.493,0.479-14.708,0.62c-6.214,0.146-14.356,0.272-24.444,0.415
	c-10.088,0.146-22.994,0.208-38.738,0.208v-48.477c11.6,0,20.987,0,28.173,0c7.187,0,13.051,0.064,17.608,0.206
	c4.557,0.145,8.286,0.35,11.187,0.622c2.899,0.271,5.593,0.557,8.079,0.827v-33.144c-2.486,0.27-5.116,0.556-7.874,0.828
	c-2.755,0.271-6.485,0.478-11.186,0.621c-4.702,0.144-10.629,0.27-17.815,0.413c-7.187,0.145-16.573,0.206-28.173,0.206v-51.374
	c11.329,0,20.509,0.064,27.551,0.207c7.043,0.143,12.844,0.271,17.402,0.414c4.557,0.144,8.285,0.351,11.186,0.621
	c2.9,0.271,5.592,0.557,8.078,0.828v-33.56c-2.486,0.271-5.115,0.558-7.872,0.829c-2.756,0.271-6.422,0.479-10.979,0.621
	c-4.558,0.144-10.422,0.271-17.607,0.414c-7.187,0.144-16.431,0.207-27.759,0.207v-47.231c14.087,0,25.479,0,34.181,0
	c8.7,0,15.743,0.064,21.129,0.207c5.387,0.144,9.593,0.352,12.639,0.622c3.042,0.27,5.943,0.558,8.7,0.828v-33.559
	c-2.756,0.27-5.865,0.557-9.322,0.828c-3.458,0.271-8.43,0.479-14.914,0.621c-6.487,0.144-15.123,0.271-25.896,0.415
	s-24.859,0.207-42.26,0.207h-76.233c4.414-9.943,8.016-17.879,10.772-23.823c2.756-5.944,5.035-10.628,6.837-14.086
	c1.8-3.458,3.315-5.944,4.558-7.458c1.242-1.513,2.55-2.692,3.936-3.522c9.672-6.9,9.385-10.772-0.828-11.6
	c-4.702-0.558-10.564-2.135-17.609-4.764c-7.043-2.629-13.735-5.18-20.092-7.665c-1.387,8.016-2.758,15.266-4.145,21.751
	c-1.385,6.486-2.836,12.843-4.351,19.059c-1.512,6.214-3.313,12.43-5.385,18.645c-2.073,6.213-4.351,12.779-6.838,19.68
	c-6.628,16.843-13.608,30.931-20.922,42.261c-7.314,11.33-16.096,22.103-26.31,32.316c11.042,3.314,20.571,8.972,28.588,16.987
	c3.313-4.702,6.566-9.593,9.736-14.708c3.17-5.115,6.279-10.421,9.322-15.951v142.109c0,11.044-0.065,20.715-0.207,29.004
	c-0.144,8.287-0.414,15.886-0.829,22.787c-0.414,6.898-0.893,13.322-1.45,19.263c-0.558,5.93-1.243,11.937-2.071,18.025h35.63
	v-33.146h90.32c16.573,0,30.037,0,40.396,0c10.359,0,18.789,0.126,25.273,0.415c6.486,0.269,11.537,0.54,15.123,0.828
	c3.585,0.27,6.9,0.541,9.943,0.827v-33.975L563.834,406.834z M624.74,368.51c3.314,5.387,6.486,10.979,9.529,16.78
	c21.544-15.743,41.575-32.46,60.075-50.132v89.49c0,8.829-0.143,17.116-0.413,24.86c-0.271,7.728-0.829,16.016-1.657,24.86h38.117
	c-0.829-8.845-1.388-17.13-1.658-24.86c-0.271-7.744-0.415-16.029-0.415-24.86V300.354c8.559-9.386,16.431-18.788,23.615-28.173
	c7.188-9.385,13.673-18.501,19.474-27.344h78.304c11.042,0,22.166,0.064,33.354,0.207c11.186,0.144,21.957,0.351,32.314,0.622
	c10.359,0.271,19.952,0.685,28.796,1.243c8.845,0.557,16.572,1.1,23.2,1.658v-31.903c-6.628,0.558-14.355,1.036-23.2,1.451
	c-8.845,0.414-18.437,0.765-28.796,1.036c-10.357,0.271-21.129,0.479-32.314,0.621c-11.188,0.144-22.312,0.207-33.354,0.207h-63.805
	c3.045-5.242,5.658-9.051,7.872-11.394c2.217-2.342,5.243-4.495,9.115-6.422c2.756-1.387,4.001-2.692,3.729-3.937
	c-0.271-1.242-2.216-2.135-5.8-2.692c-5.243-1.1-10.836-2.549-16.779-4.35c-5.945-1.8-12.493-4.08-19.681-6.837
	c-1.657,4.972-3.792,10.358-6.423,16.158c-2.629,5.801-5.862,12.286-9.736,19.474h-0.413c-22.645,0-44.604-0.271-65.875-0.829
	c-21.275-0.558-38.674-1.386-52.205-2.486v31.902c11.603-1.1,26.723-1.929,45.368-2.486c18.644-0.558,38.052-0.972,58.209-1.244
	c-8.014,12.158-16.778,23.552-26.308,34.182c-9.531,10.628-19.473,20.445-29.83,29.416c-10.357,8.972-20.987,17.193-31.904,24.652
	c-10.915,7.457-21.607,14.229-32.109,20.302c4.415,4.7,8.287,9.735,11.603,15.122L624.74,368.51z M967.79,137.944
	c-12.43,1.386-26.994,2.279-43.71,2.692c-16.717,0.414-35.28,0.621-55.725,0.621v-23.615c0-1.386,0.351-3.043,1.036-4.972
	c0.685-1.929,2.134-3.585,4.35-4.972c2.756-1.658,3.937-3.043,3.522-4.143c-0.414-1.1-2.137-1.657-5.181-1.657
	c-5.242,0.271-11.12,0.271-17.606,0c-6.486-0.271-12.494-0.685-18.022-1.242c0.829,3.872,1.385,7.457,1.657,10.772
	c0.271,3.315,0.414,7.187,0.414,11.601v18.229h-86.593v-21.544c0-1.386,0.351-3.044,1.035-4.972
	c0.686-1.929,2.136-3.586,4.352-4.973c2.756-1.658,3.937-3.044,3.521-4.143c-0.414-1.101-2.136-1.658-5.18-1.658
	c-5.242,0.271-11.122,0.271-17.607,0c-6.485-0.27-12.495-0.684-18.023-1.242c0.829,3.872,1.386,7.458,1.658,10.772
	c0.271,3.315,0.413,7.187,0.413,11.601v16.159c-19.059,0-36.523-0.207-52.411-0.621c-15.887-0.414-29.767-1.306-41.638-2.692v32.315
	c11.601-1.1,25.417-1.928,41.433-2.486c16.015-0.558,33.558-0.972,52.616-1.243c0,4.701-0.143,9.115-0.413,13.258
	c-0.272,4.143-0.686,8.142-1.242,12.014h32.315c-0.559-4.414-0.829-8.763-0.829-13.051c0-4.287,0-8.351,0-12.222h86.593
	c0,4.972-0.144,10.007-0.414,15.123c-0.271,5.116-0.685,9.879-1.243,14.294h32.316c-0.558-4.7-0.829-9.114-0.829-13.258
	s0-9.53,0-16.159c20.445,0,39.01,0.271,55.725,0.829c16.717,0.557,31.281,1.513,43.71,2.901V137.944L967.79,137.944z
	 M973.591,350.072c-11.602,0.828-24.651,1.513-39.151,2.071c-14.502,0.558-31.426,0.971-50.754,1.242v-10.771l41.432-24.86
	c3.586-2.214,8.43-4.414,14.501-6.628c6.07-2.215,12.286-4.287,18.645-6.214v-30.244c-7.187,1.1-18.787,1.928-34.803,2.485
	c-16.014,0.558-36.188,0.829-60.489,0.829s-44.604-0.144-60.904-0.415c-16.301-0.27-28.029-0.971-35.215-2.07v30.246
	c3.314-0.272,7.457-0.56,12.429-0.829c4.973-0.271,10.15-0.56,15.538-0.828c5.387-0.271,10.501-0.479,15.33-0.621
	c4.827-0.144,8.763-0.208,11.808-0.208h79.548l-50.132,30.244v19.888c-22.374,0-41.368-0.27-56.969-0.829
	c-15.601-0.556-29.353-1.385-41.223-2.485v30.244c11.871-0.827,25.623-1.45,41.223-1.864c15.603-0.414,34.595-0.62,56.969-0.62
	v49.717c0,3.315-0.62,5.929-1.864,7.873c-1.242,1.93-3.585,3.379-7.044,4.351c-3.457,0.955-8.43,1.449-14.914,1.449
	c-6.487,0-14.853-0.411-25.066-1.243c4.143,7.459,7.186,14.088,9.114,19.889c1.93,5.801,3.314,11.728,4.144,17.816
	c13.258-1.118,24.237-2.564,32.939-4.352c8.7-1.801,15.601-4.016,20.714-6.63c5.116-2.627,8.764-5.734,10.979-9.322
	c2.216-3.599,3.316-7.744,3.316-12.427v-67.121c19.617,0.271,36.602,0.62,50.96,1.036c14.357,0.413,27.345,0.893,38.945,1.45
	v-30.244L973.591,350.072z M382.781,360.846h60.491v48.474h-60.491V360.846z M382.781,280.054h60.491v51.375h-60.491V280.054z
	 M382.781,203.407h60.491v47.231h-60.491V203.407z"/>
</svg>
