<?xml version="1.0" encoding="utf-8"?>
<!-- Generator: Adobe Illustrator 16.0.0, SVG Export Plug-In . SVG Version: 6.00 Build 0)  -->
<!DOCTYPE svg PUBLIC "-//W3C//DTD SVG 1.1//EN" "http://www.w3.org/Graphics/SVG/1.1/DTD/svg11.dtd">
<svg version="1.1" id="图层_1" xmlns="http://www.w3.org/2000/svg" xmlns:xlink="http://www.w3.org/1999/xlink" x="0px" y="0px"
	 width="540px" height="540px" viewBox="0 0 540 540" enable-background="new 0 0 540 540" xml:space="preserve">
<path fill="#BFBFBF" d="M270.001,29.77L54.277,116.931v130.743c0,108.465,74.038,210.621,178.539,250.343
	c23.687,9.003,50.682,9.003,74.369,0c104.5-39.723,178.538-141.878,178.538-250.343l-0.001-130.743L270.001,29.77z M448.076,251.096
	c0,89.537-61.118,173.862-147.381,206.651c-19.553,7.435-41.837,7.435-61.391,0c-86.262-32.79-147.38-117.114-147.38-206.651
	V143.169l178.077-71.95l178.075,71.95V251.096L448.076,251.096z M243.545,302.811l121.929-121.924l25.422,25.421L243.545,353.651
	l-74.32-74.313l25.421-25.422L243.545,302.811z"/>
</svg>
