<?xml version="1.0" encoding="utf-8"?>
<!-- Generator: Adobe Illustrator 16.0.0, SVG Export Plug-In . SVG Version: 6.00 Build 0)  -->
<!DOCTYPE svg PUBLIC "-//W3C//DTD SVG 1.1//EN" "http://www.w3.org/Graphics/SVG/1.1/DTD/svg11.dtd">
<svg version="1.1" id="图层_1" xmlns="http://www.w3.org/2000/svg" xmlns:xlink="http://www.w3.org/1999/xlink" x="0px" y="0px"
	 width="580px" height="580px" viewBox="16 106 580 580" enable-background="new 16 106 580 580" xml:space="preserve">
<g id="图形">
</g>
<g id="图层_2">
	<g id="XMLID_22_">
		<path id="XMLID_43_" fill="#FE6601" d="M398.538,128.586H213.463c-96.183,0-174.876,78.694-174.876,174.875v185.076
			c0,96.182,78.693,174.877,174.876,174.877h185.075c96.182,0,174.876-78.695,174.876-174.877V303.461
			C573.414,207.28,494.72,128.586,398.538,128.586z M477.629,372.078c0,3.455-1.034,6.932-3.491,9.353L316.509,555.918
			c-2.591,2.867-6.337,4.67-10.504,4.67c-4.169,0-7.916-1.801-10.517-4.682l-157.61-174.475c-2.098-2.42-3.507-5.898-3.507-9.352
			V342.94c0-3.807,1.409-7.27,4.203-10.057l74.62-73.527c2.796-2.78,6.302-4.174,10.153-4.174h165.297
			c0.056-0.001,0.113-0.002,0.17-0.002c3.913,0,7.453,1.598,10.006,4.175l74.62,73.528c2.795,2.794,4.188,6.25,4.188,10.057V372.078
			z"/>
		<polygon id="XMLID_44_" fill="#FE6601" points="349.238,356.152 306,415.088 262.762,356.152 267.134,344.268 210.722,344.268 
			305.999,471.178 305.999,471.5 401.278,344.562 344.865,344.562 		"/>
	</g>
</g>
</svg>
