<?xml version="1.0" standalone="no"?><!DOCTYPE svg PUBLIC "-//W3C//DTD SVG 1.1//EN" "http://www.w3.org/Graphics/SVG/1.1/DTD/svg11.dtd"><svg t="1498201224058" class="icon" style="" viewBox="0 0 1024 1024" version="1.1" xmlns="http://www.w3.org/2000/svg" p-id="73815" xmlns:xlink="http://www.w3.org/1999/xlink" width="540" height="540"><defs><style type="text/css"></style></defs><path d="M510.565537 510.071m-430.408627 0a430.408626 430.408626 0 1 0 860.817253 0 430.408626 430.408626 0 1 0-860.817253 0Z" fill="#A2F4E4" p-id="73816"></path><path d="M681.161214 243.403139L227.661926 531.798871l248.380245 43.293967 138.383221 228.871134z" fill="#D4FFF7" p-id="73817"></path><path d="M523.50028 86.315581S306.312701 131.674724 224.701873 371.184027c-46.224327 135.657638-47.030125 312.365911 22.475307 420.354073s96.033276 115.191195 96.033276 115.191194S111.455037 791.5381 78.633369 556.020926C45.811701 320.502728 204.017342 183.293903 256.048123 156.73227s155.681764-101.020622 267.452157-70.416689z" fill="#FDFFFE" p-id="73818"></path><path d="M510.561441 957.508887c-246.723599 0-447.437887-200.714288-447.437887-447.437887s200.714288-447.437887 447.437887-447.437887 447.437887 200.714288 447.437887 447.437887-200.714288 447.437887-447.437887 447.437887z m0-860.820324c-227.92916 0-413.382437 185.453277-413.382437 413.382437s185.453277 413.382437 413.382437 413.382437 413.382437-185.453277 413.382437-413.382437S738.490601 96.688563 510.561441 96.688563z" fill="#41F2B7" p-id="73819"></path><path d="M614.431536 820.997328a17.023117 17.023117 0 0 1-14.573984-8.212584L465.486937 590.530981l-240.757419-41.955749a17.011855 17.011855 0 0 1-13.763066-13.451806c-1.392484-6.881533 1.621834-13.92996 7.547058-17.692738l453.508504-288.388565a17.010831 17.010831 0 0 1 18.212872-0.041979 16.983186 16.983186 0 0 1 7.837842 16.425168l-66.73787 560.560834a17.02107 17.02107 0 0 1-13.306413 14.63644 17.739837 17.739837 0 0 1-3.596909 0.374742zM273.921065 522.566497l205.059657 35.739741a17.053834 17.053834 0 0 1 11.6426 7.962756l112.748204 186.514022 56.634169-475.733981-386.08463 245.517462z" fill="#41F2B7" p-id="73820"></path><path d="M510.561441 957.508887c-78.859648 0-156.408722-20.811493-224.249316-60.168621-8.129649-4.740589-10.915641-15.156574-6.19553-23.2852 4.69861-8.129649 15.114595-10.956597 23.2852-6.19553 62.66383 36.363287 134.28768 55.594925 207.158622 55.594925 227.92916 0 413.382437-185.453277 413.382437-413.382437S738.490601 96.688563 510.561441 96.688563 97.179004 282.14184 97.179004 510.071c0 85.075656 25.655495 166.783752 74.161038 236.307614 5.384613 7.712928 3.492473 18.337786-4.220455 23.722399-7.73443 5.364135-18.337786 3.492473-23.722399-4.220456-52.517126-75.283216-80.272609-163.727455-80.27261-255.809557 0-246.723599 200.714288-447.437887 447.437887-447.437887s447.437887 200.714288 447.437887 447.437887-200.715312 447.437887-447.438911 447.437887z" fill="#24CE99" p-id="73821"></path><path d="M614.431536 820.997328a17.023117 17.023117 0 0 1-14.573984-8.212584L465.486937 590.530981l-240.757419-41.955749a17.011855 17.011855 0 0 1-13.763066-13.451806c-1.392484-6.881533 1.621834-13.92996 7.547058-17.692738l141.584911-90.044571c7.983234-5.093829 18.4627-2.703057 23.51455 5.218743 5.05185 7.942278 2.703057 18.461676-5.218743 23.514551l-104.494665 66.447086 205.080135 35.739741a17.053834 17.053834 0 0 1 11.6426 7.962756l112.748205 186.514022 56.634168-475.733981-182.917113 116.324635c-8.025213 5.05185-18.483178 2.681556-23.51455-5.218743-5.05185-7.942278-2.703057-18.461676 5.218743-23.514551l213.230263-135.597229c5.530005-3.534452 12.640888-3.55493 18.212872-0.041979a16.983186 16.983186 0 0 1 7.837842 16.425168l-66.73787 560.560833a17.02107 17.02107 0 0 1-13.306413 14.636441 17.811509 17.811509 0 0 1-3.596909 0.373718z" fill="#24CE99" p-id="73822"></path></svg>