<?xml version="1.0" encoding="utf-8"?>
<!-- Generator: Adobe Illustrator 16.0.0, SVG Export Plug-In . SVG Version: 6.00 Build 0)  -->
<!DOCTYPE svg PUBLIC "-//W3C//DTD SVG 1.1//EN" "http://www.w3.org/Graphics/SVG/1.1/DTD/svg11.dtd">
<svg version="1.1" id="图层_1" xmlns="http://www.w3.org/2000/svg" xmlns:xlink="http://www.w3.org/1999/xlink" x="0px" y="0px"
	 width="540px" height="540px" viewBox="89.912 0 540 540" enable-background="new 89.912 0 540 540" xml:space="preserve">
<path fill="#59BDCA" d="M366.455,18.256c-135.285,0-244.949,109.664-244.949,244.95s109.664,244.95,244.949,244.95
	c135.286,0,244.949-109.664,244.949-244.95S501.741,18.256,366.455,18.256L366.455,18.256z M490.851,244.695l-46.164,55.975
	l3.938,71.85c0.539,9.494-6.224,14.415-14.923,11.145l-68.484-26.066l-68.483,26.066c-8.764,3.334-15.463-1.556-14.923-11.145
	l3.938-71.85l-46.165-55.975c-6-7.271-3.429-15.113,5.589-17.494l70.929-18.605l39.75-60.578c5.176-7.874,13.558-7.874,18.732,0
	l39.751,60.578l70.961,18.605C494.344,229.583,496.852,237.425,490.851,244.695z"/>
</svg>
