<?xml version="1.0" encoding="utf-8"?>
<!-- Generator: Adobe Illustrator 16.0.0, SVG Export Plug-In . SVG Version: 6.00 Build 0)  -->
<!DOCTYPE svg PUBLIC "-//W3C//DTD SVG 1.1//EN" "http://www.w3.org/Graphics/SVG/1.1/DTD/svg11.dtd">
<svg version="1.1" id="图层_1" xmlns="http://www.w3.org/2000/svg" xmlns:xlink="http://www.w3.org/1999/xlink" x="0px" y="0px"
	 width="540px" height="540px" viewBox="0 0 540 540" enable-background="new 0 0 540 540" xml:space="preserve">
<path fill="#59BDCA" d="M277.795,175.021L277.795,175.021c0.727,0.91,1.481,1.823,2.262,2.74c3.263,3.835,6.772,7.634,10.435,11.292
	c3.66,3.656,7.516,7.215,11.461,10.579c2.653,2.262,5.217,4.344,7.657,6.22c5.324-4.896,10.732-10.406,16.12-16.43
	c4.146-4.637,7.984-9.456,11.471-14.4L277.795,175.021L277.795,175.021z"/>
<path fill="#59BDCA" d="M271.485,20.988C134.2,20.988,22.907,132.28,22.907,269.564c0,137.285,111.293,248.577,248.577,248.577
	c137.285,0,248.577-111.292,248.577-248.577C520.062,132.28,408.77,20.988,271.485,20.988z M136.671,120.418l4.231,3.088
	c5.461,3.986,10.419,7.713,14.737,11.08c4.327,3.372,8.552,6.792,12.561,10.164c4.06,3.415,8.175,7.146,12.229,11.089
	c4.003,3.893,8.588,8.526,13.63,13.772l4.25,4.423l-25.096,20.554l-3.535-4.872c-5.815-8.011-12.369-15.371-19.479-21.873
	c-7.214-6.597-16.474-13.879-27.521-21.646l-5.117-3.596L136.671,120.418z M178.721,381.129c-2.775,2.178-5.275,4.325-7.433,6.383
	c-2.086,1.987-4.85,5.203-8.216,9.554l-4.61,5.959l-4.458-6.072c-1.995-2.719-4.129-4.993-6.344-6.764
	c-2.357-1.881-5.313-3.813-8.784-5.739l-8.25-4.577l7.917-5.133c10.298-6.677,15.304-15.888,15.304-28.161V230.965
	c-7.688,0.095-14.127,0.39-19.2,0.88c-6.176,0.598-12.126,1.604-17.686,2.992l-7.052,1.761v-34.133l6.167,0.536
	c4.734,0.411,10.005,0.776,15.666,1.084c5.623,0.307,12.223,0.462,19.62,0.462c5.729,0,11.43-0.155,16.947-0.462
	c5.536-0.307,10.414-0.669,14.499-1.077l11.363-1.135l-5.955,9.732c-1.876,3.065-3.249,7.805-4.081,14.088
	c-0.905,6.826-1.362,13.747-1.362,20.573v95.25c0.007-0.008,0.015-0.015,0.023-0.022c1.509-1.407,3.205-3.048,5.039-4.881
	c1.765-1.762,3.769-3.966,5.956-6.549l10.008-11.813v15.476c0,3.241,0.471,5.789,1.399,7.572c0.979,1.879,2.628,3.738,4.906,5.525
	l5.593,4.389L178.721,381.129z M422.789,251.992c-3.233,2.516-5.806,5.25-7.641,8.131c-1.785,2.803-2.942,5.645-3.437,8.444
	l-1.073,6.064l-5.961-1.568c-8.052-2.116-16.479-4.689-25.045-7.647c-8.548-2.952-16.998-6.157-25.118-9.528
	c-6.84-2.839-13.49-5.827-19.832-8.901c0.437,0.715,0.786,1.55,1.017,2.525c0.571,2.423,0.615,7.094-5.492,11.172
	c-0.142,0.206-0.643,1.061-1.028,3.309c-0.57,3.324-0.859,8.856-0.859,16.441v2.473c6.189-0.018,11.726-0.067,16.512-0.147
	c6.204-0.103,11.749-0.261,16.48-0.465c4.712-0.205,8.965-0.465,12.644-0.771c3.696-0.308,7.327-0.671,10.791-1.078l6.34-0.744
	v30.91l-6.321-0.72c-7.156-0.818-15.627-1.44-25.176-1.852c-8.355-0.358-18.854-0.563-31.271-0.61v27.204
	c8.553-0.015,16.313-0.065,23.126-0.15c8.266-0.104,15.725-0.262,22.17-0.468c6.424-0.207,12.285-0.469,17.417-0.776
	c5.143-0.309,10.046-0.673,14.576-1.085l6.189-0.562v31.537l-6.189-0.563c-4.532-0.411-9.386-0.776-14.425-1.084
	c-5.056-0.31-10.81-0.57-17.102-0.775c-6.304-0.207-13.709-0.364-22.01-0.469c-6.843-0.085-14.783-0.136-23.662-0.151
	c0.204,11.578,0.486,21.48,0.844,29.499c0.409,9.19,1.133,17.667,2.15,25.195l0.869,6.43h-37.558l0.625-6.233
	c0.419-4.188,0.838-8.274,1.258-12.255c0.404-3.836,0.713-8.097,0.916-12.668c0.205-4.632,0.362-9.854,0.466-15.525
	c0.078-4.231,0.126-9.071,0.146-14.438c-14.049,0.044-27.257,0.25-39.335,0.614c-13.624,0.413-24.905,1.037-33.527,1.858
	l-6.213,0.59V331.58l6.2,0.575c8.842,0.822,20.18,1.448,33.7,1.859c11.977,0.366,25.134,0.572,39.187,0.614v-27.197
	c-11.315,0.051-21.876,0.255-31.462,0.608c-11.1,0.411-20.35,1.034-27.497,1.85l-6.319,0.722v-30.89l6.319,0.721
	c7.141,0.815,16.394,1.437,27.497,1.849c9.584,0.354,20.132,0.559,31.428,0.61c-0.086-7.041-0.333-13.573-0.737-19.48
	c-0.496-7.215-1.135-12.852-1.9-16.767c-5.306,2.894-10.91,5.773-16.793,8.626c-14.447,7.006-32.595,15.116-53.939,24.106
	l-5.327,2.243l-2.147-5.362c-1.407-3.516-3.149-6.411-5.177-8.604c-2.14-2.315-5.425-4.828-9.764-7.466l-13.186-8.018l15.245-2.423
	c17.963-2.854,34.919-7.191,50.398-12.887c12.841-4.726,24.895-10.719,35.932-17.858c-9.274-7.404-17.256-14.881-23.792-22.291
	c-7.184-8.146-13.746-16.93-19.537-26.147c-3.652,0.176-7.048,0.385-10.137,0.622c-3.896,0.3-7.056,0.648-9.385,1.038l-6.609,1.101
	V139.75l6.721,1.257c3.151,0.59,6.452,1.039,9.809,1.335c3.439,0.303,8.039,0.561,13.674,0.766
	c5.669,0.206,13.014,0.362,21.83,0.466c8.868,0.104,20.408,0.157,34.297,0.157c11.394,0,21.453-0.053,29.902-0.156
	c8.408-0.104,15.867-0.261,22.166-0.467c6.238-0.205,11.672-0.515,16.149-0.92c4.525-0.411,8.594-0.828,12.091-1.238l10.914-1.28
	l-5.273,9.63c-7.466,13.638-16.548,26.867-26.991,39.321c-8.611,10.271-18.132,19.89-28.379,28.679
	c13.899,7.028,27.488,12.449,40.491,16.146c15.404,4.381,29.274,7.218,41.229,8.432l14.084,1.431L422.789,251.992z"/>
<path fill="#59BDCA" d="M302.724,242.637c3.159,0.721,5.98,1.261,8.413,1.608c3.104,0.443,6.201,0.579,9.204,0.401
	c0.39-0.026,0.812-0.041,1.215-0.041c0.14,0,0.306,0.003,0.49,0.011c-4.173-2.194-8.107-4.421-11.759-6.658
	C307.865,239.518,305.342,241.078,302.724,242.637z"/>
</svg>
