<?xml version="1.0" encoding="utf-8"?>
<!-- Generator: Adobe Illustrator 16.0.0, SVG Export Plug-In . SVG Version: 6.00 Build 0)  -->
<!DOCTYPE svg PUBLIC "-//W3C//DTD SVG 1.1//EN" "http://www.w3.org/Graphics/SVG/1.1/DTD/svg11.dtd">
<svg version="1.1" id="图层_1" xmlns="http://www.w3.org/2000/svg" xmlns:xlink="http://www.w3.org/1999/xlink" x="0px" y="0px"
	 width="540px" height="540px" viewBox="0 0 540 540" enable-background="new 0 0 540 540" xml:space="preserve">
<path fill="#BFBFBF" d="M329.948,266.247L150.754,445.446c-10.531,10.525-10.531,27.601,0,38.122l7.629,7.626
	c10.526,10.529,27.592,10.529,38.122,0l198.232-198.241c0.004-0.004,0.012-0.009,0.016-0.016l7.626-7.626
	c10.529-10.526,10.529-27.597,0-38.118l-7.626-7.634c-0.022-0.027-0.055-0.048-0.078-0.071L196.497,41.307
	c-10.529-10.534-27.597-10.534-38.123,0l-7.629,7.625c-10.53,10.53-10.53,27.593,0,38.123L329.948,266.247L329.948,266.247z"/>
</svg>
