<?xml version="1.0" standalone="no"?><!DOCTYPE svg PUBLIC "-//W3C//DTD SVG 1.1//EN" "http://www.w3.org/Graphics/SVG/1.1/DTD/svg11.dtd"><svg t="1498008315223" class="icon" style="" viewBox="0 0 1024 1024" version="1.1" xmlns="http://www.w3.org/2000/svg" p-id="2718" xmlns:xlink="http://www.w3.org/1999/xlink" width="570" height="570"><defs><style type="text/css"></style></defs><path d="M455.614 194.886c0 0.002 0 0.005 0 0.017 0 65.665 53.231 118.897 118.897 118.897 65.665 0 118.897-53.231 118.897-118.897 0-0.003 0-0.006 0-0.018 0-0.002 0-0.005 0-0.017 0-65.665-53.231-118.897-118.897-118.897-65.665 0-118.897 53.231-118.897 118.897 0 0.003 0 0.006 0 0.018z" p-id="2719" fill="#ffffff"></path><path d="M239.857 414.673c63.717 15.888 128.249-22.882 144.131-86.602 15.888-63.71-22.883-128.245-86.599-144.129-63.716-15.885-128.245 22.886-144.129 86.599-15.886 63.717 22.882 128.25 86.598 144.132zM120.588 533.826c-45.616 47.241-44.3 122.509 2.932 168.122 47.238 45.617 122.506 44.307 168.122-2.93 45.618-47.238 44.307-122.506-2.933-168.123-47.228-45.615-122.503-44.302-168.119 2.932zM416.716 714.821c-63.117 18.097-99.62 83.94-81.522 147.060 18.101 63.12 83.943 99.618 147.061 81.521 63.125-18.101 99.62-83.94 81.523-147.060-18.1-63.126-83.937-99.62-147.063-81.521zM784.141 609.326c-63.719-15.888-128.249 22.883-144.132 86.602-15.888 63.713 22.883 128.249 86.599 144.132 63.716 15.883 128.245-22.89 144.132-86.601 15.886-63.717-22.883-128.249-86.599-144.134zM900.478 322.052c-47.241-45.617-122.509-44.304-168.123 2.926-45.618 47.241-44.307 122.506 2.933 168.124 47.229 45.616 122.506 44.304 168.122-2.93 45.609-47.241 44.298-122.509-2.932-168.123z" p-id="2720" fill="#ffffff"></path><path d="M393.101 512c0 65.665 53.232 118.898 118.898 118.898s118.898-53.232 118.898-118.898c0-65.665-53.232-118.898-118.898-118.898-65.665 0-118.898 53.232-118.898 118.898z" p-id="2721" fill="#ffffff"></path></svg>