<?xml version="1.0" standalone="no"?><!DOCTYPE svg PUBLIC "-//W3C//DTD SVG 1.1//EN" "http://www.w3.org/Graphics/SVG/1.1/DTD/svg11.dtd"><svg t="1501230747781" class="icon" style="" viewBox="0 0 1024 1024" version="1.1" xmlns="http://www.w3.org/2000/svg" p-id="48156" xmlns:xlink="http://www.w3.org/1999/xlink" width="200" height="200"><defs><style type="text/css"></style></defs><path d="M511.175 2.716667C229.254167 2.716667 0.708333 231.258333 0.708333 513.183333s228.545833 510.4625 510.466667 510.4625 510.4625-228.541667 510.4625-510.4625S793.095833 2.716667 511.175 2.716667z m221.095833 721.05l-0.116666 2.954166-0.116667 2.833334-0.470833 2.954166-0.470834 2.716667-0.595833 2.833333-0.820833 2.716667-0.945834 2.716667-0.95 2.595833-1.179166 2.483333-1.3 2.479167-1.420834 2.3625-1.533333 2.358333-1.5375 2.245834-1.770833 2.125-1.770834 2.129166-1.8875 2.004167-2.008333 1.8875-2.125 1.775-2.129167 1.65-2.241666 1.654167-2.3625 1.416666-2.479167 1.420834-2.483333 1.295833-2.483334 1.066667-2.716666 1.0625-2.595834 0.95-2.833333 0.708333-2.716667 0.708333-2.8375 0.470834-2.95 0.354166-2.8375 0.2375H344.7625l-2.954167-0.2375-2.833333-0.354166-2.833333-0.470834-2.8375-0.708333-2.716667-0.708333-2.716667-0.95-2.6-1.0625-2.6-1.066667-2.479166-1.295833-2.3625-1.420834-2.3625-1.416666-2.245834-1.654167-2.241666-1.65-2.008334-1.775-2.008333-1.8875-2.008333-2.004167-1.770834-2.129166-1.654166-2.125-1.65-2.245834-1.5375-2.358333-1.416667-2.3625-1.179167-2.479167-1.183333-2.483333-1.0625-2.595833-0.945833-2.716667-0.708334-2.716667-0.708333-2.833333-0.475-2.716667-0.354167-2.954166-0.2375-2.833334-0.116666-2.954166V383.616667l0.116666-2.95 0.2375-2.954167 0.354167-2.833333 0.475-2.833334 0.708333-2.716666 0.708334-2.716667 0.945833-2.716667 1.0625-2.6 1.183333-2.6 1.179167-2.3625 1.416667-2.479166 1.5375-2.245834 1.65-2.245833 1.654166-2.245833 1.770834-2.008334 2.008333-2.008333 2.008333-1.891667 2.008334-1.770833 2.241666-1.770833 2.245834-1.533334 2.3625-1.5375 2.3625-1.3 2.479166-1.3 2.6-1.183333 2.6-0.945833 2.716667-0.945834 2.716667-0.825 2.8375-0.591666 2.833333-0.470834 2.833333-0.354166 2.954167-0.2375 2.95-0.116667h24.891667l0.383333-1.533333 0.591667-2.008334 0.708333-1.891666 0.708333-1.891667 0.825-1.770833 0.945834-1.770834 0.945833-1.770833 1.0625-1.654167 1.179167-1.654166 1.183333-1.533334 1.3-1.416666 1.416667-1.416667 1.416666-1.416667 1.533334-1.3 1.5375-1.179166 1.654166-1.183334 1.65-1.0625 1.770834-0.945833 1.770833-0.945833 1.770833-0.829167 1.891667-0.708333 1.8875-0.591667 2.008333-0.591667 2.008334-0.475 2.008333-0.354166 2.125-0.2375 2.008333-0.2375H420.695833v-7.558334l0.116667-2.125 0.116667-2.008333 0.354166-2.125 0.354167-2.008333 0.470833-2.008334 0.470834-1.891666 0.708333-2.008334 0.708333-1.770833 0.825-1.8875 0.945834-1.770833 0.945833-1.654167 1.183333-1.654167 1.0625-1.65 1.3-1.5375 1.3-1.5375 1.3-1.416666 1.416667-1.3 1.5375-1.3 1.5375-1.3 1.654167-1.0625 1.65-1.0625 1.770833-1.0625 1.770833-0.829167 1.891667-0.825 1.770833-0.708333 2.008334-0.708334 1.891666-0.591666 2.008334-0.354167 2.125-0.354167 2.008333-0.354166 2.125-0.116667h102.279167l2.129166 0.116667 2.004167 0.354166 2.004167 0.354167 2.008333 0.354167 2.008333 0.591666 1.8875 0.708334 1.8875 0.708333 1.8875 0.825 1.775 0.829167 1.65 1.0625 1.654167 1.0625 1.654167 1.0625 1.529166 1.3 1.5375 1.3 1.416667 1.3 1.416667 1.416666 1.304166 1.5375 1.179167 1.5375 1.179167 1.65 1.066666 1.654167 1.0625 1.654167 0.825 1.770833 0.825 1.8875 0.825 1.770833 0.595834 2.008334 0.5875 1.891666 0.475 2.008334 0.354166 2.008333 0.2375 2.125 0.2375 2.008333v9.683334h9.804167l2.129167 0.2375 2.004166 0.2375 2.004167 0.354166 2.008333 0.475 2.008334 0.591667 1.8875 0.591667 1.8875 0.708333 1.8875 0.829167 1.775 0.945833 1.65 0.945833 1.775 1.0625 1.533333 1.183334 1.654167 1.179166 1.416666 1.3 1.416667 1.416667 1.416667 1.416667 1.304166 1.416666 1.179167 1.533334 1.179167 1.654166 1.066666 1.654167 1.0625 1.770833 0.945834 1.770834 0.825 1.770833 0.708333 1.891667 0.595833 1.891666 0.5875 2.008334 0.383334 1.533333h25.0125l2.954166 0.116667 2.95 0.2375 2.8375 0.354166 2.8375 0.470834 2.833334 0.591666 2.716666 0.825 2.595834 0.945834 2.716666 0.945833 2.483334 1.183333 2.483333 1.3 2.479167 1.3 2.3625 1.5375 2.241666 1.533334 2.129167 1.770833 2.125 1.770833 2.008333 1.891667 1.8875 2.008333 1.770834 2.008334 1.770833 2.245833 1.654167 2.245833 1.416666 2.245834 1.420834 2.479166 1.3 2.479167 1.179166 2.479167 0.95 2.6 0.945834 2.716666 0.820833 2.716667 0.595833 2.716667 0.470834 2.833333 0.470833 2.95 0.116667 2.8375 0.116666 2.95v340.154167z" fill="#A1DDFF" p-id="48157"></path><path d="M714.554167 377.475l-0.354167-1.891667-0.470833-1.891666-0.591667-1.8875-0.595833-1.891667-0.708334-1.770833-0.820833-1.770834-0.95-1.770833-0.945833-1.65-1.0625-1.654167-1.066667-1.5375-1.179167-1.533333-1.3-1.416667-1.3-1.416666-1.416666-1.3-1.5375-1.3-1.5375-1.179167-1.529167-1.0625-1.654167-1.0625-1.654166-0.945833-1.770834-0.945834-1.770833-0.829166-1.775-0.708334-1.8875-0.591666-2.008333-0.470834-1.8875-0.470833-2.008334-0.354167-2.004166-0.2375-2.004167-0.2375H633.295833v-8.620833l-0.116666-1.3v-1.183333l-0.2375-1.179167-0.116667-1.183333-0.354167-1.183334-0.2375-1.0625-0.475-1.0625-0.35-1.0625-0.470833-1.0625-0.595833-1.0625-0.5875-0.945833-0.595834-0.945833-0.708333-0.945834-0.708333-0.945833-0.708334-0.825-0.829166-0.825-0.820834-0.829167-0.829166-0.708333-0.945834-0.708333-0.945833-0.708334-0.945833-0.591666-1.066667-0.591667-0.945833-0.470833-1.0625-0.591667-1.183334-0.354167-1.058333-0.354166-1.183333-0.354167-1.183334-0.2375-1.179166-0.2375-1.179167-0.116667-1.179167-0.116666h-26.341666v-26.104167l-0.116667-1.183333-0.116667-1.179167-0.2375-1.179167-0.2375-1.183333-0.354166-1.0625-0.354167-1.179167-0.354167-1.0625-0.470833-1.0625-0.595833-0.945833-0.5875-1.0625-0.595834-0.945833-0.708333-0.945834-0.708333-0.825-0.708334-0.945833-0.829166-0.825-0.820834-0.708333-0.829166-0.829167-0.945834-0.708333-0.945833-0.591667-0.945833-0.708333-1.066667-0.591667-1.0625-0.470833-1.0625-0.470834-1.066667-0.470833-1.058333-0.354167-1.183333-0.2375-1.179167-0.354166-1.183333-0.2375-1.179167-0.116667-1.179167-0.116667h-100.629166l-1.179167 0.116667-1.3 0.116667-1.179167 0.2375-1.0625 0.354166-1.179166 0.2375-1.183334 0.354167-1.0625 0.470833-1.0625 0.470834-1.0625 0.591666-0.945833 0.470834-0.945833 0.708333-0.945834 0.591667-0.945833 0.708333-0.825 0.829167-0.945833 0.708333-0.708334 0.825-0.825 0.945833-0.708333 0.825-0.591667 0.945834-0.708333 0.945833-0.591667 1.0625-0.470833 0.945833-0.470833 1.0625-0.470834 1.0625-0.354166 1.179167-0.354167 1.0625-0.2375 1.183333-0.2375 1.179167-0.116667 1.179167-0.116666 1.183333v26.104167H411.833333l-1.3 0.116666-1.183333 0.116667-1.179167 0.2375-1.170833 0.241667-1.0625 0.354166-1.183333 0.354167-1.0625 0.354167-1.0625 0.470833-1.0625 0.591667-0.945834 0.591666-1.0625 0.591667-0.945833 0.708333-0.829167 0.708334-0.945833 0.708333-0.829167 0.829167-0.708333 0.825-0.825 0.825-0.708333 0.945833-0.708334 0.825-0.591666 1.0625-0.591667 0.945833-0.475 1.0625-0.470833 1.0625-0.470834 1.0625-0.354166 1.0625-0.354167 1.0625-0.2375 1.183334-0.2375 1.183333-0.108333 1.179167-0.116667 1.183333v9.920833H345.5875l-2.008333 0.2375-2.008334 0.233334-2.008333 0.354166-2.008333 0.354167-1.891667 0.591667-1.8875 0.591666-1.770833 0.708334-1.891667 0.829166-1.654167 0.945834-1.770833 0.945833-1.65 1.0625-1.5375 1.0625-1.5375 1.179167-1.416667 1.3-1.416666 1.3-1.3 1.416666-1.3 1.416667-1.183334 1.533333-1.179166 1.533334-1.0625 1.654166-0.945834 1.65-0.825 1.770834-0.829166 1.770833-0.708334 1.770833-0.708333 1.891667-0.475 1.770833-0.470833 2.008334-0.354167 1.891666-0.2375 2.008334-0.2375 2.008333v344.283333l0.2375 2.004167 0.2375 2.004167 0.354167 2.008333 0.470833 1.8875 0.475 1.891667 0.708333 1.8875 0.708334 1.770833 0.829166 1.775 0.825 1.775 0.945834 1.65 1.0625 1.533333 1.179166 1.654167 1.183334 1.533333 1.3 1.416667 1.3 1.420833 1.416666 1.3 1.416667 1.179167 1.5375 1.183333 1.5375 1.179167 1.65 1.0625 1.770833 0.945833 1.654167 0.825 1.891667 0.829167 1.770833 0.708333 1.8875 0.708334 1.891667 0.470833 2.008333 0.470833 2.008333 0.354167 2.008334 0.2375 2.008333 0.116667 2.125 0.116666h326.920833l2.004167-0.116666 2.129167-0.116667 2.004166-0.2375 2.008334-0.354167 1.8875-0.470833 1.891666-0.470833 1.891667-0.708334 1.8875-0.708333 1.770833-0.829167 1.770834-0.825 1.654166-0.945833 1.654167-1.0625 1.529167-1.179167 1.5375-1.183333 1.5375-1.179167 1.416666-1.3 1.3-1.420833 1.3-1.416667 1.179167-1.533333 1.066667-1.654167 1.0625-1.533333 0.945833-1.65 0.95-1.775 0.820833-1.775 0.708334-1.770833 0.595833-1.8875 0.591667-1.891667 0.470833-1.8875 0.354167-2.008333 0.2375-2.004167 0.116666-2.004167V381.608333l-0.116666-2.125-0.2375-2.008333z m-276.9625-42.404167h24.566666v-16.3c0-17.833333 14.645833-32.3625 32.595834-32.3625h32.716666c18.075 0 32.716667 14.525 32.716667 32.3625v16.3h24.566667c13.4625 0 24.445833 10.866667 24.445833 24.2125 0 13.4625-10.983333 24.329167-24.445833 24.329167h-147.1625c-13.583333 0-24.566667-10.866667-24.566667-24.329167 0-13.345833 10.983333-24.2125 24.566667-24.2125z m258.658333 367.441667c0 22.908333-18.779167 41.454167-41.929167 41.454167h-279.208333l66.6-68.854167h-28.6875c-8.975 0-16.3-7.204167-16.3-16.183333 0-8.858333 7.320833-16.183333 16.3-16.183334h59.995833l46.954167-48.541666H413.025c-8.975 0-16.3-7.325-16.3-16.179167 0-8.975 7.320833-16.183333 16.3-16.183333h138.254167l47.066666-48.658334H413.025c-8.975 0-16.3-7.204167-16.3-16.183333s7.320833-16.179167 16.3-16.179167h196.175c5.666667 0 10.65 2.8 13.595833 7.083334L696.25 411.9625v290.55z" fill="#FEFEFE" p-id="48158"></path><path d="M732.033333 377.829167l-0.470833-2.95-0.470833-2.833334-0.595834-2.716666-0.820833-2.716667-0.945833-2.716667-0.95-2.6-1.179167-2.479166-1.3-2.479167-1.420833-2.479167-1.416667-2.245833-1.654167-2.245833-1.770833-2.245834-1.770833-2.008333-1.8875-2.008333-2.008334-1.891667-2.125-1.770833-2.129166-1.770834-2.241667-1.533333-2.3625-1.5375-2.479167-1.3-2.483333-1.3-2.483333-1.183333-2.716667-0.945834-2.595833-0.945833-2.716667-0.825-2.833333-0.591667-2.8375-0.470833-2.8375-0.354167-2.95-0.2375-2.954167-0.116666h-25.0125l-0.383333-1.533334-0.5875-2.008333-0.595834-1.891667-0.708333-1.891666-0.825-1.770834-0.945833-1.770833-1.0625-1.770833-1.066667-1.654167-1.179167-1.654167-1.179166-1.533333-1.304167-1.416667-1.416667-1.416666-1.416666-1.416667-1.416667-1.3-1.654167-1.179167-1.533333-1.183333-1.775-1.0625-1.65-0.945833-1.775-0.945834-1.8875-0.829166-1.8875-0.708334-1.8875-0.591666-2.008333-0.591667-2.008334-0.475-2.004166-0.354167-2.004167-0.2375-2.129167-0.2375h-9.804166v-9.683333l-0.2375-2.008333-0.2375-2.125-0.354167-2.008334-0.475-2.008333-0.5875-1.891667-0.595833-2.008333-0.825-1.770833-0.825-1.8875-0.825-1.770834-1.0625-1.654166-1.066667-1.654167-1.179167-1.65-1.179166-1.5375-1.304167-1.5375-1.416667-1.416667-1.416666-1.3-1.5375-1.3-1.529167-1.3-1.654167-1.0625-1.654166-1.0625-1.65-1.0625-1.775-0.829166-1.8875-0.825-1.8875-0.708334-1.8875-0.708333-2.008334-0.591667-2.008333-0.354166-2.004167-0.354167-2.004166-0.354167-2.129167-0.116666h-102.279167l-2.125 0.116666-2.008333 0.354167-2.125 0.354167-2.008333 0.354166-1.891667 0.591667-2.008333 0.708333-1.770834 0.708334-1.891666 0.825-1.770834 0.829166-1.770833 1.0625-1.65 1.0625-1.654167 1.0625-1.5375 1.3-1.5375 1.3-1.416666 1.3-1.3 1.416667-1.3 1.5375-1.3 1.5375-1.0625 1.65-1.183334 1.654167-0.945833 1.654166-0.945833 1.770834-0.825 1.8875-0.708334 1.770833-0.708333 2.008333-0.470833 1.891667-0.470834 2.008333-0.354166 2.008334-0.354167 2.125-0.116667 2.008333-0.116666 2.125v7.558333H410.904167l-2.008334 0.2375-2.125 0.2375-2.008333 0.354167-2.008333 0.475-2.008334 0.591667-1.8875 0.591666-1.891666 0.708334-1.770834 0.829166-1.770833 0.945834-1.770833 0.945833-1.65 1.0625-1.654167 1.183333-1.5375 1.179167-1.533333 1.3-1.416667 1.416667-1.416667 1.416666-1.3 1.416667-1.183333 1.533333-1.179167 1.654167-1.0625 1.654167-0.945833 1.770833-0.945833 1.770833-0.825 1.770834-0.708334 1.891666-0.708333 1.891667-0.591667 2.008333-0.383333 1.533334h-24.891667l-2.95 0.116666-2.954166 0.2375-2.833334 0.354167-2.833333 0.470833-2.8375 0.591667-2.716667 0.825-2.716666 0.945833-2.6 0.945834-2.6 1.183333-2.479167 1.3-2.3625 1.3-2.3625 1.5375-2.245833 1.533333-2.241667 1.770834-2.008333 1.770833-2.008334 1.891667-2.008333 2.008333-1.770833 2.008333-1.654167 2.245834-1.65 2.245833-1.5375 2.245833-1.416667 2.479167-1.179166 2.3625-1.183334 2.6-1.0625 2.6-0.945833 2.716667-0.708333 2.716666-0.708334 2.716667-0.475 2.833333-0.354166 2.833334-0.2375 2.954166-0.116667 2.95v340.15l0.116667 2.954167 0.2375 2.833333 0.354166 2.954167 0.475 2.716667 0.708334 2.833333 0.708333 2.716667 0.945833 2.716666 1.0625 2.595834 1.183334 2.483333 1.179166 2.479167 1.416667 2.3625 1.5375 2.358333 1.65 2.245833 1.654167 2.125 1.770833 2.129167 2.008333 2.004167 2.008334 1.8875 2.008333 1.775 2.241667 1.65 2.245833 1.654166 2.3625 1.416667 2.3625 1.420833 2.479167 1.295834 2.6 1.066666 2.6 1.0625 2.716666 0.95 2.716667 0.708334 2.8375 0.708333 2.833333 0.470833 2.833334 0.354167 2.954166 0.2375h332.825l2.8375-0.2375 2.95-0.354167 2.8375-0.470833 2.716667-0.708333 2.833333-0.708334 2.595834-0.95 2.716666-1.0625 2.483334-1.066666 2.483333-1.295834 2.479167-1.420833 2.3625-1.416667 2.241666-1.654166 2.129167-1.65 2.125-1.775 2.008333-1.8875 1.8875-2.004167 1.770834-2.129167 1.770833-2.125 1.5375-2.245833 1.533333-2.358333 1.420834-2.3625 1.3-2.479167 1.179166-2.483333 0.95-2.595834 0.945834-2.716666 0.820833-2.716667 0.595833-2.833333 0.470834-2.716667 0.470833-2.954167 0.116667-2.833333 0.116666-2.954167V383.616667l-0.116666-2.95-0.133334-2.8375z m-17.125 5.7875v342.158333l-0.116666 2.004167-0.2375 2.004166-0.354167 2.008334-0.470833 1.8875-0.591667 1.891666-0.595833 1.8875-0.708334 1.770834-0.820833 1.775-0.95 1.775-0.945833 1.65-1.0625 1.533333-1.066667 1.654167-1.179167 1.533333-1.3 1.416667-1.3 1.420833-1.416666 1.3-1.5375 1.179167-1.5375 1.183333-1.529167 1.179167-1.654167 1.0625-1.654166 0.945833-1.770834 0.825-1.770833 0.829167-1.8875 0.708333-1.891667 0.708333-1.891666 0.470834-1.8875 0.470833-2.008334 0.354167-2.004166 0.2375-2.129167 0.116666-2.004167 0.116667H347.7125l-2.125-0.116667-2.008333-0.116666-2.008334-0.2375-2.008333-0.354167-2.008333-0.470833-1.891667-0.470834-1.8875-0.708333-1.770833-0.708333-1.891667-0.829167-1.654167-0.825-1.770833-0.945833-1.65-1.0625-1.5375-1.179167-1.5375-1.183333-1.416667-1.179167-1.416666-1.3-1.3-1.420833-1.3-1.416667-1.183334-1.533333-1.179166-1.654167-1.0625-1.533333-0.945834-1.65-0.825-1.775-0.829166-1.775-0.708334-1.770834-0.708333-1.8875-0.475-1.891666-0.470833-1.8875-0.354167-2.008334-0.2375-2.004166-0.2375-2.004167V381.491667l0.2375-2.008334 0.2375-2.008333 0.354167-1.891667 0.470833-2.008333 0.475-1.770833 0.708333-1.891667 0.708334-1.770833 0.829166-1.770834 0.825-1.770833 0.945834-1.65 1.0625-1.658333 1.179166-1.5375 1.183334-1.533334 1.3-1.416666 1.3-1.416667 1.416666-1.3 1.416667-1.3 1.5375-1.179167 1.5375-1.0625 1.65-1.0625 1.770833-0.945833 1.654167-0.945833 1.891667-0.829167 1.770833-0.708333 1.8875-0.591667 1.891667-0.591667 2.008333-0.354166 2.008333-0.354167 2.008334-0.2375 2.008333-0.2375H389.05v-9.920833l0.116667-1.183334 0.116666-1.179166 0.2375-1.183334 0.2375-1.183333 0.354167-1.0625 0.354167-1.0625 0.470833-1.0625 0.470833-1.0625 0.475-1.0625 0.591667-0.945833 0.591667-1.0625 0.708333-0.825 0.708333-0.945834 0.825-0.825 0.708334-0.825 0.829166-0.829166 0.945834-0.708334 0.829166-0.708333 0.945834-0.708333 1.0625-0.591667 0.945833-0.591667 1.0625-0.591666 1.0625-0.470834 1.0625-0.354166 1.183333-0.354167 1.0625-0.354167 1.183334-0.2375 1.179166-0.2375 1.183334-0.116666 1.3-0.116667h26.220833v-26.104167l0.116667-1.183333 0.116666-1.179167 0.2375-1.179166 0.2375-1.183334 0.354167-1.0625 0.354167-1.179166 0.470833-1.0625 0.470833-1.0625 0.470834-0.945834 0.591666-1.0625 0.708334-0.945833 0.591666-0.945833 0.708334-0.825 0.825-0.945834 0.708333-0.825 0.945833-0.708333 0.825-0.829167 0.945834-0.708333 0.945833-0.591667 0.945833-0.708333 0.945834-0.470833 1.0625-0.591667 1.0625-0.470833 1.0625-0.470834 1.183333-0.354166 1.179167-0.2375 1.0625-0.354167 1.179166-0.2375 1.3-0.116667 1.179167-0.116666h100.629167l1.179166 0.116666 1.179167 0.116667 1.183333 0.2375 1.179167 0.354167 1.183333 0.2375 1.058334 0.354166 1.066666 0.470834 1.0625 0.470833 1.0625 0.470833 1.066667 0.591667 0.945833 0.708333 0.945834 0.591667 0.945833 0.708333 0.829167 0.829167 0.820833 0.708333 0.829167 0.825 0.708333 0.945834 0.708333 0.825 0.708334 0.945833 0.595833 0.945833 0.5875 1.0625 0.595833 0.945834 0.470834 1.0625 0.354166 1.0625 0.354167 1.179166 0.354167 1.0625 0.2375 1.183334 0.2375 1.179166 0.116666 1.179167 0.116667 1.183333v26.104167h26.341667l1.179166 0.116667 1.179167 0.116666 1.179167 0.2375 1.183333 0.2375 1.183333 0.354167 1.058334 0.354167 1.183333 0.354166 1.0625 0.591667 0.945833 0.470833 1.066667 0.591667 0.945833 0.591667 0.945834 0.708333 0.945833 0.708333 0.829167 0.708334 0.820833 0.829166 0.829167 0.825 0.708333 0.825 0.708333 0.945834 0.708334 0.945833 0.595833 0.945833 0.5875 0.945834 0.595833 1.0625 0.470834 1.0625 0.35 1.0625 0.475 1.0625 0.2375 1.0625 0.354166 1.183333 0.116667 1.183333 0.2375 1.179167v1.183333l0.116667 1.3v8.620834H676.783333l2.004167 0.2375 2.004167 0.2375 2.008333 0.354166 1.8875 0.470834 2.008333 0.470833 1.8875 0.591667 1.775 0.708333 1.770834 0.829167 1.770833 0.945833 1.654167 0.945833 1.654166 1.0625 1.529167 1.0625 1.5375 1.179167 1.5375 1.3 1.416667 1.3 1.3 1.416667 1.3 1.416666 1.179166 1.533334 1.066667 1.5375 1.0625 1.654166 0.945833 1.65 0.95 1.770834 0.820834 1.770833 0.708333 1.770833 0.595833 1.891667 0.591667 1.8875 0.470833 1.891667 0.354167 1.891666 0.2375 2.008334 0.116667 2.125v2.0125z" fill="#85ADC4" p-id="48159"></path><path d="M437.591667 383.616667h147.1625c13.4625 0 24.445833-10.866667 24.445833-24.329167 0-13.345833-10.983333-24.2125-24.445833-24.2125h-24.566667v-16.3c0-17.833333-14.641667-32.3625-32.716667-32.3625h-32.716666c-17.954167 0-32.595833 14.525-32.595834 32.3625v16.3h-24.566666c-13.583333 0-24.566667 10.866667-24.566667 24.2125 0 13.4625 10.983333 24.329167 24.566667 24.329167z" fill="#A1DDFF" p-id="48160"></path><path d="M622.795833 487.9c1.7875 2.5875 2.829167 5.716667 2.829167 9.1 0 8.975-7.325 16.183333-16.420833 16.183333h-10.854167l-47.066667 48.658334h57.920834c9.1 0 16.420833 7.204167 16.420833 16.183333 0 8.854167-7.325 16.179167-16.420833 16.179167h-89.225l-46.954167 48.541666h136.179167c9.1 0 16.420833 7.325 16.420833 16.183334 0 8.975-7.325 16.183333-16.420833 16.183333h-167.4875l-66.6 68.854167h279.204166c23.154167 0 41.929167-18.545833 41.929167-41.454167V411.9625l-73.454167 75.9375z" fill="#E5F5FF" p-id="48161"></path><path d="M625.620833 578.025c0-8.975-7.325-16.183333-16.420833-16.183333H413.025c-8.975 0-16.3 7.204167-16.3 16.183333 0 8.854167 7.320833 16.179167 16.3 16.179167h196.175c9.1-0.004167 16.420833-7.325 16.420833-16.179167zM625.620833 497c0-3.383333-1.041667-6.5125-2.829166-9.1a16.429167 16.429167 0 0 0-13.595834-7.083333H413.025c-8.975 0-16.3 7.204167-16.3 16.179166s7.320833 16.183333 16.3 16.183334H609.2c9.1 0.004167 16.420833-7.204167 16.420833-16.179167zM625.620833 658.929167c0-8.858333-7.325-16.183333-16.420833-16.183334H413.025c-8.975 0-16.3 7.325-16.3 16.183334 0 8.975 7.320833 16.183333 16.3 16.183333h196.175c9.1-0.004167 16.420833-7.208333 16.420833-16.183333z" fill="#A1DDFF" p-id="48162"></path></svg>