<?xml version="1.0" encoding="utf-8"?>
<!-- Generator: Adobe Illustrator 16.0.0, SVG Export Plug-In . SVG Version: 6.00 Build 0)  -->
<!DOCTYPE svg PUBLIC "-//W3C//DTD SVG 1.1//EN" "http://www.w3.org/Graphics/SVG/1.1/DTD/svg11.dtd">
<svg version="1.1" id="图层_1" xmlns="http://www.w3.org/2000/svg" xmlns:xlink="http://www.w3.org/1999/xlink" x="0px" y="0px"
	 width="540px" height="540px" viewBox="0 0 540 540" enable-background="new 0 0 540 540" xml:space="preserve">
<path fill="#F29456" d="M270,0C120.875,0,0,120.875,0,270s120.875,270,270,270c149.123,0,270-120.875,270-270S419.123,0,270,0z
	 M175.297,313.711c-20.955,0-37.94-16.986-37.94-37.94c0-20.955,16.986-37.939,37.94-37.939c20.955,0,37.94,16.985,37.94,37.939
	C213.237,296.725,196.251,313.711,175.297,313.711z M271.697,313.711c-20.955,0-37.94-16.986-37.94-37.94
	c0-20.955,16.986-37.939,37.94-37.939c20.954,0,37.939,16.985,37.939,37.939C309.636,296.725,292.651,313.711,271.697,313.711z
	 M368.097,313.711c-20.956,0-37.941-16.986-37.941-37.94c0-20.955,16.985-37.939,37.941-37.939
	c20.953,0,37.938,16.985,37.938,37.939C406.035,296.725,389.049,313.711,368.097,313.711z"/>
</svg>
