<?xml version="1.0" encoding="utf-8"?>
<!-- Generator: Adobe Illustrator 16.0.0, SVG Export Plug-In . SVG Version: 6.00 Build 0)  -->
<!DOCTYPE svg PUBLIC "-//W3C//DTD SVG 1.1//EN" "http://www.w3.org/Graphics/SVG/1.1/DTD/svg11.dtd">
<svg version="1.1" id="图层_1" xmlns="http://www.w3.org/2000/svg" xmlns:xlink="http://www.w3.org/1999/xlink" x="0px" y="0px"
	 width="402.67px" height="535.74px" viewBox="-11 -69 402.67 535.74" enable-background="new -11 -69 402.67 535.74"
	 xml:space="preserve">
<g id="图形">
</g>
<g id="图层_2">
	<g id="XMLID_2_">
		<path id="XMLID_11_" fill="#D1D1D1" d="M330.03,119.643V83.685c0-76.733-62.438-139.171-139.173-139.171
			c-76.745,0-139.182,62.436-139.182,139.171v35.958C16.472,127.293-10,158.613-10,196.072v171.625
			c0,43.171,35.119,78.289,78.29,78.289h245.123c43.171,0,78.287-35.118,78.287-78.289V196.072
			C391.702,158.613,365.229,127.294,330.03,119.643z M190.856-3.293c47.965,0,86.98,39.018,86.98,86.978v34.099h-173.97V83.685
			C103.866,35.725,142.896-3.293,190.856-3.293z M339.507,367.697c0,14.384-11.709,26.097-26.094,26.097H68.289
			c-14.385,0-26.097-11.709-26.097-26.097V196.072c0-14.385,11.711-26.098,26.097-26.098h245.124
			c14.385,0,26.094,11.712,26.094,26.098V367.697z"/>
		<path id="XMLID_14_" fill="#D1D1D1" d="M190.855,225.188c-15.496,0-28.169,12.676-28.169,28.167v62.433
			c0,15.492,12.675,28.167,28.169,28.167c15.492,0,28.165-12.676,28.165-28.167v-62.433
			C219.022,237.864,206.347,225.188,190.855,225.188z"/>
	</g>
</g>
</svg>
