<?xml version="1.0" standalone="no"?><!DOCTYPE svg PUBLIC "-//W3C//DTD SVG 1.1//EN" "http://www.w3.org/Graphics/SVG/1.1/DTD/svg11.dtd"><svg t="1501230103975" class="icon" style="" viewBox="0 0 1024 1024" version="1.1" xmlns="http://www.w3.org/2000/svg" p-id="29877" xmlns:xlink="http://www.w3.org/1999/xlink" width="200" height="200"><defs><style type="text/css"></style></defs><path d="M512 512m-512 0a512 512 0 1 0 1024 0 512 512 0 1 0-1024 0Z" fill="#3CD0B0" p-id="29878"></path><path d="M273.92 768a18.432 18.432 0 0 1-17.92-19.456 271.36 271.36 0 0 1 187.392-249.344 17.408 17.408 0 0 1 22.016 12.288 18.432 18.432 0 0 1-11.776 23.04 234.496 234.496 0 0 0-162.304 215.552 17.92 17.92 0 0 1-17.408 17.92z m399.872-156.672a16.896 16.896 0 0 1-13.312-6.144 226.816 226.816 0 0 0-105.472-70.144 18.944 18.944 0 0 1-11.776-23.04 17.92 17.92 0 0 1 19.968-12.8 260.096 260.096 0 0 1 121.856 81.408 18.944 18.944 0 0 1 0 26.112 16.384 16.384 0 0 1-11.264 4.608z" fill="#FFFFFF" p-id="29879"></path><path d="M512 538.624a135.168 135.168 0 0 1-128-141.312A135.68 135.68 0 0 1 512 256a135.168 135.168 0 0 1 128 141.312 135.168 135.168 0 0 1-128 141.312z m0-245.248a98.816 98.816 0 0 0-93.696 102.4 98.816 98.816 0 0 0 93.696 102.4 98.816 98.816 0 0 0 93.696-102.4A98.816 98.816 0 0 0 512 293.888zM619.52 768a16.384 16.384 0 0 1-12.288-5.632l-69.632-76.8a19.968 19.968 0 0 1 0-26.624 15.872 15.872 0 0 1 24.064 0l57.856 63.488 118.784-131.072a15.872 15.872 0 0 1 24.064 0 19.968 19.968 0 0 1 0 26.624l-131.072 144.896a16.384 16.384 0 0 1-12.288 5.632z" fill="#FFFFFF" p-id="29880"></path></svg>