<?xml version="1.0" standalone="no"?><!DOCTYPE svg PUBLIC "-//W3C//DTD SVG 1.1//EN" "http://www.w3.org/Graphics/SVG/1.1/DTD/svg11.dtd"><svg t="1498439631208" class="icon" style="" viewBox="0 0 1024 1024" version="1.1" xmlns="http://www.w3.org/2000/svg" p-id="2347" xmlns:xlink="http://www.w3.org/1999/xlink" width="540" height="540"><defs><style type="text/css"></style></defs><path d="M509.786112 954.360832c-247.8336 0-448.744448-200.977408-448.744448-448.760832 0-247.8336 200.910848-448.744448 448.744448-448.744448 247.870464 0 448.746496 200.910848 448.746496 448.744448C958.532608 753.384448 757.656576 954.360832 509.786112 954.360832L509.786112 954.360832zM715.584512 374.738944c8.394752-8.443904 8.394752-22.11328 0-30.507008l-45.809664-45.879296c-8.46336-8.393728-22.114304-8.393728-30.575616 0L509.348864 428.203008 379.599872 298.35264c-8.495104-8.393728-22.147072-8.393728-30.608384 0l-45.77792 45.879296c-8.42752 8.393728-8.42752 22.063104 0 30.507008l129.816576 129.833984L303.213568 634.372096c-8.42752 8.426496-8.42752 22.11328 0 30.574592l45.77792 45.77792c8.460288 8.477696 22.11328 8.477696 30.608384 0L509.348864 580.908032l129.850368 129.816576c8.462336 8.477696 22.11328 8.477696 30.575616 0l45.809664-45.77792c8.394752-8.462336 8.394752-22.148096 0-30.574592L585.735168 504.571904 715.584512 374.738944 715.584512 374.738944z" p-id="2348" fill="#bfbfbf"></path></svg>