<?xml version="1.0" standalone="no"?><!DOCTYPE svg PUBLIC "-//W3C//DTD SVG 1.1//EN" "http://www.w3.org/Graphics/SVG/1.1/DTD/svg11.dtd"><svg t="1501230493626" class="icon" style="" viewBox="0 0 1024 1024" version="1.1" xmlns="http://www.w3.org/2000/svg" p-id="43955" xmlns:xlink="http://www.w3.org/1999/xlink" width="200" height="200"><defs><style type="text/css"></style></defs><path d="M512 512m-512 0a512 512 0 1 0 1024 0 512 512 0 1 0-1024 0Z" fill="#EFC51D" p-id="43956"></path><path d="M221.337094 330.019746h288.496474v35.385049h-40.078984c-26.719323 2.888575-31.052186 23.830748-13.359662 62.104373l102.183357 226.392101 88.823696-199.672778c26.719323-56.327221 2.888575-85.574048-71.131171-88.823696v-35.385049h226.392102v35.385049c-47.300423 0-78.352609 22.025388-93.156559 66.437236L545.218618 791.469676h-66.437236l-168.620592-354.93371c-17.692525-47.300423-47.300423-71.131171-88.823696-71.131171v-35.385049z" fill="#FFFFFF" p-id="43957"></path></svg>