<?xml version="1.0" encoding="utf-8"?>
<!-- Generator: Adobe Illustrator 16.0.0, SVG Export Plug-In . SVG Version: 6.00 Build 0)  -->
<!DOCTYPE svg PUBLIC "-//W3C//DTD SVG 1.1//EN" "http://www.w3.org/Graphics/SVG/1.1/DTD/svg11.dtd">
<svg version="1.1" id="图层_1" xmlns="http://www.w3.org/2000/svg" xmlns:xlink="http://www.w3.org/1999/xlink" x="0px" y="0px"
	 width="538.922px" height="538.922px" viewBox="2.156 0 538.922 538.922" enable-background="new 2.156 0 538.922 538.922"
	 xml:space="preserve">
<path fill="#CDCDCD" d="M364.51,299.064c-25.521,0-45.937,21.438-45.937,47.977c0,26.541,20.416,47.979,45.937,47.979
	c25.52,0,45.936-21.438,45.936-47.979C410.446,320.502,390.03,299.064,364.51,299.064L364.51,299.064z M271.617,14.261
	c-140.871,0-255.2,114.33-255.2,255.2c0,140.869,114.33,255.199,255.2,255.199c140.869,0,255.199-114.33,255.199-255.199
	C526.817,128.591,412.487,14.261,271.617,14.261L271.617,14.261z M268.554,87.759c35.728,0,65.332,30.624,65.332,69.415
	c0,37.769-29.604,69.414-65.332,69.414s-65.331-30.624-65.331-69.414C202.203,119.404,231.806,87.759,268.554,87.759L268.554,87.759
	z M169.537,415.436c-35.728,0-65.332-30.623-65.332-69.416c0-37.768,29.604-69.412,65.332-69.412s65.332,30.623,65.332,69.412
	C235.889,383.791,206.286,415.436,169.537,415.436z M268.554,310.293c-16.332,0-30.624-15.313-30.624-32.666
	c0-17.353,14.292-32.665,30.624-32.665c16.333,0,31.645,15.312,31.645,32.665C299.178,294.98,284.888,310.293,268.554,310.293
	L268.554,310.293z M366.551,415.436c-35.729,0-65.331-30.623-65.331-69.416c0-37.768,29.603-69.412,65.331-69.412
	s65.332,30.623,65.332,69.412C431.883,383.791,402.28,415.436,366.551,415.436z M268.554,205.15
	c25.52,0,45.936-21.436,45.936-47.977s-20.416-47.978-45.936-47.978s-45.936,21.437-45.936,47.978
	C222.619,182.693,243.034,205.15,268.554,205.15z M170.558,299.064c-25.52,0-45.936,21.438-45.936,47.977
	c0,26.541,20.416,47.979,45.936,47.979s45.936-21.438,45.936-47.979C216.494,320.502,196.078,299.064,170.558,299.064
	L170.558,299.064z"/>
</svg>
