<?xml version="1.0" standalone="no"?><!DOCTYPE svg PUBLIC "-//W3C//DTD SVG 1.1//EN" "http://www.w3.org/Graphics/SVG/1.1/DTD/svg11.dtd"><svg t="1498552621715" class="icon" style="" viewBox="0 0 1024 1024" version="1.1" xmlns="http://www.w3.org/2000/svg" p-id="10817" xmlns:xlink="http://www.w3.org/1999/xlink" width="540" height="540"><defs><style type="text/css"></style></defs><path d="M190.06787 190.06787l69.984934 0 0 69.984934-69.984934 0 0-69.984934Z" p-id="10818" fill="#515151"></path><path d="M386.026914 64.094784l-321.93213 0 0 321.93213 125.973086 0 0 55.988152 69.984934 0 0-55.988152 125.973086 0L386.02589 316.040956l55.988152 0 0-55.988152-55.988152 0L386.02589 64.094784zM316.040956 316.040956 134.079718 316.040956 134.079718 134.079718l181.961238 0L316.040956 316.040956z" p-id="10819" fill="#515151"></path><path d="M190.06787 763.946172l69.984934 0 0 69.984934-69.984934 0 0-69.984934Z" p-id="10820" fill="#515151"></path><path d="M763.946172 190.06787l69.984934 0 0 69.984934-69.984934 0 0-69.984934Z" p-id="10821" fill="#515151"></path><path d="M512 506.356466 512 581.984934 581.984934 581.984934 581.984934 512 637.973086 512 637.973086 442.015066 581.984934 442.015066 581.984934 386.026914 512 386.026914 512 442.370153Z" p-id="10822" fill="#515151"></path><path d="M512 762.301719 512 833.93213 581.984934 833.93213 581.984934 762.301719 581.984934 707.95802 637.973086 707.95802 637.973086 637.973086 579.825758 637.973086 512 637.973086 512 698.315406Z" p-id="10823" fill="#515151"></path><path d="M581.984934 833.93213l55.988152 0 0 55.988152-55.988152 0 0-55.988152Z" p-id="10824" fill="#515151"></path><path d="M442.015066 889.920282 442.015066 959.905216 515.838422 959.905216 581.984934 959.905216 581.984934 889.920282 515.838422 889.920282Z" p-id="10825" fill="#515151"></path><path d="M707.95802 707.95802 637.973086 707.95802 637.973086 762.301719 637.973086 833.93213 707.797361 833.93213 763.946172 833.93213 763.946172 763.946172 707.95802 763.946172Z" p-id="10826" fill="#515151"></path><path d="M763.946172 959.905216 835.771011 959.905216 899.757325 959.905216 959.905216 959.905216 959.905216 889.920282 899.757325 889.920282 833.93213 889.920282 833.93213 833.93213 763.946172 833.93213 763.946172 890.275369Z" p-id="10827" fill="#515151"></path><path d="M959.905216 512 959.905216 442.015066 899.757325 442.015066 833.93213 442.015066 833.93213 512 899.757325 512Z" p-id="10828" fill="#515151"></path><path d="M889.920282 763.946172l69.984934 0 0 69.984934-69.984934 0 0-69.984934Z" p-id="10829" fill="#515151"></path><path d="M442.015066 316.040956l69.984934 0 0 69.984934-69.984934 0 0-69.984934Z" p-id="10830" fill="#515151"></path><path d="M763.946172 442.015066l0-55.988152 195.959044 0 0-321.93213-321.93213 0 0 69.984934-58.147328 0-67.825758 0 0 55.988152 67.825758 0 58.147328 0 0 69.984934-55.988152 0 0 55.988152 55.988152 0 0 69.984934 69.984934 0 0 55.988152L763.946172 442.014042zM707.95802 134.079718l181.961238 0L889.919259 316.040956 707.95802 316.040956 707.95802 134.079718z" p-id="10831" fill="#515151"></path><path d="M707.95802 581.984934l55.988152 0 0 55.988152-55.988152 0 0-55.988152Z" p-id="10832" fill="#515151"></path><path d="M833.93213 707.95802 763.946172 707.95802 763.946172 763.946172 835.771011 763.946172 889.920282 763.946172 889.920282 698.315406 889.920282 637.973086 959.905216 637.973086 959.905216 581.984934 899.757325 581.984934 833.93213 581.984934 833.93213 634.329093Z" p-id="10833" fill="#515151"></path><path d="M442.015066 190.06787l69.984934 0 0 69.984934-69.984934 0 0-69.984934Z" p-id="10834" fill="#515151"></path><path d="M260.052804 512l55.988152 0 0 69.984934-55.988152 0 0-69.984934Z" p-id="10835" fill="#515151"></path><path d="M442.015066 442.015066 387.865795 442.015066 316.040956 442.015066 316.040956 512 386.026914 512 386.026914 581.984934 442.015066 581.984934 442.015066 506.356466Z" p-id="10836" fill="#515151"></path><path d="M386.026914 833.93213 386.026914 707.95802l55.988152 0L442.015066 637.973086l-54.149271 0L190.06787 637.973086l0-67.630307 0-58.34278-58.148351 0L64.094784 512l0 69.984934 69.984934 0 0 55.988152L64.094784 637.973086l0 321.93213 321.93213 0 0-69.984934 55.988152 0 0-55.988152L386.026914 833.93213zM316.040956 889.920282 134.079718 889.920282 134.079718 707.95802l181.961238 0L316.040956 889.920282z" p-id="10837" fill="#515151"></path><path d="M442.015066 581.984934l69.984934 0 0 55.988152-69.984934 0 0-55.988152Z" p-id="10838" fill="#515151"></path><path d="M637.973086 512l69.984934 0 0 69.984934-69.984934 0 0-69.984934Z" p-id="10839" fill="#515151"></path><path d="M763.946172 512l69.984934 0 0 69.984934-69.984934 0 0-69.984934Z" p-id="10840" fill="#515151"></path></svg>