<?xml version="1.0" encoding="utf-8"?>
<!-- Generator: Adobe Illustrator 16.0.0, SVG Export Plug-In . SVG Version: 6.00 Build 0)  -->
<!DOCTYPE svg PUBLIC "-//W3C//DTD SVG 1.1//EN" "http://www.w3.org/Graphics/SVG/1.1/DTD/svg11.dtd">
<svg version="1.1" id="图层_1" xmlns="http://www.w3.org/2000/svg" xmlns:xlink="http://www.w3.org/1999/xlink" x="0px" y="0px"
	 width="580px" height="580px" viewBox="0 0 580 580" enable-background="new 0 0 580 580" xml:space="preserve">
<g id="图形">
</g>
<g id="图层_2">
	<g id="XMLID_22_">
		<path id="XMLID_43_" fill="#CDCDCD" d="M558.935,233.312c0,5.374-1.608,10.783-5.43,14.549L308.346,519.237
			c-4.032,4.46-9.857,7.265-16.338,7.265c-6.484,0-12.313-2.802-16.36-7.282L30.52,247.857c-3.266-3.763-5.455-9.172-5.455-14.546
			v-45.32c0-5.921,2.188-11.308,6.537-15.641L147.656,57.992c4.353-4.323,9.805-6.491,15.791-6.491h257.086
			c0.086-0.003,0.178-0.003,0.267-0.003c6.086,0,11.591,2.485,15.562,6.492l116.056,114.36c4.349,4.344,6.517,9.72,6.517,15.641
			L558.935,233.312L558.935,233.312z"/>
		<polygon id="XMLID_44_" fill="#FFFFFF" points="359.245,187.962 292.001,279.625 224.752,187.962 231.553,169.477 
			143.814,169.477 291.998,366.861 291.998,367.361 440.185,169.936 352.448,169.936 		"/>
	</g>
</g>
</svg>
