<?xml version="1.0" standalone="no"?><!DOCTYPE svg PUBLIC "-//W3C//DTD SVG 1.1//EN" "http://www.w3.org/Graphics/SVG/1.1/DTD/svg11.dtd"><svg t="1500031052784" class="icon" style="" viewBox="0 0 1024 1024" version="1.1" xmlns="http://www.w3.org/2000/svg" p-id="17844" xmlns:xlink="http://www.w3.org/1999/xlink" width="128" height="128"><defs><style type="text/css"></style></defs><path d="M1022.95552 511.48288c0 282.47552-228.992 511.46752-511.47776 511.46752C228.99712 1022.9504 0 793.9584 0 511.48288 0 228.99712 228.99712 0 511.47776 0 793.96352 0 1022.95552 228.99712 1022.95552 511.48288zM511.48288 53.18656c-253.11232 0-458.30144 205.17888-458.30144 458.29632 0 253.1072 205.19424 458.28608 458.30144 458.28608 253.1072 0 458.2912-205.17888 458.2912-458.28608C969.77408 258.36544 764.59008 53.18656 511.48288 53.18656z" p-id="17845" fill="#59bdca"></path><path d="M698.763 259.389c11.44 10.445 20.525 19.125 27.31 26.027 6.77 6.895 11.95 12.745 15.555 17.552 3.585 4.805 5.815 8.887 6.66 12.227 0.845 3.347 1.275 6.275 1.275 8.782l0 10.032-93.96 0c-4.24 0-7.955-1.572-11.12-4.705-3.165-3.135-5.825-6.792-7.935-10.97-2.11-4.188-3.69-8.467-4.765-12.862-1.05-4.38-1.58-7.835-1.58-10.342l0-77.762 1.905 0c3.385 0 6.88 0.522 10.47 1.57 3.595 1.045 7.725 3.03 12.385 5.96 4.655 2.922 10.47 7.107 17.455 12.537C679.408 242.877 688.188 250.189 698.763 259.389L698.763 259.389zM590.208 295.759c0 8.36 1.27 17.035 3.8 26.02 2.545 8.992 6.565 17.35 12.065 25.085 5.5 7.735 12.485 14.11 20.955 19.13 8.465 5.012 18.415 7.52 29.84 7.52l92.695 0 0 353.679c0 12.125-2.44 22.99-7.3 32.61-4.875 9.61-11.32 17.77-19.37 24.45-8.04 6.695-16.925 11.92-26.665 15.68-9.73 3.765-19.26 5.645-28.58 5.645L355.292 805.578c-8.045 0-16.822-2.305-26.345-6.9-9.525-4.6-18.417-10.65-26.667-18.185-8.255-7.525-15.13-16.09-20.635-25.705-5.5-9.615-8.252-19.64-8.252-30.11L273.393 298.264c0-8.775 2.015-17.867 6.035-27.277 4.017-9.407 9.522-18.08 16.505-26.022 6.985-7.945 14.917-14.525 23.81-19.75 8.885-5.23 18.195-7.842 27.935-7.842l242.532 0L590.21 295.759 590.208 295.759zM630.203 687.058c11 0 20.32-3.87 27.93-11.595 7.615-7.74 11.425-17.035 11.425-27.905 0-10.875-3.81-20.075-11.425-27.595-7.61-7.525-16.93-11.295-27.93-11.295L392.116 608.668c-11 0-20.315 3.76-27.935 11.295-7.617 7.52-11.427 16.72-11.427 27.595 0 10.87 3.81 20.165 11.427 27.905 7.62 7.725 16.935 11.595 27.935 11.595L630.203 687.058 630.203 687.058zM669.558 491.409c0-10.867-3.81-20.172-11.425-27.905-7.61-7.73-16.93-11.605-27.93-11.605L392.116 451.899c-11 0-20.315 3.875-27.935 11.605-7.617 7.732-11.427 17.037-11.427 27.905 0 10.87 3.81 20.065 11.427 27.6 7.62 7.505 16.935 11.275 27.935 11.275l238.087 0c11 0 20.32-3.77 27.93-11.275C665.748 511.479 669.558 502.279 669.558 491.409L669.558 491.409z" p-id="17846" fill="#59bdca"></path></svg>