<?xml version="1.0" encoding="utf-8"?>
<!-- Generator: Adobe Illustrator 16.0.0, SVG Export Plug-In . SVG Version: 6.00 Build 0)  -->
<!DOCTYPE svg PUBLIC "-//W3C//DTD SVG 1.1//EN" "http://www.w3.org/Graphics/SVG/1.1/DTD/svg11.dtd">
<svg version="1.1" id="图层_1" xmlns="http://www.w3.org/2000/svg" xmlns:xlink="http://www.w3.org/1999/xlink" x="0px" y="0px"
	 width="540px" height="540px" viewBox="0 0 540 540" enable-background="new 0 0 540 540" xml:space="preserve">
<path fill="#FFFFFF" d="M395.691,372.924c-21.114,0-40.23,8.436-54.054,22.064l-140.951-96.076
	c5.714-10.509,8.953-22.486,8.953-35.241c0-9.882-1.954-19.311-5.497-27.951l135.626-92.458
	c13.35,14.342,32.52,23.285,54.648,23.285c42.887,0,77.663-34.236,77.663-76.453c0-42.239-34.106-73.462-76.141-73.462
	c-42.033,0-76.14,33.556-76.14,74.952c0,4.363,0.367,8.64,1.048,12.809l-146.491,96.164c-11.739-7.323-25.65-11.567-40.587-11.567
	c-41.893,0-75.848,33.437-75.848,74.682c0,41.256,33.955,74.693,75.848,74.693c11.653,0,22.691-2.593,32.563-7.204l154.58,101.478
	c-1.069,5-1.609,10.184-1.609,15.509c0,41.536,34.193,75.222,76.378,75.222s76.389-33.675,76.389-75.222
	C472.079,406.599,437.875,372.924,395.691,372.924L395.691,372.924z"/>
</svg>
