<?xml version="1.0" standalone="no"?><!DOCTYPE svg PUBLIC "-//W3C//DTD SVG 1.1//EN" "http://www.w3.org/Graphics/SVG/1.1/DTD/svg11.dtd"><svg t="1499416376345" class="icon" style="" viewBox="0 0 1024 1024" version="1.1" xmlns="http://www.w3.org/2000/svg" p-id="106392" xmlns:xlink="http://www.w3.org/1999/xlink" width="540" height="540"><defs><style type="text/css"></style></defs><path d="M580.08064 466.01216H308.49024c-12.55424 0-23.30112 4.46464-32.2304 13.39904-8.9344 8.92928-13.39904 19.67616-13.39904 32.2304 0 12.54912 4.46464 23.17312 13.39904 31.86688 8.92928 8.68864 19.67616 13.03552 32.2304 13.03552h271.5904c12.55936 0 23.30112-4.34688 32.22016-13.03552 8.93952-8.68864 13.40928-19.31264 13.40928-31.86688 0-12.55424-4.46976-23.30112-13.40928-32.2304-8.91904-8.9344-19.6608-13.39904-32.22016-13.39904zM580.08064 647.07072H308.49024c-12.55424 0-23.30112 4.46976-32.2304 13.39904-8.9344 8.9344-13.39904 19.68128-13.39904 32.2304 0 12.55424 4.46464 23.168 13.39904 31.872 8.92928 8.68864 19.67616 13.04064 32.2304 13.04064h271.5904c12.55936 0 23.30112-4.352 32.22016-13.04064 8.93952-8.68864 13.40928-19.30752 13.40928-31.872 0-12.54912-4.46976-23.296-13.40928-32.2304-8.91904-8.92928-19.6608-13.39904-32.22016-13.39904z" fill="#59bdca" p-id="106393"></path><path d="M880.64 0H143.36C64.18432 0 0 64.18432 0 143.36v737.28c0 79.17056 64.18432 143.36 143.36 143.36h737.28c79.17568 0 143.36-64.18944 143.36-143.36V143.36c0-79.17568-64.18432-143.36-143.36-143.36z m-164.39808 784.68096c0 13.99808-2.78016 26.56256-8.33024 37.66272s-12.8 20.51584-21.72928 28.24192a102.52288 102.52288 0 0 1-30.05952 18.10432c-11.10016 4.352-22.21056 6.51776-33.31072 6.51776H265.7536c-9.17504 0-19.18976-2.6624-30.0544-7.97184s-21.00736-12.30848-30.4128-21.00736a118.81472 118.81472 0 0 1-23.54176-30.05952c-6.28224-11.34592-9.41568-22.8096-9.41568-34.4064V378.368c0-10.1376 2.41152-20.64384 7.23968-31.50336 4.82816-10.86464 11.10528-20.88448 18.83136-30.05952s16.66048-16.77824 26.79808-22.81472c10.1376-6.03648 20.7616-9.05216 31.86688-9.05216h365.7472c14.4896 0 27.40736 3.13856 38.74816 9.41568 11.35104 6.27712 21.12 13.99808 29.33248 23.17824 8.21248 9.16992 14.47936 19.06688 18.83648 29.69088 4.34176 10.61888 6.51264 20.03968 6.51264 28.24192v409.216z m135.42912-70.97344c0 10.13248-3.0208 19.4304-9.05216 27.8784-6.0416 8.44288-13.39904 15.68768-22.08768 21.72416s-18.10944 10.86464-28.25216 14.48448c-10.13248 3.61984-19.54816 5.44256-28.24192 5.44256h-2.89792v-432.384c-3.86048-33.31072-14.23872-58.90048-31.13984-76.76928-16.90112-17.86368-39.35232-29.45024-67.35872-34.7648H309.21728c0.48128-0.96256 0.72192-2.65728 0.72192-5.07392 0-9.65632 2.8928-19.55328 8.69376-29.69088 5.79072-10.13248 13.39392-19.30752 22.8096-27.52a130.21184 130.21184 0 0 1 31.50336-20.2752c11.58656-5.30944 23.17312-7.96672 34.7648-7.96672h300.55936c20.7616 0 39.82848 6.15424 57.21088 18.46784 17.38752 12.3136 32.48128 27.52 45.27104 45.62944 12.8 18.10944 22.81984 37.6576 30.05952 58.66496s10.85952 40.19712 10.85952 57.57952v384.57344z" fill="#59bdca" p-id="106394"></path></svg>