<?xml version="1.0" standalone="no"?><!DOCTYPE svg PUBLIC "-//W3C//DTD SVG 1.1//EN" "http://www.w3.org/Graphics/SVG/1.1/DTD/svg11.dtd"><svg t="1501229408490" class="icon" style="" viewBox="0 0 1024 1024" version="1.1" xmlns="http://www.w3.org/2000/svg" p-id="25478" xmlns:xlink="http://www.w3.org/1999/xlink" width="200" height="200"><defs><style type="text/css"></style></defs><path d="M512.11776 4.31104C231.95136 4.31104 4.8896 231.40352 4.8896 511.5392c0 280.11008 227.06688 507.2384 507.22816 507.2384 280.12032 0 507.24352-227.12832 507.24352-507.2384 0.01024-280.1408-227.1232-507.22816-507.24352-507.22816z" fill="#159BFF" p-id="25479"></path><path d="M271.17056 369.05984c0-54.29248 44.17024-98.47296 98.46784-98.47296h31.72352a35.328 35.328 0 0 1 35.29216 35.28704 35.328 35.328 0 0 1-35.29216 35.29216h-31.72352a27.92448 27.92448 0 0 0-27.904 27.89888v31.73888c0 19.456-15.82592 35.28192-35.28192 35.28192a35.31776 35.31776 0 0 1-35.28192-35.28192v-31.744zM547.38944 400.80384c0 19.456-15.8208 35.28192-35.2768 35.28192-19.44576 0-35.28704-15.82592-35.28704-35.28192V305.87392c0-19.456 15.83616-35.28704 35.28704-35.28704 19.456 0 35.2768 15.83104 35.2768 35.28704v94.92992zM753.07008 650.6752c0 56.1408-45.68064 101.82656-101.83168 101.82656h-60.02176c-19.45088 0-35.28192-15.83616-35.28192-35.28704 0-19.44576 15.83104-35.28704 35.28192-35.28704h60.02176a31.2832 31.2832 0 0 0 31.2576-31.25248v-91.66336c0-19.456 15.83104-35.28704 35.28192-35.28704 19.46112 0 35.29216 15.83616 35.29216 35.28704v91.66336zM753.07008 400.80384c0 19.456-15.83104 35.28192-35.29216 35.28192s-35.28192-15.82592-35.28192-35.28192v-31.73888a27.93472 27.93472 0 0 0-27.90912-27.89888h-31.72864c-19.45088 0-35.27168-15.83104-35.27168-35.29216 0-19.456 15.8208-35.28704 35.27168-35.28704h31.72864c54.29248 0 98.47808 44.18048 98.47808 98.47296v31.744h0.00512zM433.01888 523.7248h-94.9248c-36.90496 0-66.9184 30.01856-66.9184 66.9184v94.91456c0 36.90496 30.01344 66.92864 66.9184 66.92864h94.9248c36.89984 0 66.92352-30.02368 66.92352-66.92864V590.6432c0-36.8896-30.02368-66.9184-66.92352-66.9184z m-47.4624 172.34432c-32.02048 0-57.96864-25.94816-57.96864-57.96352 0-32.01024 25.94816-57.96352 57.96864-57.96352 32.01536 0 57.96864 25.95328 57.96864 57.96352 0 32.01536-25.95328 57.96352-57.96864 57.96352z" fill="#FFFFFF" p-id="25480"></path></svg>