<?xml version="1.0" standalone="no"?><!DOCTYPE svg PUBLIC "-//W3C//DTD SVG 1.1//EN" "http://www.w3.org/Graphics/SVG/1.1/DTD/svg11.dtd"><svg t="1501231646299" class="icon" style="" viewBox="0 0 1024 1024" version="1.1" xmlns="http://www.w3.org/2000/svg" p-id="59729" xmlns:xlink="http://www.w3.org/1999/xlink" width="200" height="200"><defs><style type="text/css"></style></defs><path d="M512 512m-512 0a512 512 0 1 0 1024 0 512 512 0 1 0-1024 0Z" fill="#FE9C12" p-id="59730"></path><path d="M342.016 217.088c2.048-6.144 6.144-12.288 12.288-16.384 6.144-4.096 12.288-4.096 20.48-2.048l290.816 71.68c6.144 2.048 12.288 6.144 16.384 12.288s4.096 12.288 2.048 20.48v4.096H319.488l22.528-90.112z" fill="#ECF0F1" p-id="59731"></path><path d="M774.144 718.848c0 26.624-20.48 47.104-47.104 47.104H309.248c-26.624 0-47.104-20.48-47.104-47.104V376.832c0-26.624 20.48-47.104 47.104-47.104h417.792c26.624 0 47.104 20.48 47.104 47.104v342.016z" fill="#FFFFFF" p-id="59732"></path><path d="M573.44 440.32l-45.056 86.016c-4.096 8.192-8.192 14.336-10.24 20.48-2.048-6.144-6.144-12.288-10.24-18.432l-47.104-88.064h-38.912l63.488 118.784h-51.2v30.72h65.536v18.432h-65.536v28.672h65.536v53.248h34.816v-53.248h65.536v-28.672h-65.536v-18.432h65.536v-30.72h-51.2l63.488-118.784H573.44z" fill="#F1C40F" p-id="59733"></path></svg>