<?xml version="1.0" standalone="no"?><!DOCTYPE svg PUBLIC "-//W3C//DTD SVG 1.1//EN" "http://www.w3.org/Graphics/SVG/1.1/DTD/svg11.dtd"><svg t="1501229778593" class="icon" style="" viewBox="0 0 1025 1024" version="1.1" xmlns="http://www.w3.org/2000/svg" p-id="27255" xmlns:xlink="http://www.w3.org/1999/xlink" width="200.1953125" height="200"><defs><style type="text/css"></style></defs><path d="M512.707027 1.888179C230.457602 1.888179 1.651117 230.694664 1.651117 512.944089s228.806485 511.055911 511.05591 511.055911 511.055911-228.810644 511.055911-511.055911S794.956453 1.888179 512.707027 1.888179z m212.632198 519.581827c-5.452428 12.310592-16.681683 19.788444-29.428968 19.788444h-18.133169v161.84269c0 17.825404-14.448309 32.323621-32.207169 32.323621h-74.508192c-17.563388 0-31.849497-14.498217-31.849497-32.323621v-117.541196l-52.324173 0.024954 0.141405 117.516242c0 17.825404-14.236201 32.323621-31.737204 32.323621H380.667614c-17.563388 0-31.853656-14.498217-31.853655-32.323621v-162.216999l-19.426613 0.024954c-12.676582 0-23.860089-7.473694-29.196065-19.505633-5.281909-12.842942-2.366462-26.891988 7.311493-36.05007l182.820603-185.769323c5.76851-5.85169 13.970026-9.203831 22.516738-9.203831 8.517599 0 16.731591 3.331346 22.54585 9.145605l183.261456 186.567848c9.074902 9.232944 11.699221 23.123949 6.691804 35.376315z" fill="#FFC073" p-id="27256"></path><path d="M520.617414 314.157148c-3.730608-3.730608-11.695062-3.822106-15.475578 0.012477l-183.082619 186.027179c-3.697336 3.510182-4.649744 8.409465-2.744929 13.042573 1.867384 4.208891 5.677013 6.8748 10.068899 6.8748h19.688629c11.324912 0 20.537061 9.316123 20.537061 20.769964v162.216999c0 6.354927 4.961667 11.528703 11.058737 11.528702h74.624644c6.034685 0 10.942286-5.173776 10.942286-11.528702v-117.541196c0-11.453841 9.266216-20.769964 20.653513-20.769965h52.58203c11.324912 0 20.537061 9.316123 20.537061 20.769965v117.541196c0 6.354927 4.957509 11.528703 11.054579 11.528702h74.508192c6.292542 0 11.412251-5.173776 11.412251-11.528702v-161.863485c0-5.85169 1.804999-10.484798 5.677013-14.577238 3.797152-4.046691 8.945974-6.196886 14.855889-6.196885h18.395185c4.466748 0 8.317967-2.670068 10.297643-7.136816 1.775886-4.350297 0.902499-9.311964-2.395574-12.668264l-183.194912-186.501304z m161.971618 192.773051c-2.241692 0.590576-10.376664-1.414054-17.683998 0.353514-10.846629 2.711657-14.032411 8.725548-14.9765 15.683527l-0.116452 163.277539c0 8.134972-5.186253 10.613726-13.204773 10.613726h-50.45679c-8.01852 0-16.032882 0.112293-16.032881-8.01852l0.469965-135.932222a6.862323 6.862323 0 0 0-6.837369-6.95382h-19.68447V360.862534a14.502376 14.502376 0 0 1 11.903011 4.125712l123.546768 125.672009a14.880843 14.880843 0 0 1 3.073489 16.269944z" fill="#FEFEFE" p-id="27257"></path><path d="M535.381806 299.517525c-5.8101-5.814259-14.028252-9.145605-22.54585-9.145605-8.542552 0-16.748227 3.352141-22.516738 9.203831l-182.820603 185.769323c-9.677955 9.158082-12.589244 23.207129-7.311493 36.05007 5.331817 12.036099 16.519483 19.505633 29.196065 19.505633l19.426613-0.024954v162.216999c0 17.825404 14.290268 32.323621 31.853655 32.323621h74.624644c17.501003 0 31.737204-14.498217 31.737204-32.323621l-0.141405-117.516242 52.324173-0.024954v117.541196c0 17.825404 14.290268 32.323621 31.849497 32.323621h74.508192c17.763019 0 32.207169-14.498217 32.207169-32.323621V541.250132h18.133169c12.747285 0 23.9807-7.477853 29.428968-19.788444 5.007416-12.252366 2.378939-26.143371-6.691804-35.384633l-183.261456-186.55953z m170.826094 213.809191c-1.979676 4.466748-5.826736 7.136816-10.297643 7.136816h-18.395185c-5.909916 0-11.058738 2.154354-14.855889 6.196885-3.876173 4.09244-5.677013 8.725548-5.677013 14.577238v161.863485c0 6.354927-5.119709 11.528703-11.412251 11.528702h-74.508192c-6.09707 0-11.054579-5.173776-11.054579-11.528702v-117.541196c0-11.453841-9.212149-20.769964-20.537061-20.769965h-52.58203c-11.387297 0-20.653513 9.316123-20.653513 20.769965v117.541196c0 6.354927-4.907601 11.528703-10.942286 11.528702H380.667614c-6.09707 0-11.058738-5.173776-11.058737-11.528702v-162.216999c0-11.453841-9.212149-20.769964-20.537061-20.769964h-19.688629c-4.396046 0-8.201516-2.670068-10.068899-6.8748-1.904815-4.633108-0.952407-9.532391 2.744929-13.042573l183.082619-186.027179c3.780516-3.834583 11.74497-3.743085 15.475578-0.012477l183.194912 186.501304c3.298074 3.3563 4.167302 8.317967 2.395574 12.668264z" fill="#E6A14C" p-id="27258"></path><path d="M555.972934 364.988246a14.506535 14.506535 0 0 0-11.903011-4.125712v185.08725h19.68447a6.862323 6.862323 0 0 1 6.837369 6.95382l-0.469966 135.932222c0 8.130813 8.01852 8.01852 16.032882 8.01852h50.45679c8.01852 0 13.204773-2.478754 13.204773-10.613726l0.116452-163.277539c0.944089-6.95798 4.125712-12.967711 14.9765-15.683527 7.307334-1.767568 15.442306 0.237062 17.683998-0.353514a14.889161 14.889161 0 0 0-3.06933-16.269944L555.972934 364.988246z" fill="#FADFA8" p-id="27259"></path></svg>