<?xml version="1.0" encoding="utf-8"?>
<!-- Generator: Adobe Illustrator 16.0.0, SVG Export Plug-In . SVG Version: 6.00 Build 0)  -->
<!DOCTYPE svg PUBLIC "-//W3C//DTD SVG 1.1//EN" "http://www.w3.org/Graphics/SVG/1.1/DTD/svg11.dtd">
<svg version="1.1" id="图层_1" xmlns="http://www.w3.org/2000/svg" xmlns:xlink="http://www.w3.org/1999/xlink" x="0px" y="0px"
	 width="570px" height="570px" viewBox="0 0 570 570" enable-background="new 0 0 570 570" xml:space="preserve">
<path fill="#F5C506" d="M286.478,26.285C143.821,26.285,27.763,142.343,27.763,285c0,142.656,116.058,258.715,258.715,258.715
	c142.655,0,258.715-116.059,258.715-258.715C545.193,142.343,429.133,26.285,286.478,26.285z"/>
<path fill="#F5A006" d="M156.068,436.874l10.635,16.764l24.556,12.144l9.443-63.746L156.068,436.874L156.068,436.874z
	 M201.848,401.141l-1.146,0.895l-9.443,63.746l18.296,9.047l12.976-87.597L201.848,401.141z"/>
<path fill="#F4A106" d="M222.531,387.231l-12.976,87.597l18.295,9.049l16.49-111.313L222.531,387.231z"/>
<path fill="#F3A106" d="M244.34,372.564l-16.49,111.313l18.296,9.048l20.001-135.026L244.34,372.564z"/>
<path fill="#F1A206" d="M266.147,357.898l-20.001,135.026l18.296,9.048l23.513-158.74L266.147,357.898z"/>
<path fill="#F0A206" d="M287.955,343.232l-23.513,158.74l18.295,9.049l27.026-182.458L287.955,343.232L287.955,343.232z"/>
<path fill="#EFA306" d="M309.764,328.563l-27.026,182.458l18.294,9.047l30.54-206.172L309.764,328.563L309.764,328.563z"/>
<path fill="#EEA306" d="M331.572,313.896l-30.54,206.172l18.296,9.048L353.38,299.23L331.572,313.896L331.572,313.896z"/>
<path fill="#EDA406" d="M353.38,299.23l-34.053,229.886l18.297,9.049l37.564-253.601L353.38,299.23L353.38,299.23z"/>
<path fill="#ECA606" d="M375.189,284.564l-37.565,253.601l0.678,0.333c6.603-1.353,13.15-2.964,19.626-4.833l39.072-263.767
	L375.189,284.564L375.189,284.564z"/>
<path fill="#EBA606" d="M396.999,269.898l-39.072,263.767c6.98-2.01,13.873-4.315,20.659-6.909l40.22-271.526L396.999,269.898z"/>
<path fill="#EBA706" d="M418.806,255.231l-40.22,271.527c7.126-2.725,14.127-5.765,20.983-9.11l41.044-277.083L418.806,255.231z"/>
<path fill="#EAA706" d="M440.614,240.564L399.57,517.646c7.303-3.562,14.435-7.465,21.369-11.7l41.482-280.049L440.614,240.564z"/>
<path fill="#E9A806" d="M462.422,225.898l-41.481,280.048c7.529-4.599,14.821-9.577,21.845-14.917L484.23,211.23L462.422,225.898z"
	/>
<path fill="#E8A906" d="M484.956,210.743l-0.727,0.487l-41.445,279.799c7.853-5.977,15.358-12.395,22.482-19.222l37.293-251.766
	L484.956,210.743z"/>
<path fill="#E6A906" d="M502.562,220.042l-37.294,251.766c8.371-8.014,16.199-16.575,23.433-25.628l32.071-216.519L502.562,220.042z
	"/>
<path fill="#E4AA06" d="M520.772,229.662L488.7,446.18c9.528-11.928,17.987-24.674,25.277-38.088l25.005-168.812L520.772,229.662z"
	/>
<path fill="#E3AA06" d="M538.984,239.279l-25.005,168.813c19.896-36.627,31.212-78.562,31.212-123.092
	c0.005-14.904-1.276-29.779-3.828-44.463L538.984,239.279L538.984,239.279z"/>
<path fill="#FFFFFF" d="M87.998,210.607l1.273-3.593c3.274-9.775,11.823-16.323,22.237-17.051
	c9.503-0.683,19.007,4.865,23.462,13.596c4.547,8.913,3.274,19.416-3.319,27.237c-0.772,0.863-1.547,1.727-2.411,2.728
	c18.416,11.276,36.74,22.417,54.974,33.648c6.912,4.273,13.87,8.547,20.78,12.685c3.956,2.32,7.002,1.638,9.139-2.229
	c21.039-38.336,42.062-76.683,63.068-115.04c-9.139-4.638-15.051-11.731-15.597-22.235c-0.364-7.367,2.228-13.688,7.457-18.825
	c10.368-10.095,27.373-9.14,36.467,2.046c10.459,12.823,6.684,27.828-9.912,39.105c5.411,9.912,10.867,19.87,16.369,29.783
	c15.233,27.738,30.375,55.383,45.606,83.121c3.502,6.412,5.731,7.002,12.005,3.275c23.555-14.37,47.064-28.83,70.615-43.244
	c1.093-0.683,2.137-1.364,3.411-2.137c-4.866-4.865-7.958-10.367-8.32-17.143c-0.683-12.686,8.048-23.782,20.28-25.873
	c12.73-2.229,24.554,5.047,28.328,17.371c0.271,0.954,0.681,1.955,1.044,2.91v8.548c-4,12.822-12.231,20.28-26.374,20.372
	c-0.498,1.455-1.045,2.91-1.455,4.365c-13.776,47.244-27.555,94.579-41.331,141.822c-1.773,6.186-3.958,7.775-10.186,7.775H167.662
	c-6.685,0-8.73-1.545-10.549-7.775c-11.231-38.331-22.325-76.801-33.558-115.132c-3-10.367-6.093-20.734-9.139-31.147
	c-10.549,0-18.506-4.183-23.463-13.277c-1.183-2.228-1.955-4.729-2.91-7.094C87.998,216.246,87.998,213.427,87.998,210.607
	L87.998,210.607z M286.386,418.361h111.176c9.911,0,17.825,7.004,18.916,16.416c1.092,9.503-5.138,18.144-14.732,20.28
	c-1.364,0.364-2.819,0.408-4.184,0.408H175.119c-8.458,0-15.597-5.045-18.051-12.685c-2.547-7.639-0.183-16.279,6.593-20.645
	c3.501-2.227,8.139-3.775,12.231-3.775C212.769,418.181,249.6,418.361,286.386,418.361z"/>
</svg>
