<?xml version="1.0" encoding="utf-8"?>
<!-- Generator: Adobe Illustrator 16.0.0, SVG Export Plug-In . SVG Version: 6.00 Build 0)  -->
<!DOCTYPE svg PUBLIC "-//W3C//DTD SVG 1.1//EN" "http://www.w3.org/Graphics/SVG/1.1/DTD/svg11.dtd">
<svg version="1.1" id="图层_1" xmlns="http://www.w3.org/2000/svg" xmlns:xlink="http://www.w3.org/1999/xlink" x="0px" y="0px"
	 width="540px" height="540px" viewBox="0 0 540 540" enable-background="new 0 0 540 540" xml:space="preserve">
<path fill="#FAFBFC" d="M13.5,270c0,141.661,114.839,256.5,256.5,256.5c141.66,0,256.5-114.839,256.5-256.5S411.66,13.5,270,13.5
	C128.339,13.5,13.5,128.339,13.5,270L13.5,270L13.5,270z"/>
<path fill="#F5F6F6" d="M215.73,323.73l-71.55,27.539c0,0-15.66,5.67-23.22,27.271c-7.561,21.601-31.32,73.979-31.32,73.979
	s66.96,73.98,178.2,73.98l1.35-40.5L215.73,323.73L215.73,323.73z M324.539,323.73l71.551,27.539c0,0,15.66,5.67,23.22,27.271
	s31.32,73.979,31.32,73.979s-66.96,73.98-178.47,73.98L270.81,486L324.539,323.73L324.539,323.73z"/>
<path fill="#E8E8E8" d="M213.57,318.061l52.92,132.029h6.211l52.919-132.029l-56.159,30.51L213.57,318.061z"/>
<path fill="#FFFFFF" d="M325.619,318.061l25.11,11.34l15.12,62.64l-40.23,15.12l20.25,23.76L269.46,486v-33.21L325.619,318.061z"/>
<path fill="#F5F6F6" d="M266.22,486h5.94v40.5h-5.94V486z"/>
<path fill="#49494A" d="M349.65,131.76c1.62-3.24,2.7-7.29,1.89-11.88c-12.689-34.56-86.129-29.7-86.129-29.7
	s-86.671,2.7-87.75,76.95c1.619,37.53,20.79,48.87,20.79,48.87v-33.48c61.02-14.31,130.949-35.91,130.949-35.91s3.24-0.81,7.29-2.97
	v65.34c0,0,32.67-18.63,31.86-55.62C366.93,139.05,356.13,133.65,349.65,131.76z"/>
<path fill="#FFFFFF" d="M213.57,318.061L188.46,329.4l-15.12,62.64l40.229,15.12l-20.25,23.76L269.46,486v-33.21L213.57,318.061z"/>
<path fill="#3D3D3F" d="M211.95,307.53c0,0-33.75,0-33.75,37.53v26.459c-10.261,2.431-18.091,11.61-18.091,22.681
	c0,12.96,10.53,23.22,23.221,23.22c12.689,0,23.22-10.529,23.22-23.22c0-11.61-8.64-21.33-19.98-22.95v-26.189
	c0,0-2.159-28.891,25.11-28.891h33.21v-8.91L211.95,307.53L211.95,307.53z"/>
<path fill="#C8C8C8" d="M167.94,394.471c0,8.648,7.012,15.659,15.66,15.659s15.66-7.011,15.66-15.659l0,0
	c0-8.649-7.012-15.66-15.66-15.66S167.94,385.821,167.94,394.471L167.94,394.471z"/>
<path fill="#3D3D3F" d="M360.72,360.18v-14.85c0-37.53-33.75-37.53-33.75-37.53h-33.21v8.91h33.21
	c27.27,0,25.109,28.89,25.109,28.89v14.851c-13.229,1.62-23.489,10.8-23.489,21.6v46.71h0.27c0.271,1.891,1.351,2.971,1.351,2.971
	s9.72,10.8,12.689,10.8s5.4-4.59,5.4-4.59V420.93c0-3.24-2.7-2.97-2.7-2.97h-8.1v-36.181c1.35-10.799,8.909-13.499,19.17-13.229
	c10.26,0,17.819,2.431,19.17,13.229v36.181h-8.101c0,0-2.7-0.271-2.7,2.97v17.011c0,0,2.431,4.59,5.4,4.59s12.69-10.8,12.69-10.8
	s1.08-1.351,1.35-2.971h0.271v-46.71C384.48,370.71,374.22,361.8,360.72,360.18L360.72,360.18z"/>
<path fill="#E9BEAF" d="M213.57,319.41v-34.83l112.32,1.62v33.21l-56.43,31.859L213.57,319.41z"/>
<path fill="#F6CDBF" d="M336.15,196.29l0.54-52.65l-139.05,38.88l0.811,13.77c0,0-20.79,0.54-20.79,31.32
	c-0.271,27.81,23.76,27.54,23.76,27.54l13.5,35.911l32.67,24.569h43.74L324,291.061l13.5-35.911c0,0,24.029,0.27,23.76-27.54
	C360.99,196.83,336.15,196.29,336.15,196.29z"/>
<path fill="#F6CDBF" d="M336.15,196.29H198.45c0,0-20.79,0.54-20.79,31.32c-0.271,27.81,23.76,27.54,23.76,27.54H337.5
	c0,0,24.029,0.27,23.76-27.54C360.99,196.83,336.15,196.29,336.15,196.29z"/>
<path fill="#F3908F" d="M239.76,263.25c0,0,28.08,8.641,59.13,0c0,0-4.86,19.98-29.43,19.98
	C244.89,283.23,239.76,263.25,239.76,263.25z"/>
</svg>
